<?xml version="1.0" encoding="utf-8" ?><svg xmlns="http://www.w3.org/2000/svg" xmlns:xlink="http://www.w3.org/1999/xlink" width="2064" height="512" viewBox="0 0 2064 512"><path fill="#0A1B4E" d="M790.067 156.521C802.048 156.219 812.973 156.385 824.944 156.667C825.963 195.469 824.477 234.506 825.172 273.331C825.34 282.719 825.434 292.672 825.088 302.044L823.109 303.043L794.579 302.929C770.968 274.165 750.945 245.365 725.637 216.167C726.681 244.336 726.257 274.645 726.265 302.992C714.628 303.306 702.831 303.01 691.181 302.834C692.18 267.529 690.894 196.637 691.624 158.005C692.174 157.416 692.647 156.91 693.043 156.485C702.498 156.383 711.953 156.443 721.405 156.664C730.616 166.694 742.66 182.756 751.286 193.645L790.164 242.106L790.067 156.521Z"/><path fill="#0A1B4E" d="M890.215 189.223C972.814 179.546 991.938 284.181 914.632 304.05C896.755 306.396 881.611 305.548 865.919 295.365C853.112 287.159 844.168 274.123 841.121 259.222C833.457 222.63 855.513 196.258 890.215 189.223ZM905.304 276.759C942.313 268.716 933.749 213.921 897.25 216.217C868.378 224.861 866.995 262.103 890.266 273.899C894.92 276.219 900.124 277.209 905.304 276.759Z"/><path fill="#4559BF" d="M1235.88 161.35C1256.26 151.964 1280.05 152.751 1301.17 159.139C1308.17 161.069 1313.78 163.866 1320.07 167.475C1315.56 176.742 1312.11 184.345 1308.83 194.151C1292.82 186.962 1274.2 178.158 1256.53 184.458C1241.84 189.879 1241.54 204.896 1256.37 210.393C1277.5 218.22 1314.76 220.964 1324.18 245.449C1333.05 268.53 1317.43 292.919 1295.02 300.513C1271.71 308.417 1245.26 305.983 1222.63 296.936C1217.21 294.634 1210.38 290.392 1208.19 284.662C1209.36 279.101 1215.46 265.643 1218.32 260.363C1236.86 271.086 1255.18 280.63 1277.25 275.199C1293.06 271.311 1298.56 257.827 1280.96 250.391C1258.31 240.816 1221.46 239.981 1211.78 212.25C1204.47 191.301 1215.69 170.05 1235.88 161.35Z"/><path fill="#7451BB" d="M1389.33 189.292C1434.24 187.724 1458.11 210.836 1455.92 255.978L1369.59 256.08C1386.77 283.592 1404.09 280.342 1429.58 267.866C1432.86 268.184 1431.95 268.123 1434.75 270.76C1439.48 275.128 1445.37 279.338 1446.92 285.359C1446.19 296.167 1420.05 302.777 1410.87 304.327C1330.39 317.924 1307.02 200.252 1389.33 189.292ZM1401.75 235.878C1406.6 235.987 1419.87 237.001 1423.41 234.765C1423.49 232.11 1422.71 231.167 1421.61 228.867C1415.85 216.882 1404.69 213.149 1391.89 214.209C1384.68 216.961 1372.29 224.533 1371.97 232.888C1375.98 238.488 1394.33 235.748 1401.75 235.878Z"/><path fill="#0A1B4E" d="M1124.8 189.294C1128.59 188.907 1132.39 188.719 1136.2 188.73C1174.36 188.484 1191.12 205.444 1191.09 243.659C1191.08 263.259 1191.08 283.524 1191.02 303.162C1183.73 303.261 1168.74 304.125 1161.17 302.843C1158.66 302.416 1160.77 296.986 1158.15 294.636C1150.1 298.553 1146.45 303.305 1136.38 304.807C1120.81 307.129 1109.87 303.815 1097.48 295.088C1089.95 287.719 1086.63 280.862 1086.47 270.262C1085.85 229.946 1131.22 235.155 1157.74 234.736C1149.9 203.131 1121 216.62 1100.34 225.7C1097.43 217.991 1094.3 210.367 1090.95 202.835C1103.73 193.632 1109 191.963 1124.8 189.294ZM1145.36 279.452C1151.07 275.897 1160.42 265.842 1158.47 258.644C1153.85 253.793 1135.54 255.87 1128.17 256.101C1107.61 267.673 1122.96 286.474 1145.36 279.452Z"/><path fill="#7451BB" d="M1505.45 202.878C1518.88 190.765 1529.74 187.876 1547.13 188.916C1586.41 191.264 1588.8 224.24 1588.32 255.126C1588.09 270.373 1587.69 287.888 1588.21 302.985C1577.2 302.978 1565.15 303.22 1554.24 302.95C1553.92 290.79 1553.75 278.626 1553.73 266.461C1553.86 248.557 1558.56 216.611 1531.84 217.073C1513.12 217.396 1507.78 233.84 1507.75 249.727C1507.72 267.431 1508.01 285.217 1507.74 302.891L1475.71 303.022C1473.29 298.64 1474.12 205.337 1473.79 190.721C1482.01 190.602 1489.26 190.632 1497.47 190.977C1501.81 190.751 1501.62 190.11 1505.01 191.957C1506.33 194.934 1505.67 199.49 1505.45 202.878Z"/><path fill="#4559BF" d="M411.626 222.638C416.651 207.043 430.088 194.791 447.028 194.754C471.563 218.302 498.496 241.374 523.63 264.468L536.29 275.269C538.546 277.141 541.363 279.933 544.111 280.464C543.153 277.86 542.863 277.382 541.062 275.271C546.672 278.911 562.227 290.551 564.907 297.385C565.175 298.067 565.296 300.998 565.8 302.416C567.553 304.65 567.347 307.481 566.922 310.332C564.843 315.498 565.597 324.299 565.71 330.132C562.367 332.448 548.16 341.287 546.766 342.788C501.126 303.362 456.75 262.707 411.626 222.638Z"/><path fill="#D8DAE3" d="M536.29 275.269C538.546 277.141 541.363 279.933 544.111 280.464C543.153 277.86 542.863 277.382 541.062 275.271C546.672 278.911 562.227 290.551 564.907 297.385C565.175 298.067 565.296 300.998 565.8 302.416C566.129 304.633 566.35 304.031 565.508 305.883C559.61 295.851 537.804 282.064 536.29 275.269Z"/><path fill="#0A1B4E" d="M1053.28 190.71L1087.4 190.727C1082.48 200.646 1078.3 212.323 1074.29 222.743C1065.03 247.68 1048.96 279.676 1041.13 303.617C1029.62 303.745 1018.11 303.735 1006.6 303.586C1000.11 286.41 992.608 269.703 985.781 252.664C977.534 232.078 969.969 211.193 961.165 190.837C970.97 190.292 985.434 190.691 995.586 190.668C1005.6 207.34 1014.65 242.259 1025.09 261.415C1032.33 241.154 1048.21 208.865 1053.28 190.71Z"/><path fill="#7451BB" d="M1616.26 164.904C1622.9 164.316 1641.32 164.816 1648.76 164.841L1648.79 193.248L1676.89 193.49C1677.06 201.756 1677.08 210.155 1677.17 218.435C1668.77 218.835 1658.48 218.642 1649.92 218.716C1649.85 231.726 1649.71 244.881 1649.8 257.879C1649.96 279.052 1661.32 281.31 1677.92 272.27C1679.35 280.34 1680.18 283.872 1682.79 291.671C1686.99 310.208 1645.29 304.661 1635.2 299.693C1609.64 287.103 1616.41 243.424 1616.4 218.656L1601.34 218.539C1600.69 210.077 1600.56 201.769 1600.37 193.295L1616.58 193.273C1616.75 184.232 1616.38 174.032 1616.26 164.904Z"/><path fill="#242A7F" d="M379.589 207.969C387.437 207.316 402.502 218.271 405.164 223.976C412.219 228.997 425.536 241.647 430.85 248.652C431.026 254.558 431.058 266.63 430.006 272.323C431.372 275.885 430.915 319.935 429.544 323.283C427.104 327.904 386.926 359.763 381.411 360.081C378.456 355.132 379.286 338.686 379.358 332.098C378.774 318.369 379.131 302.298 379.118 288.394C377.748 267.531 378.944 229.534 379.589 207.969Z"/><path fill="#2C3699" d="M379.589 207.969C387.437 207.316 402.502 218.271 405.164 223.976C412.219 228.997 425.536 241.647 430.85 248.652C423.292 252.708 390.289 254.169 380.566 254.076C380.446 265.282 380.399 276.489 380.426 287.695L379.118 288.394C377.748 267.531 378.944 229.534 379.589 207.969Z"/><path fill="#0A1B4E" d="M379.589 207.969C387.437 207.316 402.502 218.271 405.164 223.976C406.691 225.729 408.258 227.183 408.662 229.474C403.059 234.202 391.89 229.729 384.588 232.24C380.196 233.75 382.648 234.923 380.635 239.48C379.749 231.936 379.772 215.972 379.589 207.969Z"/><path fill="#2C3699" d="M382.597 328.462C395.062 327.746 407.308 324.88 418.797 319.992C422.466 318.417 423.753 316.893 427.813 315.324L429.065 316.855C428.453 319.544 428.881 320.669 429.544 323.283C427.104 327.904 386.926 359.763 381.411 360.081C378.456 355.132 379.286 338.686 379.358 332.098L380.909 332.735L381.738 340.083C382.379 336.464 382.444 332.185 382.597 328.462Z"/><path fill="#0A1B4E" d="M430.85 248.652C431.026 254.558 431.058 266.63 430.006 272.323C428.741 267.115 428.768 261.389 428.593 256.01C413.125 265.751 399.929 272.995 381.622 276.674C381.702 286.247 381.684 295.82 381.566 305.393L382.433 305.171C382.548 306.946 381.443 307.192 381.559 309.832L381.234 307.658C382.625 305.785 381.465 290.056 380.426 287.695C380.399 276.489 380.446 265.282 380.566 254.076C390.289 254.169 423.292 252.708 430.85 248.652Z"/><path fill="#2C3699" d="M552.713 182.958C555.67 180.698 563.602 173.09 565.717 172.26C569.806 176.78 567.134 210.797 566.986 219.236L567.308 246.583C569.452 265.833 565.597 285.049 565.8 302.416C565.296 300.998 565.175 298.067 564.907 297.385C562.227 290.551 546.672 278.911 541.062 275.271C539.62 274.445 529.712 264.166 527.873 262.299C526.736 261.455 522.096 255.753 520.896 254.325C519.932 245.179 520.215 229.113 521.164 219.738C522.628 208.417 538.33 195.025 546.568 188.082C548.442 186.661 550.859 184.516 552.713 182.958Z"/><path fill="#4559BF" d="M552.713 182.958C555.67 180.698 563.602 173.09 565.717 172.26C569.806 176.78 567.134 210.797 566.986 219.236L567.308 246.583C567.357 249.555 567.779 254.837 566.546 257.267C566.035 255.737 565.753 254.519 565.393 252.957C554.289 250.921 540.823 249.719 534.892 239.051C535.419 233.325 536.367 229.263 537.61 223.707C538.109 222.515 538.986 217.174 539.303 215.618C541.439 209.575 545.073 194.456 546.568 188.082C548.442 186.661 550.859 184.516 552.713 182.958Z"/><path fill="#3C87BD" d="M552.713 182.958C555.67 180.698 563.602 173.09 565.717 172.26C569.806 176.78 567.134 210.797 566.986 219.236C566.632 217.548 566.223 213.065 566 211.149C556.819 210.994 547.649 211.003 539.303 215.618C541.439 209.575 545.073 194.456 546.568 188.082C548.442 186.661 550.859 184.516 552.713 182.958Z"/><path fill="#479ECB" d="M552.713 182.958C555.67 180.698 563.602 173.09 565.717 172.26C569.806 176.78 567.134 210.797 566.986 219.236C566.632 217.548 566.223 213.065 566 211.149C561.743 196.853 562.079 194.335 552.713 182.958Z"/><path fill="#0A1B4E" d="M522.653 219.553C526.552 216.914 532.54 219.76 536.588 221.68L537.61 223.707C536.367 229.263 535.419 233.325 534.892 239.051C531.942 242.443 526.253 244.833 522.212 246.456C522.568 239.703 521.754 224.971 522.653 219.553Z"/><path fill="#7451BB" d="M1699.1 190.797L1733.79 190.69C1733.98 227.609 1732.83 264.954 1733.25 301.756C1730.07 304.143 1705.1 303.104 1699.54 303.057C1700.52 270.391 1701.17 223.164 1699.1 190.797Z"/><path fill="#2C3699" d="M359.291 405.89L373.976 405.937L375.082 453.598C382.868 453.864 391.787 453.678 399.666 453.705C399.483 458.398 399.568 463.075 399.615 467.769C405.434 454.483 410.027 441.045 414.934 427.437C416.741 422.424 419.767 410.76 421.925 406.806C426.53 405.409 433.779 405.843 438.774 405.886C442.413 415.619 445.782 425.45 448.878 435.369C452.098 444.79 456.609 455.245 460.389 464.565C440.807 465.465 448.929 464.543 437.353 452.907C435.532 451.077 424.687 451.685 420.968 451.772C419.806 456.121 418.399 460.447 417.048 464.745L359.183 464.876C358.853 446.174 359.33 424.944 359.291 405.89Z"/><path fill="#6539A4" d="M1343.76 405.764C1356.24 406.187 1373.33 403.144 1383.71 410.297C1399.71 421.313 1397.65 441.981 1388.11 456.257C1372 467.752 1363.63 465.025 1343.79 464.823C1343.64 444.963 1344.95 426.144 1343.76 405.764ZM1377.62 449.202C1380.34 445.119 1380.89 441.889 1381.39 437.124C1383.14 420.61 1372.61 416.159 1358.71 416.769C1358.15 433.21 1351.56 463.188 1377.62 449.202Z"/><path fill="#6539A4" d="M379.874 158.647C379.764 158.305 379.669 157.958 379.588 157.607C378.532 152.985 377.794 140.169 383.794 139.076C388.796 140.851 395.987 149.45 399.961 153.623C409.77 161.645 438.955 186.257 447.028 194.754C430.088 194.791 416.651 207.043 411.626 222.638C406.04 217.66 400.488 212.643 394.971 207.587C377.894 191.81 380.761 180.831 379.874 158.647Z"/><path fill="#7451BB" d="M379.874 158.647C379.764 158.305 379.669 157.958 379.588 157.607C378.532 152.985 377.794 140.169 383.794 139.076C388.796 140.851 395.987 149.45 399.961 153.623C390.063 159.894 388.909 159.988 382.634 169.66C382.458 163.974 383.034 162.924 379.874 158.647Z"/><path fill="#6539A4" d="M426.443 90.0331C433.347 90.7713 441.06 89.0452 444.803 89.975C445.795 91.6453 445.477 91.1949 444.963 93.6194C407.601 101.127 374.861 123.42 354.183 155.431C337.929 179.928 329.726 208.887 330.718 238.269C330.453 235.468 330.297 232.379 329.471 229.714L329.714 231.411L328.784 230.284C325.735 231.809 323.084 228.405 320.786 226.521C320.98 219.663 321.534 210.239 320.528 203.69C319.209 188.441 338.94 153.429 347.843 141.371C365.555 117.381 396.526 94.6428 426.443 90.0331Z"/><path fill="#4559BF" d="M520.712 112.726C524.013 143.661 550.874 135.217 574.116 142.284C562.272 145.697 532.34 148.085 524.678 157.073C520.772 161.654 520.507 182.164 514.493 186.092C506.448 184.384 507.667 167.832 504.856 159.859C498.248 153.329 495.232 152.053 486.38 149.052C475.35 147.209 463.238 145.474 452.543 142.479C460.493 140.319 471.87 138.946 480.206 137.83C497.873 134.05 501.883 132.349 505.307 114.924C505.959 116.208 506.706 117.209 507.526 118.384C511.841 118.69 514.637 119.719 518.764 121.014C520.059 119.69 519.522 116.58 520.712 112.726Z"/><path fill="#475FB3" d="M452.543 142.479C460.493 140.319 471.87 138.946 480.206 137.83C476.208 140.702 474.051 140.482 471.528 143.671C476.054 144.37 482.986 145.816 486.38 149.052C475.35 147.209 463.238 145.474 452.543 142.479Z"/><path fill="#2C3699" d="M463.396 405.909C480.678 405.576 493.714 402.889 507.001 414.223C511.381 426.117 512.338 434.387 500.047 441.417C502.526 448.567 509.966 457.553 507.876 463.752C505.376 465.717 500.904 465.057 497.543 464.931C490.819 458.419 491.956 444.331 480.064 444.322C476.454 448.787 477.843 458.702 478.047 464.835L464.018 464.779C464.813 447.245 463.724 423.85 463.396 405.909ZM492.982 431.177C499.436 417.866 489.229 416.627 478.79 417.038C478.499 421.174 477.502 427.682 479.292 431.142C483.236 434.457 488.307 432.792 492.982 431.177Z"/><path fill="#2C3699" d="M1082.89 405.991C1087.23 405.8 1093.97 405.042 1097.36 407.525C1100.18 413.686 1116.23 435.407 1120.88 440.014C1119.15 428.687 1120.34 417.336 1120.14 405.912L1134.01 405.937C1132.97 420.182 1137.76 457.049 1131.13 464.177C1117.61 470.213 1107.06 439.591 1099.23 433.757C1095.11 438.372 1099.94 459.686 1097.39 464.12C1093.59 464.956 1086.76 464.692 1082.64 464.68C1082.72 447.935 1084.57 421.525 1082.89 405.991Z"/><path fill="#6539A4" d="M1543.07 405.998L1556.44 405.899C1555.9 422.713 1558 446.536 1558.01 464.806C1551.51 465.148 1548.57 466.136 1543.55 461.183C1534.83 452.586 1529.51 441.749 1521.99 431.946C1522.14 443.819 1522.13 452.954 1521.33 464.829C1516.46 464.931 1512.07 464.66 1507.23 464.381C1506.54 450.787 1509.46 416.882 1506.19 405.934L1519.95 405.99C1528.21 418.065 1535.28 427.559 1543.29 440.113L1543.07 405.998Z"/><path fill="#2C3699" d="M705.578 464.672C704.116 461.632 703.495 412.066 704.383 406.881C710.204 404.179 715.284 405.012 718.725 410.251C727.005 422.125 732.418 429.824 740.239 442.551L739.998 405.81L755.052 405.773C752.89 417.642 752.538 452.859 754.547 464.839C748.988 464.916 744.535 465.93 740.641 462.502C735.008 457.543 724.232 435.869 719.737 432.924C716.671 434.789 717.825 459.122 717.754 464.574L705.578 464.672Z"/><path fill="#2C3699" d="M1302.76 405.94C1308.5 405.393 1314.51 405.751 1320.29 405.947C1325.94 423.824 1333.99 447.471 1341.13 464.689C1336.16 464.846 1330.53 464.741 1325.51 464.752C1323.73 460.581 1322.23 456.612 1320.66 452.374C1317.61 451.499 1305.56 451.824 1301.66 451.842C1300.65 454.711 1298.84 460.628 1297.09 462.758C1294.43 465.999 1286.92 465.671 1284.11 462.69C1283.59 455.113 1299.3 416.368 1302.76 405.94Z"/><path fill="#6539A4" d="M1625.39 405.995C1630.98 405.858 1636.12 405.534 1641.64 406.558C1644.91 409.281 1661.65 457.439 1664.18 464.771C1659.13 464.892 1653.19 464.706 1648.07 464.661C1646.71 460.806 1644.84 456.418 1643.31 452.567C1642.15 452.038 1635.96 451.539 1634.15 451.183C1623.62 448.734 1626.09 458.433 1619.43 463.122C1615.53 465.868 1610.8 464.926 1606.08 464.723C1611.5 444.373 1620.54 425.022 1625.39 405.995Z"/><path fill="#6539A4" d="M1466.21 405.956L1482.87 405.897C1488.61 418.539 1500.01 451.591 1502.88 464.57C1499.37 464.939 1492.37 464.793 1488.6 464.828C1487.06 460.75 1484.25 455.568 1482.23 451.579C1478.91 451.337 1469.46 451.73 1465.71 451.782C1457.48 464.016 1463.39 465.726 1445.51 464.996C1447.87 456.087 1452.11 445.91 1455.22 437.048C1458.74 427.045 1462.11 415.593 1466.21 405.956Z"/><path fill="#6539A4" d="M1686.17 405.463C1697.15 405.447 1719.6 408.896 1715.14 424.881C1706.63 430.237 1675.16 394.72 1679.14 443.942C1685.7 454.157 1699.18 459.868 1702.75 444.984C1699.92 441.353 1694.64 445.621 1690.75 439.819C1690.83 436.314 1690.22 435.303 1692.1 432.967L1717.18 432.916C1717 441.629 1716.47 446.23 1714.99 454.785C1710.14 459.954 1708.61 461.1 1702.81 464.744C1693.12 465.391 1684.2 466.72 1675.66 460.808C1656.24 447.356 1662.03 409.762 1686.17 405.463Z"/><path fill="#2C3699" d="M996.446 405.185C1006.49 405.044 1027.11 408.196 1025.33 424.884C1025.28 425.298 1023.87 426.035 1023.38 426.345C1012.17 425.63 995.654 404.278 988.599 429.233C985.083 441.666 993.738 460.159 1008.94 451.466C1011.59 449.954 1013.19 448.908 1013.92 445.991C1011.43 442.989 1006.17 443.216 1002.81 439.676C1001.65 436.737 1001.7 436.099 1002.2 432.963L1028.05 432.913C1027.99 439.517 1027.78 444.954 1027.27 451.538C988.696 497.623 946.737 422.446 996.446 405.185Z"/><path fill="#2C3699" d="M1034.04 406.055L1076.7 406.084L1076.98 417.032L1048.57 417.073L1048.44 429.303L1074.57 429.284L1074.32 440.69L1051.82 440.674L1050.66 441.097C1049.2 443.666 1049.79 450.105 1049.86 453.396L1076.76 453.372L1076.97 464.977L1034.8 464.84C1033.47 450.843 1034.12 421.396 1034.04 406.055Z"/><path fill="#2C3699" d="M1200.34 405.94L1239.6 405.86L1239.53 416.907L1215.19 416.835C1214.9 420.631 1214.23 425.275 1213.78 429.131L1237.65 429.135L1237.62 440.825L1215.44 440.779L1215.32 453.685C1223.51 453.719 1232.76 453.256 1241.03 453.033C1242.01 457.815 1241.93 459.88 1241.85 464.794C1230.02 464.95 1218.14 465.228 1206.32 464.929C1201.67 464.811 1200.02 464.832 1199.84 460.213C1198.53 454.54 1200.07 413.853 1200.34 405.94Z"/><path fill="#6539A4" d="M1723.79 406.073L1764.62 405.994L1764.92 416.965L1738.96 417.062L1738.99 429.621C1747.23 429.66 1761.74 426.498 1764.42 435.022C1762.33 444.396 1746.8 441.111 1738.49 440.957L1739 453.487L1765.51 453.412L1765.65 464.821C1752.59 464.54 1738.72 464.777 1725.6 464.785C1725.2 443.687 1723.54 428.894 1723.79 406.073Z"/><path fill="#2C3699" d="M813.254 405.811L854.542 405.848L854.577 416.941L828.004 416.99L828.152 429.246L853.179 429.141C853.211 432.448 853.531 435.211 852.027 438.155C847.463 442.275 835.614 440.391 827.92 440.496L827.928 453.718L855.405 453.568L856.256 464.905L813.551 464.933C813.809 450.437 815.005 418.729 813.254 405.811Z"/><path fill="#2C3699" d="M1161.33 405.072C1170.93 404.51 1182.1 405.543 1188.49 413.683C1191.33 417.299 1194.12 421.604 1193.67 426.385C1191.4 427.454 1183.32 427.106 1180.34 427.105C1171.58 412.126 1162.98 414.44 1154.75 428.298C1154.74 432.148 1154.62 437.019 1155.7 440.664C1159.8 454.448 1170.57 460.633 1178.63 445.459L1179.59 444.095C1180.62 443.846 1181.66 443.631 1182.71 443.45C1185.75 442.941 1188.54 442.882 1191.11 444.714C1195.91 453.33 1185.4 460.209 1179.07 464.69C1172.16 465.493 1163.42 466.467 1157.12 463.329C1131.51 450.565 1135.73 415.143 1161.33 405.072Z"/><path fill="#2C3699" d="M321.512 405.09C339.566 403.536 350.182 409.355 355.133 426.813C330.007 428.575 338.932 417.232 327.953 415.742C322.32 416.402 318.384 421.942 315.027 426.156C312.818 444.982 324.016 466.624 340.143 445.796L342.014 444.403C346.463 443.973 349.656 443.166 353.036 445.917C353.939 453.41 343.496 462.684 337.383 464.422C298.78 475.395 284.901 420.798 321.512 405.09Z"/><path fill="#6539A4" d="M1435.59 405.868L1452.17 405.875L1446 422.609C1443.08 432.862 1432.59 458.047 1432.09 464.911L1414.43 464.847C1408.06 442.09 1401.53 427.537 1394.55 406.03C1399.35 405.806 1405.33 405.893 1410.23 405.84C1411.65 413.374 1421.14 438.887 1424.02 446.929C1428.8 435.366 1433.49 418.059 1435.59 405.868Z"/><path fill="#4559BF" d="M609.985 213.611C610.694 209.162 609.45 205.431 611.11 201.973C614.196 201.042 614.305 201.783 617.793 203.168C626.766 238.633 624.167 273.738 604.987 305.751C604.658 306.297 604.316 306.836 603.961 307.366C596.984 308.091 591.677 313.083 586.399 307.921C605.502 278.572 613.954 248.58 609.985 213.611Z"/><path fill="#2C3699" d="M625.504 405.986L640.309 406.071C636.29 416.572 629.827 429.213 622.262 437.59C619.972 442.128 620.739 458.441 620.544 464.906C616.068 465.014 610.987 464.855 606.456 464.821C606.67 450.605 607.854 446.306 601.43 433.835C597.203 428.016 593.965 421.227 590.663 414.812C589.768 412.947 586.607 408.121 585.383 406.136C589.434 406.015 600.281 405.074 602.7 407.699C605.214 412.087 609.322 421.52 611.236 426.399L612.206 427.388L613.5 428.171C616.423 424.379 623.291 410.738 625.504 405.986Z"/><path fill="#4559BF" d="M422.361 359.95C431.149 361.032 441.859 363.578 451.053 364.928C475.312 368.599 500.108 365.986 523.069 357.339C531.201 354.245 539.398 348.117 546.785 345.433C552.889 346.554 555.173 349.057 559.122 353.749C519.905 377.599 462.327 387.011 422.361 359.95Z"/><path fill="#7451BB" d="M1713.28 137.146C1738.03 135.52 1748.57 165.74 1721.73 175.15C1709.98 176.213 1705.89 174.62 1697.97 166.11C1695.35 157.375 1695.19 155.971 1697.84 147.275C1703.4 141.591 1705.7 139.441 1713.28 137.146Z"/><path fill="#2C3699" d="M759.317 405.99C773.485 405.164 793.191 405.743 807.769 405.737L808.654 416.894L790.819 416.944L791.116 448.296L790.906 464.832L777.349 464.87C776.321 448.602 776.402 433.238 776.362 416.969L760.034 416.999L759.317 405.99Z"/><path fill="#2C3699" d="M535.852 406.03C547.894 405.877 570.203 405.021 581.365 406.224C583.923 408.973 584.093 412.194 583.556 415.802C581.262 417.655 571.51 416.944 567.864 416.875L566.907 464.944L552.784 464.906C552.597 449.133 552.081 433.685 553.3 417.959L553.317 417.758C549.464 416.571 540.217 417.003 535.783 417.031L535.852 406.03Z"/><path fill="#6539A4" d="M1560.27 405.769L1610.03 405.771C1610.32 410.914 1611.26 411.657 1609.32 415.841C1605.91 418.303 1597.49 417.286 1592.7 417.192L1592.97 450.25C1593.02 454.93 1592.67 460.017 1592.44 464.722L1579.41 464.807C1580.2 451.835 1578.86 432.163 1579.25 417.299L1561.62 417.216L1560.27 405.769Z"/><path fill="#2C3699" d="M865.163 405.902C869.418 405.422 871.084 405.322 875.344 405.617L876.453 454.827C881.082 453.491 897.988 452.228 901.487 456.004C901.7 458.835 902.263 461.717 900.849 464.113C894.566 466.044 869.92 464.952 862.231 464.811C862.13 454.721 861.247 414.093 862.758 406.802L865.163 405.902Z"/><path fill="#2C3699" d="M915.565 405.313C917.939 405.427 918.22 405.538 920.305 406.69C920.535 422.388 920.9 438.084 921.4 453.776C928.464 454.123 943.67 451.151 947.575 457.258C947.376 460.891 947.973 462.258 946.042 464.598L942.25 464.877L906.924 464.81C906.879 452.128 906.004 417.853 907.449 406.989C909.426 405.233 912.793 405.46 915.565 405.313Z"/><path fill="#2C3699" fill-opacity="0.98823529" d="M320.528 203.69C321.534 210.239 320.98 219.663 320.786 226.521C323.084 228.405 325.735 231.809 328.784 230.284L329.714 231.411L329.471 229.714C330.297 232.379 330.453 235.468 330.718 238.269C332.122 263.56 337.133 291.053 352.265 312.309C357.443 319.583 367.079 330.975 370.066 338.839C363.788 334.031 358.495 328.903 353.358 322.907C321.445 285.651 317.307 250.646 320.528 203.69Z"/><path fill="#7451BB" d="M586.399 307.921C591.677 313.083 596.984 308.091 603.961 307.366C593.774 324.446 575.465 342.515 559.122 353.749C555.173 349.057 552.889 346.554 546.785 345.433L546.766 342.788C548.16 341.287 562.367 332.448 565.71 330.132C565.597 324.299 564.843 315.498 566.922 310.332C567.363 315.318 567.049 323.27 566.982 328.538C574.159 322.188 579.578 314.319 586.399 307.921Z"/><path fill="#2C3699" d="M516.047 406.029L530.36 405.989C530.191 413.411 529.691 423.448 530.134 430.655C529.513 435.803 529.884 458.498 529.878 464.836L514.996 464.836C516.617 453.426 516.02 419.147 516.047 406.029Z"/><path fill="#2C3699" d="M953.495 406.092C956.802 405.83 962.773 405.225 965.348 407.178C968.559 416.206 967.484 453.136 967.369 464.668C962.491 465.026 957.355 464.713 952.45 464.523C953.841 446.897 953.417 424.12 953.495 406.092Z"/><path fill="#2C3699" d="M682.004 406.113C685.708 405.824 692.12 405.992 696.032 405.965C695.448 424.671 696.671 447.095 695.649 464.725L681.502 464.625C681.128 445.55 682.218 425.659 682.004 406.113Z"/><path fill="#475FB3" d="M505.307 114.924C506.344 102.609 507.702 77.3986 510.866 66.2908L513.276 65.0788L515.215 65.9517C519.746 72.1589 520.331 103.377 520.712 112.726C519.522 116.58 520.059 119.69 518.764 121.014C514.637 119.719 511.841 118.69 507.526 118.384C506.706 117.209 505.959 116.208 505.307 114.924Z"/><path fill="#475FB3" fill-opacity="0.94901961" d="M609.985 213.611C607.351 206.12 606.532 194.71 602.948 185.774C598.448 174.555 588.601 159.922 585.765 149.094C597.357 159.938 613.578 188.368 617.793 203.168C614.305 201.783 614.196 201.042 611.11 201.973C609.45 205.431 610.694 209.162 609.985 213.611Z"/><path fill="#7451BB" d="M426.443 90.0331C445.974 84.8313 473.46 83.0656 492.311 91.671C473.433 92.1487 464.536 90.4058 444.963 93.6194C445.477 91.1949 445.795 91.6453 444.803 89.975C441.06 89.0452 433.347 90.7713 426.443 90.0331Z"/><path fill="#6539A4" d="M1775.51 450.719C1781.57 450.99 1786.39 452.092 1788.18 458.41C1787.78 461.703 1787 462.361 1784.76 464.648C1772.79 466.577 1765.82 458.641 1775.51 450.719Z"/><path fill="#2C3699" d="M1249.79 451.309C1261.02 450.61 1267.19 454.277 1260.64 465.613C1254.32 465.618 1249.77 465.974 1247.24 459.347C1247.54 455.534 1247.51 454.408 1249.79 451.309Z"/><path fill="#2C3699" d="M646.177 451.097C651.786 451 653.172 450.487 656.436 455.239C657.124 458.846 655.575 461.667 654.179 465.066C647.885 465.291 643.914 465.97 642.177 458.77C643.033 454.778 643.226 453.903 646.177 451.097Z"/><path fill="#D8DAE3" fill-opacity="0.027450981" d="M530.36 405.989L535.852 406.03L535.783 417.031C540.217 417.003 549.464 416.571 553.317 417.758C547.385 418.744 537.763 418.505 531.578 418.18C531.498 422.156 531.73 427.116 530.134 430.655C529.691 423.448 530.191 413.411 530.36 405.989Z"/><path fill="#D8DAE3" fill-opacity="0.070588239" d="M527.873 262.299C529.712 264.166 539.62 274.445 541.062 275.271C542.863 277.382 543.153 277.86 544.111 280.464C541.363 279.933 538.546 277.141 536.29 275.269L523.63 264.468L527.873 262.299Z"/></svg>