<?xml version="1.0" encoding="utf-8" ?><svg xmlns="http://www.w3.org/2000/svg" xmlns:xlink="http://www.w3.org/1999/xlink" width="2064" height="512" viewBox="0 0 2064 512"><path fill="#040D2F" d="M0 0L2064 0L2064 512L0 512L0 0Z"/><path fill="#323ECF" d="M225.157 202.815C268.35 240.367 312.557 280.929 356.013 317.545C360.694 321.633 366.407 326.922 371.156 330.729C371.084 329.892 371.37 328.267 371.495 327.369C374.414 325.664 375.152 326.368 378.976 326.658L387.748 333.838L407.023 350.567L413.894 356.599C410.04 359.04 407.741 359.083 403.076 358.503C424.845 376.089 412.081 382.884 416.965 405.172C417.124 399.962 416.919 394.06 423.393 393.304C425.78 395.033 426.017 395.638 427.087 398.401C431.574 393.253 435.758 387.848 439.619 382.215C473.287 333.504 480.661 280.739 470.08 223.134C474.579 221.009 477.304 219.246 481.422 216.583C495.107 277.703 493.821 334.025 459.101 388.771C431.855 432.264 388.231 462.941 338.086 473.869C295.105 483.405 237.546 478.361 199.188 456.365C206.747 458.376 214.244 460.083 221.818 461.988C279.556 476.509 346.423 467.1 394.3 428.957L258.45 310.893C240.993 295.697 208.791 269.43 193.302 253.888C203.169 236.822 215.653 219.803 225.157 202.815Z"/><path fill="#040D2F" d="M371.156 330.729C371.084 329.892 371.37 328.267 371.495 327.369C374.414 325.664 375.152 326.368 378.976 326.658L387.748 333.838L407.023 350.567L413.894 356.599C410.04 359.04 407.741 359.083 403.076 358.503L396.003 352.511C390.267 347.408 384.476 342.367 378.633 337.388L371.156 330.729Z"/><path fill="#020925" d="M371.156 330.729C371.084 329.892 371.37 328.267 371.495 327.369C374.414 325.664 375.152 326.368 378.976 326.658L387.748 333.838C385.609 338.952 383.925 337.918 378.633 337.388L371.156 330.729Z"/><path fill="#020925" d="M396.003 352.511L397.971 349.356C401.693 348.177 402.529 349.266 407.023 350.567L413.894 356.599C410.04 359.04 407.741 359.083 403.076 358.503L396.003 352.511Z"/><path fill="#020925" d="M416.965 405.172C417.124 399.962 416.919 394.06 423.393 393.304C425.78 395.033 426.017 395.638 427.087 398.401C424.665 401.145 420.89 405.889 417.883 407.534L416.917 406.931L416.965 405.172Z"/><path fill="#FEFEFE" d="M623.494 163.216L657.75 163.379C664.646 169.691 670.813 177.933 676.781 185.174C699.486 212.726 721.359 241.077 744.031 268.639C746.766 268.74 751.558 268.1 754.457 267.791C754.183 259.678 753.659 165.911 754.354 164.573L755.519 165.719L756.808 163.786C764.533 162.637 789.215 163.239 798.254 163.273L798.234 356.575L761.845 356.637C742.178 331.84 722.346 307.175 702.351 282.642C698.254 277.568 679.934 254.215 676.717 251.435C672.152 250.483 670.395 250.666 665.846 252.054L665.824 356.55L623.378 356.66L623.289 227.369C623.285 210.989 622.352 178.245 623.494 163.216Z"/><path fill="#020925" d="M754.457 267.791C754.183 259.678 753.659 165.911 754.354 164.573L755.519 165.719C756.506 202.97 756.079 245.377 755.69 282.834C752.082 278.558 747.179 273.05 744.031 268.639C746.766 268.74 751.558 268.1 754.457 267.791Z"/><path fill="#020925" d="M665.884 237.67C669.909 242.423 673.038 246.409 676.717 251.435C672.152 250.483 670.395 250.666 665.846 252.054L665.884 237.67Z"/><path fill="#FEFEFE" d="M897.128 203.648C940.353 196.734 980.98 226.227 987.795 269.468C994.611 312.709 965.026 353.268 921.77 359.986C878.652 366.682 838.251 337.212 831.457 294.11C824.663 251.008 854.041 210.54 897.128 203.648Z"/><path fill="#040D2F" d="M904.57 239.321C954.001 234.535 965.798 310.211 916.673 323.264C865.199 330.437 852.005 252.309 904.57 239.321Z"/><path fill="#323ECF" d="M1395.58 161.337C1410.45 158.069 1463.44 164.903 1471.63 178.393C1472.85 183.678 1463.09 205.523 1460.6 211.72C1441.31 201.998 1425.6 194.951 1403.35 196.008C1389.53 196.664 1371.48 202.477 1371.84 219.444C1372.18 235.329 1396.03 240.035 1408.32 243.219C1428.33 248.402 1451.07 252.14 1466.82 266.943C1475.86 275.348 1481.11 287.06 1481.36 299.402C1482.39 345.547 1439.63 359.177 1401.8 359.932C1400.94 359.924 1400.07 359.91 1399.2 359.889C1377.43 359.365 1341.46 352.134 1325.83 335.727C1330.55 325.289 1335.21 314.532 1340.68 304.491C1347.64 308.732 1355.7 313.311 1363.23 316.505C1383.29 325.019 1419.73 331 1436.35 313.684C1441.46 304.821 1437.99 295.303 1429.24 290.568C1425.34 288.31 1421.11 286.553 1416.78 285.205C1386.45 275.777 1332.88 270.417 1329.43 229.252C1325.86 186.524 1356.63 165.582 1395.58 161.337Z"/><path fill="#323ECF" d="M1563.74 205.357C1621.81 201.179 1649.6 240.384 1647.28 295.13C1609.96 295.597 1572.79 294.968 1535.44 295.453C1537.05 300.336 1538.01 303.363 1540.89 307.668C1553.03 325.829 1578.42 327.734 1597.32 320.689C1604.13 318.154 1608.99 314.481 1614.86 310.341L1621.1 316.628C1626.52 322.279 1632.01 327.856 1637.59 333.357C1607.75 364.635 1553.91 368.145 1520.57 341.183C1505.6 329.059 1496.11 311.443 1494.22 292.272C1489.65 247.714 1518.74 209.934 1563.74 205.357Z"/><path fill="#040D2F" d="M1566.12 238.289C1577.89 237.574 1587.33 239.15 1596.51 247.122C1601.83 251.748 1611.23 262.461 1604.77 269.145C1600.32 270.878 1582.76 270.068 1576.75 269.976C1565.18 269.916 1550.44 270.876 1538.82 269.752C1537.28 269.602 1535.95 267.295 1535.24 265.945C1533.74 253.971 1555.47 240.812 1566.12 238.289Z"/><path fill="#FEFEFE" d="M1221.36 205.369C1252.66 200.158 1291.8 213.473 1298.93 247.584C1302.65 265.415 1301.81 282.191 1301.76 300.222L1301.58 356.52C1289 356.779 1275.77 356.595 1263.13 356.615L1262.56 340.668C1239.35 364.908 1199.15 365.486 1174.56 343.279C1171.7 340.069 1168.87 335.81 1167.15 331.872C1162.53 321.357 1162.34 309.422 1166.62 298.763C1177.45 271.758 1210.49 268.716 1235.55 269.209C1242.18 269.34 1252.49 270.914 1258.45 268.284C1259.2 267.954 1259.49 267.374 1259.74 266.61C1260.88 263.142 1258.44 256.289 1256.91 253.193C1240.26 219.394 1191.8 251.917 1184.08 249.098C1179.94 247.589 1172.25 227.396 1170.29 223.226C1185.01 212.434 1203.42 207.19 1221.36 205.369Z"/><path fill="#040D2F" d="M1228.74 294.402C1237.93 294.017 1250.54 294.381 1259.97 294.402C1260.47 314.814 1256.73 323.682 1236.06 329.462C1197.04 333.97 1192.38 297.528 1228.74 294.402Z"/><path fill="#17197B" d="M142.91 222.61C166.022 244.322 193.08 265.65 217.059 286.889C217.197 319.048 218.347 359.502 216.554 390.972C210.028 398.064 197.245 407.913 189.276 414.415L143.34 451.601C143.097 447.1 142.179 429.938 143.04 425.759C120.187 414.525 92.4486 386.287 79.4759 364.513C61.5399 334.409 52.2634 297.619 52.8147 262.619C52.9153 256.231 52.4094 247.767 53.9047 241.682C53.8995 252.99 56.6956 257.39 69.2607 255.815C70.6845 254.169 70.7389 253.214 71.1908 251.067C67.0434 317.776 88.0614 362.245 131.699 412.466C133.565 414.613 140.413 422.568 142.979 423.005C142.611 409.1 142.691 394.81 142.836 380.879C143.384 328.16 142.384 275.307 142.91 222.61Z"/><path fill="#6E20C4" d="M1753.29 205.363C1770.28 202.61 1791.34 208.002 1803.05 220.741C1823.96 243.486 1821.53 279.203 1821.59 307.859C1821.72 324.062 1821.63 340.266 1821.32 356.467L1779.19 356.543C1779.32 332.742 1783.29 273.331 1772.99 255.056C1769.48 248.811 1764.07 243.707 1757.03 241.83C1747.54 239.298 1737.09 242.317 1728.86 247.128C1711.35 259.837 1713.96 280.699 1713.61 299.766C1713.27 318.5 1714.47 337.722 1713.35 356.374C1701.22 356.903 1684.42 356.59 1672.12 356.336C1670.87 343.679 1672.02 330.692 1671.62 318.157C1670.51 283.582 1673.75 240.863 1670.96 207.206C1684.2 207.061 1697.86 207.288 1711.14 207.341C1711.2 213.221 1711.74 220.189 1712.07 226.143C1723.59 213.506 1736.57 207.426 1753.29 205.363Z"/><path fill="#FEFEFE" d="M1119.81 207.21L1160.15 207.345C1155.93 218.108 1150.91 229.522 1146.43 240.25C1130.83 277.306 1114.26 320.442 1097.62 356.368C1084.15 356.967 1068.52 356.619 1054.89 356.611C1034.27 307.196 1013.05 257.006 993.087 207.395L1035.8 207.265C1049.42 241.474 1063.38 275.544 1077.7 309.468C1091.41 275.743 1105.44 240.575 1119.81 207.21Z"/><path fill="#6E20C4" d="M1861.15 172.072C1869.03 171.953 1895.45 170.283 1900 173.352C1907.64 184.393 1892.63 210.416 1911.27 210.139C1920.68 210 1930.33 209.67 1939.75 209.22C1939.78 220.099 1939.94 231.119 1939.33 241.972C1931.49 242.097 1909.3 240.852 1903.71 244.122C1903.35 245.106 1903.07 246.115 1902.85 247.142C1900.1 260.244 1902.03 282.341 1901.84 296.28C1901.53 320.106 1915.42 333.964 1937.92 319.092C1940.4 326.581 1943.25 334.32 1945.87 341.795C1953.01 358.01 1922.73 359.281 1912.78 359.064C1860.41 357.921 1859.79 320.987 1859.88 281.307L1860.03 242.336L1837.34 242.22C1836.69 233.777 1837.08 218.443 1837.06 209.476C1877.9 211.45 1852.47 197.462 1861.15 172.072Z"/><path fill="#17197B" d="M389.613 200.864C396.343 194.79 408.999 182.724 415.722 177.612C415.307 204.911 415.155 232.214 415.265 259.517C415.299 268.022 416.531 354.77 414.855 356.676L413.894 356.599L407.023 350.567L387.748 333.838L378.976 326.658C375.152 326.368 374.414 325.664 371.495 327.369C371.37 328.267 371.084 329.892 371.156 330.729C366.407 326.922 360.694 321.633 356.013 317.545C360.296 317.076 360.674 316.809 363.128 313.621C360.122 310.473 351.342 303.316 347.685 300.164C347.716 279.308 347.916 258.452 348.285 237.6C361.889 226.605 375.738 211.279 389.613 200.864Z"/><path fill="#323ECF" d="M371.548 259.129C384.96 259.228 402.314 259.986 415.265 259.517C415.299 268.022 416.531 354.77 414.855 356.676L413.894 356.599L407.023 350.567L387.748 333.838C385.947 327.921 381.412 318.266 378.953 311.085C372.342 290.665 370.79 280.462 371.548 259.129Z"/><path fill="#1973CC" d="M389.613 200.864C396.343 194.79 408.999 182.724 415.722 177.612C415.307 204.911 415.155 232.214 415.265 259.517C402.314 259.986 384.96 259.228 371.548 259.129C375.301 236.524 381.347 221.992 389.613 200.864Z"/><path fill="#040D2F" d="M363.128 313.621C365.813 315.966 370.047 319.885 372.884 321.718C375.21 324.145 376.23 324.81 378.976 326.658C375.152 326.368 374.414 325.664 371.495 327.369C371.37 328.267 371.084 329.892 371.156 330.729C366.407 326.922 360.694 321.633 356.013 317.545C360.296 317.076 360.674 316.809 363.128 313.621Z"/><path fill="#323ECF" d="M336.499 19.611C343.548 27.8852 341.337 105.752 356.525 122.862C372.751 141.142 416.589 133.226 425.391 142.946C422.385 145.875 377.534 149.758 366.627 155.724C334.658 173.213 349.221 225.3 338.723 253.208C337.128 251.644 337.333 250.263 336.861 247.756C333.729 224.848 333.316 186.592 322.343 167.811C311.392 149.067 256.18 147.428 234.892 143.21C260.099 137.395 293.51 139.923 315.296 126.025C328.616 117.528 329.025 87.2 330.572 72.2052C332.248 54.6413 334.224 37.1073 336.499 19.611Z"/><path fill="#6E20C4" d="M1968.32 207.124C1981.81 206.766 1995.92 206.95 2009.46 206.948C2009.24 209.525 2008.8 212.51 2008.82 215.07C2009.28 260.9 2009.06 306.835 2008.82 352.658C2008.8 354.949 2008.61 354.996 2007.08 356.425L1967.27 356.529C1967.26 338.7 1965.52 214.604 1968.32 207.124Z"/><path fill="#6E20C4" d="M53.9047 241.682C60.9149 184.918 80.8033 139.219 126.975 103.184C167.7 71.7437 219.104 57.4716 270.208 63.4158C282.925 64.9924 298.256 68.3724 310.242 73.1144C248.016 66.9885 186.303 79.8071 137.122 120.038C98.4617 151.663 76.109 198.664 71.2229 247.976C71.1108 249.108 71.1155 249.934 71.1908 251.067C70.7389 253.214 70.6845 254.169 69.2607 255.815C56.6956 257.39 53.8995 252.99 53.9047 241.682Z"/><path fill="#6E20C4" d="M142.589 131.625C169.493 153.667 198.819 179.804 225.157 202.815C215.653 219.803 203.169 236.822 193.302 253.888C176.291 239.342 159.421 224.633 142.693 209.762L142.589 131.625Z"/><path fill="#6E20C4" d="M1980.26 140.244C1992.88 135.571 2006.9 141.954 2011.67 154.538C2016.43 167.123 2010.15 181.195 1997.6 186.053C1984.92 190.961 1970.67 184.601 1965.86 171.885C1961.04 159.17 1967.51 144.965 1980.26 140.244Z"/><path fill="#1973CC" d="M445.926 148.708C450.584 154.124 454.781 159.92 458.474 166.035C469.983 183.847 474.59 196.672 481.422 216.583C477.304 219.246 474.579 221.009 470.08 223.134C466.428 203.438 460.34 186.491 453.143 167.972C451.113 164.169 447.537 153.274 445.926 148.708Z"/></svg>