<?xml version="1.0" encoding="utf-8" ?><svg xmlns="http://www.w3.org/2000/svg" xmlns:xlink="http://www.w3.org/1999/xlink" width="800" height="200" viewBox="0 0 800 200"><path fill="#11192D" transform="scale(0.387597 0.390625)" d="M0 0L2064 0L2064 512L0 512L0 0Z"/><path fill="#323ECF" transform="scale(0.387597 0.390625)" d="M223.34 202.757L376.64 336.9C381.204 336.854 382.868 337.451 385.133 333.276L386.103 333.193C389.181 337.271 395.71 341.964 399.89 345.252C395.444 345.439 394.744 344.717 391.711 346.899L391.231 349.135C397.722 354.857 407.643 362.339 412.265 369.295C418.733 379.03 412.85 398.062 415.872 407.673L417.316 408.173C417.87 407.625 419.927 405.666 420.316 405.161L425.109 400.554C430.97 393.27 436.618 385.816 442.045 378.202C473.774 333.123 478.662 275.947 469.413 223.029C472.856 221.282 478.121 218.958 480.672 216.285C495.512 273.196 492.654 330.788 462.395 382.451C436.367 427.156 393.607 459.655 343.566 472.766C299.824 484.111 257.711 480.305 215.452 464.916L218.577 461.662C224.225 463.537 235.102 465.442 241.102 466.357C295.893 474.71 348.6 462.495 393.324 429.346C327.336 370.671 257.974 312.071 191.063 253.912C194.258 246.696 218.168 209.446 223.34 202.757Z"/><path fill="#131D37" transform="scale(0.387597 0.390625)" d="M386.103 333.193C389.181 337.271 395.71 341.964 399.89 345.252C395.444 345.439 394.744 344.717 391.711 346.899L391.231 349.135C389.102 347.74 379.177 339.033 376.64 336.9C381.204 336.854 382.868 337.451 385.133 333.276L386.103 333.193Z"/><path fill="#FEFEFE" transform="scale(0.387597 0.390625)" d="M756.509 162.821L799.297 162.783L799.299 300.807C799.299 308.481 799.81 351.354 798.741 356.75L762.767 356.709C731.357 316.688 698.294 276.436 666.188 236.898C665.779 276.485 666.161 316.96 666.163 356.608C652.148 356.853 637.777 356.731 623.731 356.768L623.593 232.18C623.573 212.919 622.478 180.54 624.068 162.908L658.289 162.947C664.358 167.991 682.63 191.143 688.425 198.268L756.444 282.597C757.527 244.567 756.639 201.043 756.509 162.821Z"/><path fill="#FEFEFE" transform="scale(0.387597 0.390625)" d="M909.919 202.323C953.44 201.45 989.537 235.806 990.814 279.316C992.091 322.827 958.072 359.241 914.575 360.922C870.503 362.626 833.501 328.058 832.207 283.972C830.913 239.886 865.823 203.207 909.919 202.323Z"/><path fill="#11192D" transform="scale(0.387597 0.390625)" d="M905.629 239.073C958.326 234.476 966.957 311.899 918.851 323.089C869.969 331.851 851.262 254.934 905.629 239.073Z"/><path fill="#1B60EE" transform="scale(0.387597 0.390625)" d="M1385.43 160.423C1413.27 159.504 1435.83 163.324 1460.05 177.575C1458.4 184.26 1450.74 204.442 1446.75 209.433C1443.55 210.341 1423.98 199.9 1418.48 198.495C1411.93 196.322 1403.88 196.345 1397.29 195.773C1383.39 194.566 1355.89 199.075 1356.76 217.7C1357.94 243.149 1409.03 243.332 1427.23 251.875C1437.92 256.889 1446.75 258.479 1455.22 267.785C1475.26 288.18 1471.51 321.089 1451.3 340.112C1432.69 357.634 1406.02 360.031 1381.75 359.74C1357.27 358.109 1329.2 352.594 1310.07 336.13C1314 327.309 1318.81 315.225 1324.27 307.368C1325.89 305.023 1331.33 308.231 1333.95 309.583C1354.71 320.663 1374.72 325.808 1398.2 324.421C1409.71 323.742 1426.95 316.772 1425.04 303.456C1422.07 282.739 1378.1 280.412 1362.19 274.141C1350.56 269.559 1340.68 267.584 1330.99 259.22C1308.65 241.693 1308.92 206.5 1326.45 185.484C1341.3 167.67 1363.14 162.609 1385.43 160.423Z"/><defs><linearGradient id="gradient_0" gradientUnits="userSpaceOnUse" x1="1633.9618" y1="293.29199" x2="1485.3773" y2="268.77386"><stop offset="0" stop-color="#7455EE"/><stop offset="1" stop-color="#275BEF"/></linearGradient></defs><path fill="url(#gradient_0)" transform="scale(0.387597 0.390625)" d="M1548.79 205.356C1588.02 200.453 1624.75 219.233 1634.55 259.548C1636.31 266.805 1639.56 287.479 1636.57 293.902C1632.68 296.149 1538.22 295.186 1523.68 295.279C1533.33 324.665 1561.94 330.166 1588.65 320.861C1593.34 319.228 1599.62 312.421 1604.53 311.085C1605.53 310.814 1607.33 312.888 1608.14 313.63C1614.71 320.209 1621.2 326.87 1627.6 333.614C1584.8 379.626 1494.1 363.533 1483.14 295.531C1479.74 274.499 1484.75 252.974 1497.07 235.597C1509.34 218.649 1528.38 208.641 1548.79 205.356Z"/><path fill="#11192D" transform="scale(0.387597 0.390625)" d="M1555.03 238.193C1565.33 237.564 1574.58 238.655 1582.95 244.972C1589.53 249.941 1602.16 260.192 1595.95 268.832C1592.66 271 1572.71 270.019 1567.33 269.946C1556.18 269.781 1544.98 270.354 1533.83 270.257C1528.48 270.211 1525.39 270.777 1522.94 265.649C1523.02 253.322 1543.46 240.556 1555.03 238.193Z"/><path fill="#FEFEFE" transform="scale(0.387597 0.390625)" d="M1224.64 205.28C1255.03 201.538 1296.93 211.509 1302.53 247.199C1307.88 281.244 1305.44 321.785 1305.35 356.733L1266.55 356.755C1266.18 351.72 1266.12 346.053 1265.95 340.959C1265.69 341.252 1265.42 341.542 1265.16 341.829C1243 365.628 1200.56 364.503 1177.22 342.731C1170.73 334.91 1166.82 325.442 1166.61 315.218C1166.32 304.534 1170.3 294.175 1177.65 286.424C1197.99 265.382 1236.6 269.197 1263.95 268.791C1259.71 221.837 1215.45 238.362 1187.94 251.442C1183.7 245.848 1176.84 229.702 1173.56 222.543C1191.38 211.838 1204.17 207.784 1224.64 205.28Z"/><path fill="#11192D" transform="scale(0.387597 0.390625)" d="M1229.72 294.192C1240.86 293.98 1252.63 294.162 1263.82 294.153C1263.79 312.155 1261.25 322.884 1242.6 328.647C1242.1 328.775 1241.6 328.89 1241.1 328.994C1204.06 336.66 1193.16 299.745 1229.72 294.192Z"/><path fill="#16197B" transform="scale(0.387597 0.390625)" d="M140.168 222.929C162.566 242.461 187.471 262.599 209.201 282.243C210.903 283.453 214.594 285.789 214.664 287.688C215.182 301.624 216.383 384.947 213.129 392.599C191.85 410.612 162.259 436.429 140.124 452.345C140.066 448.479 140.116 428.401 139.458 426.028C105.728 407.768 74.5773 369.703 61.8369 333.999C53.1137 309.554 49.4414 284.649 49.9406 258.724C50.0222 254.486 49.15 246.695 50.785 243.042C51.1765 253.356 55.0587 257.618 65.9771 255.395C67.4741 253.67 67.5402 253.025 68.0762 250.774C67.9509 255.339 66.8407 259.198 66.7439 263.568C65.4192 323.397 93.3831 375.228 133.707 417.548C135.184 419.099 138.06 422.469 139.986 423.045C139.555 356.341 139.616 289.633 140.168 222.929Z"/><defs><linearGradient id="gradient_1" gradientUnits="userSpaceOnUse" x1="1657.7749" y1="272.59076" x2="1818.8654" y2="294.10364"><stop offset="0" stop-color="#7354EF"/><stop offset="1" stop-color="#A452FD"/></linearGradient></defs><path fill="url(#gradient_1)" transform="scale(0.387597 0.390625)" d="M1743.01 205.227C1774.28 201.985 1801.5 211.673 1811.42 244.641C1817.15 263.672 1815.97 286.168 1815.87 306.027L1815.56 356.55L1773.57 356.749C1773.61 335.077 1776.79 277.201 1769.26 259.315C1766.26 252.184 1761.21 245.815 1753.87 242.873C1744.03 238.926 1732.89 241.615 1723.55 245.661C1707.75 256.858 1705.8 272.48 1705.84 290.486C1705.88 312.486 1705.95 334.494 1705.94 356.494C1692.3 356.864 1677.96 356.61 1664.26 356.546C1661.54 309.431 1666.48 254.32 1662.85 206.942C1676.41 206.569 1689.76 206.77 1703.32 206.922L1703.93 227.048C1713.93 214.84 1727.6 207.761 1743.01 205.227Z"/><path fill="#FEFEFE" transform="scale(0.387597 0.390625)" d="M996.475 207.071C1009.58 206.503 1025.88 206.932 1039.23 206.92L1080.61 309.725C1084.68 298.177 1091.13 283.821 1095.9 272.343L1122.94 207.016L1163.84 207.056C1158.88 218.093 1154.04 230.055 1149.29 241.249L1100.36 356.68L1057.63 356.719C1036.93 306.965 1016.55 257.081 996.475 207.071Z"/><path fill="#9B53FA" transform="scale(0.387597 0.390625)" d="M1884.86 171.5C1886.21 171.396 1892.3 170.9 1893.31 171.125C1909.66 174.776 1894.11 198.221 1901.67 207.14C1907.48 211.353 1928.56 209.704 1936.94 209.532C1937.08 220.371 1937.06 231.211 1936.87 242.049C1929.38 241.917 1908.21 240.783 1902.37 243.434C1900.97 248.349 1900.11 255.157 1900.17 260.383C1900.43 283.856 1892.06 345.042 1936.46 319.447C1939.68 328.776 1947.42 342.743 1944.6 350.813C1942.63 353.763 1939.14 354.663 1935.8 355.943C1928.6 358.037 1919.23 359.199 1911.74 359.074C1858.97 358.191 1858.14 320.224 1858.21 280.939L1858.35 242.083L1834.89 242.116L1834.75 209.651C1868.32 210.302 1857.89 200.616 1858.65 171.934C1867.39 171.886 1876.12 171.741 1884.86 171.5Z"/><path fill="#16197B" transform="scale(0.387597 0.390625)" d="M388.798 200.203C396.964 192.786 405.943 184.327 414.463 177.441C414.344 204.089 414.851 232.837 414.172 259.239C414.166 290.829 415.206 326.429 414.459 357.637L399.89 345.252C395.71 341.964 389.181 337.271 386.103 333.193L385.133 333.276C379.61 327.372 353.944 306.972 346.073 300.182C345.881 279.164 346.349 258.145 347.475 237.157C361.214 225.34 374.848 211.519 388.798 200.203Z"/><path fill="#323ECF" transform="scale(0.387597 0.390625)" d="M386.103 333.193C384.751 328.617 380.451 318.292 378.675 313.262C371.473 292.863 369.855 279.453 370.235 258.152C374.999 259.628 406.903 259.124 414.172 259.239C414.166 290.829 415.206 326.429 414.459 357.637L399.89 345.252C395.71 341.964 389.181 337.271 386.103 333.193Z"/><path fill="#1B60EE" transform="scale(0.387597 0.390625)" d="M388.798 200.203C396.964 192.786 405.943 184.327 414.463 177.441C414.344 204.089 414.851 232.837 414.172 259.239C406.903 259.124 374.999 259.628 370.235 258.152C373.069 239.163 381.455 217.98 388.798 200.203Z"/><path fill="#323ECF" transform="scale(0.387597 0.390625)" d="M335.538 18.7641C343.309 24.3948 337.47 117.781 362.402 128.006C385.15 137.335 406.19 135.855 428.342 141.978C407.621 147.783 361.396 147.381 351.308 167.997C342.735 185.515 343.55 216.453 340.197 236.006C339.361 240.882 339.697 248.782 337.579 253.195C335.842 251.421 335.959 249.458 335.411 246.695C334.071 237.811 331.917 220.991 331.706 212.402C329.924 139.998 290.49 154.046 232.703 142.609C251.947 138.342 297.9 136.68 311.111 127.653C316.822 123.693 321.137 118.031 323.441 111.475C326.634 102.518 327.166 87.8901 328.403 77.9995C330.792 58.903 332.11 37.5744 335.538 18.7641Z"/><path fill="#9B53FA" transform="scale(0.387597 0.390625)" d="M1967.28 207.068C1976.46 206.129 1998.9 206.588 2008.59 206.865C2009.42 221.338 2008.65 243.66 2008.64 258.802C2008.77 291.398 2008.64 323.995 2008.26 356.589L1966.8 356.662C1966.14 324.57 1967.09 291.139 1966.64 258.903C1966.52 249.893 1966.04 214.284 1967.28 207.068Z"/><path fill="#7021C4" transform="scale(0.387597 0.390625)" d="M236.796 61.8768C261.288 60.0495 285.882 63.6339 308.833 72.3758C287.281 70.243 267.624 70.6582 246.167 73.3928C243.543 73.7272 235.285 75.0322 233.066 74.8857C176.345 86.7257 132.728 110.224 98.7649 159.394C84.8209 179.581 67.0309 226.825 68.0762 250.774C67.5402 253.025 67.4741 253.67 65.9771 255.395C55.0587 257.618 51.1765 253.356 50.785 243.042C53.5491 223.138 56.074 207.233 62.6642 188.126C84.4892 124.849 141.664 76.5145 207.543 65.0056C217.01 63.3518 227.055 61.4738 236.796 61.8768Z"/><path fill="#7021C4" transform="scale(0.387597 0.390625)" d="M139.524 131.321C145.604 135.669 156.543 145.85 162.892 151.13C183.34 167.987 203.492 185.199 223.34 202.757C218.168 209.446 194.258 246.696 191.063 253.912C175.507 240.719 154.354 223.184 139.966 209.186C139.485 183.46 139.84 157.182 139.524 131.321Z"/><path fill="#9B53FA" transform="scale(0.387597 0.390625)" d="M1981.55 138.995C1990.11 136.479 1999.37 138.781 2005.76 145.016C2012.15 151.251 2014.68 160.449 2012.37 169.074C2010.07 177.699 2003.29 184.41 1994.64 186.627C1981.59 189.973 1968.26 182.24 1964.69 169.246C1961.11 156.251 1968.62 142.792 1981.55 138.995Z"/><path fill="#1B60EE" transform="scale(0.387597 0.390625)" d="M444.831 147.868C461.874 167.77 472.686 191.576 480.672 216.285C478.121 218.958 472.856 221.282 469.413 223.029C464.18 196.52 454.092 173.033 444.831 147.868Z"/><path fill="#11192D" transform="scale(0.387597 0.390625)" d="M420.316 405.161C416.785 402.398 416.556 401.026 417.061 396.933C419.429 394.576 418.335 395.025 421.394 394.849C424.765 397.261 423.832 396.291 425.109 400.554L420.316 405.161Z"/><path fill="#16197B" transform="scale(0.387597 0.390625)" d="M195.656 457.076C202.676 457.971 211.507 460.124 218.577 461.662L215.452 464.916C210.583 463.426 200.752 459.122 195.656 457.076Z"/></svg>