<?xml version="1.0" encoding="utf-8" ?><svg xmlns="http://www.w3.org/2000/svg" xmlns:xlink="http://www.w3.org/1999/xlink" width="800" height="200" viewBox="0 0 800 200"><path fill="#050E2F" transform="scale(0.387597 0.390625)" d="M0 0L2064 0L2064 512L0 512L0 0Z"/><path fill="#344DE0" transform="scale(0.387597 0.390625)" d="M223.268 202.591C261.545 234.54 301.616 271.203 339.366 304.362C344.109 303.389 343.318 304.229 346.527 301.155C359.387 311.552 371.27 321.869 383.892 332.414L385.844 332.859L388.002 335.898C394.598 340.997 400.821 346.342 407.165 351.736C403.448 352.301 402.186 351.811 399.9 354.013L400.174 356.933C409.594 365.014 415.498 369.159 415.471 382.883C415.454 392.094 415.305 401.327 415.399 410.535C468.967 357.147 480.968 295.425 469.476 223.04C473.069 221.493 477.238 218.97 480.706 216.995C487.101 243.96 490.078 264.349 488.803 291.941C482.481 428.706 346.015 513.096 219.47 466.25C211.742 463.389 204.35 460.37 196.777 457.163C213.005 459.972 228.976 464.767 245.202 467.003C296.167 474.449 348.031 461.809 389.855 431.749C391.014 430.928 392.142 430.063 393.236 429.158L254.459 309.044C235.577 292.622 208.63 270.526 191.037 253.653C200.186 237.983 212.692 217.093 223.268 202.591Z"/><path fill="#050E2F" transform="scale(0.387597 0.390625)" d="M346.527 301.155C359.387 311.552 371.27 321.869 383.892 332.414C379.609 332.681 380.258 332.033 377.117 334.314L376.17 336.493C365.7 326.42 350.611 314.108 339.366 304.362C344.109 303.389 343.318 304.229 346.527 301.155Z"/><path fill="#171A7B" transform="scale(0.387597 0.390625)" d="M376.17 336.493L377.117 334.314C380.258 332.033 379.609 332.681 383.892 332.414L385.844 332.859L388.002 335.898C394.598 340.997 400.821 346.342 407.165 351.736C403.448 352.301 402.186 351.811 399.9 354.013L400.174 356.933C394.242 351.709 388.228 346.58 382.133 341.548L376.17 336.493Z"/><path fill="#030927" transform="scale(0.387597 0.390625)" d="M376.17 336.493L377.117 334.314C380.258 332.033 379.609 332.681 383.892 332.414L385.844 332.859L388.002 335.898C389.915 338.913 390.68 338.969 390.393 342.034C387.334 343.13 385.511 342.474 382.133 341.548L376.17 336.493Z"/><path fill="#FEFEFE" transform="scale(0.387597 0.390625)" d="M756.353 162.831L799.136 162.719L799.14 296.279C799.142 307.356 799.972 347.643 798.678 356.733L762.971 356.727C730.914 317.614 698.645 275.25 666.103 236.938L666.093 356.641C651.933 356.783 637.773 356.795 623.613 356.677C622.99 311.925 623.492 266.736 623.302 221.949C623.26 211.851 622.67 169.347 624.392 162.776C635.719 162.811 647.047 162.903 658.374 163.053C666.05 169.603 685.227 194.211 692.513 203.282L756.475 282.879L756.353 162.831Z"/><path fill="#FEFEFE" transform="scale(0.387597 0.390625)" d="M904.1 202.511C947.702 198.619 986.232 230.744 990.245 274.335C994.259 317.927 962.241 356.546 918.661 360.681C874.909 364.831 836.104 332.66 832.075 288.897C828.046 245.133 860.325 206.418 904.1 202.511Z"/><path fill="#050E2F" transform="scale(0.387597 0.390625)" d="M904.671 239.109C954.631 232.898 969.17 308.593 918.772 323.219C866.497 331.156 853.059 252.945 904.671 239.109Z"/><path fill="#344DE0" transform="scale(0.387597 0.390625)" d="M1407.81 160.473C1429.18 160.149 1453.1 165.632 1470.78 178.016C1466.17 188.688 1461.76 200.03 1457.32 210.829C1443.56 203.686 1431.77 197.685 1415.53 195.876C1399.07 194.336 1375 197.148 1372.39 217.446C1371.37 228.543 1385.62 236.052 1394.13 238.842C1418.88 246.915 1450.06 249.104 1467.81 270.563C1485.39 291.81 1479.98 326.311 1458.64 343.038C1437.48 359.614 1411.36 361.352 1385.75 358.813C1366.92 357.355 1342.61 349.062 1328.14 336.564C1331.07 328.479 1336.86 312.843 1342.35 306.594C1346.95 306.966 1355.23 311.259 1360.03 314.046C1377.37 324.121 1434.42 335.851 1436 304.432C1436.91 286.406 1394.08 278.049 1377.41 273.739C1332.71 262.181 1315.53 219.692 1345.16 182.784C1358.38 166.353 1385.65 161.198 1407.81 160.473Z"/><path fill="#344DE0" transform="scale(0.387597 0.390625)" d="M1561.22 204.336C1605.28 200.651 1640.14 228.79 1643.29 273.388C1643.8 280.55 1643.78 287.026 1643.65 294.224C1606.43 294.812 1567.94 294.131 1530.55 294.335C1544.64 333.43 1582.62 332.779 1611.32 310.539L1617.9 316.654C1622.95 322.496 1628.78 328.165 1634.25 333.655C1618.62 349.377 1608.31 354.838 1585.43 358.37C1509.7 370.058 1463.01 294.454 1506.99 232.385C1518.95 215.51 1540.02 206.708 1561.22 204.336Z"/><path fill="#050E2F" transform="scale(0.387597 0.390625)" d="M1563.73 236.257C1580.79 235.396 1599.02 243.48 1604.02 262.92C1604.57 265.062 1602.82 266.617 1601.44 268.018C1597.17 269.539 1576.85 268.771 1570.75 268.71C1563.28 268.708 1540.88 269.574 1534.68 268.381C1531.41 265.981 1532.12 267.163 1530.91 263.583C1531.09 260.947 1532.53 258.102 1534.14 256.058C1543.18 244.58 1549.43 238.827 1563.73 236.257Z"/><path fill="#344DE0" transform="scale(0.387597 0.390625)" d="M1228.35 204.408C1230.54 204.274 1232.72 204.19 1234.92 204.158C1252.88 203.937 1274.64 208.075 1287.87 221.224C1308.75 241.983 1304.93 274.58 1304.9 301.791L1304.98 356.531C1291.93 356.664 1278.96 356.874 1265.91 356.501C1265.6 351.948 1265.75 345.537 1265.71 340.838C1264.41 342.167 1263.08 343.47 1261.73 344.749C1238.86 366.254 1196.42 363.63 1175.04 340.706C1170.48 335.003 1167.5 328.197 1166.4 320.976C1164.97 311.11 1167.39 297.781 1173.71 290.013C1196.68 261.763 1236.06 272.175 1264.08 268.331C1257.98 233.726 1235.32 233.547 1206.16 242.494C1199.37 244.578 1193.43 248.15 1187.3 251.706C1182.54 245.099 1176.48 230.435 1172.98 222.469C1190.27 211.037 1208.08 206.434 1228.35 204.408Z"/><path fill="#050E2F" transform="scale(0.387597 0.390625)" d="M1226.58 294.27C1237.47 293.692 1252.15 294.102 1263.33 294.12C1263.51 312.472 1261.16 320.911 1243.41 328.506C1230.6 331.305 1211.12 331.638 1206.87 315.702C1205.9 312.037 1206.48 308.131 1208.48 304.908C1212.56 298.185 1219.49 295.945 1226.58 294.27Z"/><path fill="#171A7B" transform="scale(0.387597 0.390625)" d="M139.857 222.626L214.641 286.516C215.1 318.89 216.013 360.132 214.095 392.003C205.42 399.224 148.454 447.916 141.633 450.492C138.66 446.823 139.855 431.392 139.999 425.815C117.397 414.53 90.4449 386.702 77.2881 365.347C58.7404 335.241 49.814 299.72 49.9661 264.485C49.995 257.795 49.4752 249.169 50.9967 242.757C51.0135 245.232 50.6494 251.025 52.0351 252.654C57.6093 254.551 59.7446 255.161 65.5934 256.142L66.5456 255.551L67.967 247.552C67.9887 253.819 67.0453 259.538 66.9181 265.694C65.6702 326.095 95.9972 379.208 137.202 421.263C138.154 422.234 138.571 422.848 139.989 423.041C139.484 356.321 140.583 289.009 139.857 222.626Z"/><path fill="#9655FA" transform="scale(0.387597 0.390625)" d="M1723.92 214.124C1741.8 204.72 1760.76 201.297 1780.44 207.428C1793.77 211.584 1804.22 220.79 1810.63 233.134C1824.05 258.977 1820.26 325.93 1819.41 356.56C1805.45 356.659 1791.49 356.67 1777.54 356.593C1777.56 330.908 1778.03 304.967 1777.28 279.352C1776.63 256.834 1765.35 236.316 1739.55 241.596C1704.21 248.829 1711.95 293.428 1711.13 319.998C1710.76 332.044 1711.22 344.711 1711.27 356.67C1698.74 356.612 1682.05 357.048 1669.86 356.396C1666.94 309.372 1672.12 253.848 1668.9 206.769C1674.72 206.715 1705.93 205.684 1708.6 207.996C1709.66 210.984 1709.53 212.491 1709.51 215.6C1709.95 213.771 1710.16 213.414 1711.07 211.775C1716.05 210.414 1720.25 210.297 1723.92 214.124Z"/><path fill="#030927" transform="scale(0.387597 0.390625)" d="M1709.51 215.6C1709.95 213.771 1710.16 213.414 1711.07 211.775C1716.05 210.414 1720.25 210.297 1723.92 214.124C1719.93 216.969 1713.17 223.569 1710.67 224.207C1709.06 222.339 1709.51 218.285 1709.51 215.6Z"/><path fill="#FEFEFE" transform="scale(0.387597 0.390625)" d="M996.019 207.275C1009.53 206.596 1024.81 206.928 1038.49 206.969C1052.62 239.14 1066.66 276.626 1080.1 309.562C1081.95 304.392 1084.03 299.149 1086.18 294.094C1098.46 265.317 1109.35 235.517 1122.12 206.984L1162.29 206.961C1157.65 218.648 1152.89 230.285 1148.01 241.872C1131.93 279.904 1116.13 318.717 1099.74 356.521C1088.92 357.315 1069.56 356.725 1058.11 356.742C1055.04 351.251 1049.12 336.304 1046.39 329.819L1023.41 274.924C1019.64 265.891 996.978 212.861 996.019 207.275Z"/><path fill="#9655FA" transform="scale(0.387597 0.390625)" d="M1876.31 171.548C1880.73 171.301 1890.31 170.865 1894.33 171.072C1907.84 171.768 1896.17 200.134 1902.87 208.161C1908.57 210.902 1931.37 209.078 1938.79 208.771C1938.72 216.821 1939.89 229.033 1938.25 237.78C1936.57 246.761 1909.61 238.728 1903.67 242.822C1899.57 245.649 1900.26 266.054 1900.55 269.763C1901.79 285.81 1895.49 321.824 1917.12 325.293C1925.5 326.641 1931.05 323.349 1937.32 318.741C1940.13 326.573 1945.75 340.113 1946.68 348.699C1946.89 350.665 1945.11 351.686 1943.65 352.956C1923.31 362.806 1890.07 362.236 1873.52 345.356C1856.78 328.293 1858.76 302.716 1858.78 280.726L1858.85 241.955L1835.98 241.957L1835.85 209.231C1843.72 209.497 1850.6 210.811 1857.17 206.899C1861.18 202.324 1858.91 179.459 1858.98 171.87C1863.59 171.494 1871.47 171.615 1876.31 171.548Z"/><path fill="#171A7B" transform="scale(0.387597 0.390625)" d="M388.848 200.367C396.568 192.993 405.69 184.712 414.088 178.016L414.106 259.336L414.779 357.8L407.165 351.736C400.821 346.342 394.598 340.997 388.002 335.898L385.844 332.859L383.892 332.414C371.27 321.869 359.387 311.552 346.527 301.155C345.469 286.149 345.677 251.894 347.079 237.256C361.381 225.2 374.457 212.409 388.848 200.367Z"/><path fill="#344DE0" transform="scale(0.387597 0.390625)" d="M370.276 258.188C375.662 259.772 406.652 259.344 414.106 259.336L414.779 357.8L407.165 351.736C400.821 346.342 394.598 340.997 388.002 335.898L385.844 332.859C385.644 331.272 382.215 322.745 381.485 320.918C372.833 299.251 369.191 281.634 370.276 258.188Z"/><path fill="#1873CE" transform="scale(0.387597 0.390625)" d="M388.848 200.367C396.568 192.993 405.69 184.712 414.088 178.016L414.106 259.336C406.652 259.344 375.662 259.772 370.276 258.188C372.591 240.446 381.76 216.998 388.848 200.367Z"/><path fill="#344DE0" transform="scale(0.387597 0.390625)" d="M335.44 18.705C339.486 21.5867 343.03 98.1112 350.947 114.982C364.04 142.886 420.488 133.334 424.481 142.162C409.226 150.57 376.081 145.556 360.001 158.092C346.342 168.741 347.037 179.463 344.677 195.044C341.533 215.804 341.182 237.557 337.159 258.078L335.647 247.756C330.626 222.244 334.009 189.354 320.651 166.445C314.042 155.111 295.91 152.111 283.889 150.39C266.978 147.969 249.8 145.618 232.852 142.639C253.65 137.237 296.297 137.66 311.212 127.359C316.943 123.382 321.274 117.701 323.59 111.121C327.096 101.428 327.286 87.2238 328.604 76.8466C330.981 58.1447 332.116 37.1101 335.44 18.705Z"/><path fill="#9655FA" transform="scale(0.387597 0.390625)" d="M1967.04 206.904C1977.17 206.021 1998.34 206.58 2009.07 206.808C2007.7 219.049 2008.37 241.648 2008.32 254.817C2008.43 288.665 2008.34 322.514 2008.06 356.361C1999.87 357.236 1976 356.698 1966.66 356.742L1966.7 257.746C1966.69 241.582 1966.26 222.806 1967.04 206.904Z"/><path fill="#6F21C5" transform="scale(0.387597 0.390625)" d="M50.9967 242.757C58.1275 185.048 76.8225 139.506 123.96 102.67C164.808 70.6283 216.781 56.2685 268.285 62.7949C280.448 64.2898 297.536 67.8558 309.015 72.4783C190.825 59.361 82.0657 123.062 68.0246 246.631C67.9884 246.949 67.9704 247.232 67.967 247.552L66.5456 255.551L65.5934 256.142C59.7446 255.161 57.6093 254.551 52.0351 252.654C50.6494 251.025 51.0135 245.232 50.9967 242.757Z"/><path fill="#6F21C5" transform="scale(0.387597 0.390625)" d="M139.441 130.522C167.195 153.277 196.02 178.996 223.268 202.591C212.692 217.093 200.186 237.983 191.037 253.653C176.586 242.619 153.741 221.915 139.65 209.467C140.276 183.155 140.207 156.831 139.441 130.522Z"/><path fill="#9655FA" transform="scale(0.387597 0.390625)" d="M1981.67 138.899C1990.2 136.456 1999.4 138.795 2005.73 145.022C2012.06 151.249 2014.55 160.401 2012.25 168.979C2009.95 177.557 2003.22 184.235 1994.62 186.459C1981.56 189.837 1968.21 182.089 1964.66 169.073C1961.12 156.058 1968.7 142.61 1981.67 138.899Z"/><path fill="#1873CE" transform="scale(0.387597 0.390625)" d="M444.61 148.301C451.854 155.883 461.89 170.772 465.982 180.314C472.764 192.943 476.281 203.557 480.706 216.995C477.238 218.97 473.069 221.493 469.476 223.04C466.661 210.525 463.154 198.175 458.972 186.048L456.151 178.811C452.803 169.527 447.099 156.895 444.61 148.301Z"/><path fill="#1878D6" transform="scale(0.387597 0.390625)" d="M456.151 178.811C457.762 175.815 456.95 176.269 459.529 175.21C462.281 176.155 463.242 178.311 464.78 180.778C464.23 185.427 464.085 185.543 458.972 186.048L456.151 178.811Z"/></svg>