<?xml version="1.0" encoding="utf-8" ?><svg xmlns="http://www.w3.org/2000/svg" xmlns:xlink="http://www.w3.org/1999/xlink" width="4096" height="1738" viewBox="0 0 4096 1738"><path fill="#010E30" d="M0 0L4096 0L4096 1738L0 1738L0 0Z"/><path fill="#264BC0" d="M741.406 790.231C735.82 767.116 730.005 749.31 719.904 727.587C715.793 718.747 710.033 709.207 706.502 700.627L706.117 699.665C721.028 718.118 738.469 746.779 746.595 769.082C766.9 809.698 771.2 865.058 766.87 909.423C751.884 1062.98 608.784 1162.22 459.64 1132.15C444.049 1129.01 429.116 1124.27 414.015 1119.07L410.448 1117.84C400.469 1114.21 393.873 1111.37 384.604 1106.33C391.038 1107.41 403.271 1111.25 409.968 1113.14C422.946 1116.28 435.942 1119.06 449.153 1121.01C512.555 1130.37 593.194 1110.59 644.327 1071.49C622.907 1050.38 594.306 1027.5 571.264 1007.28L373.703 836.794C374.643 836.508 376.428 835.681 377.302 835.306C391.214 817.018 406.749 800.197 422.23 783.257C423.285 782.102 423.554 779.927 423.782 778.463C506.282 849.252 588.305 922.188 671.453 991.908L671.794 1047.27C720.795 999.236 748.808 933.773 749.718 865.163C749.954 840.721 746.548 814.041 741.406 790.231Z"/><path fill="#2474C9" d="M741.406 790.231C735.82 767.116 730.005 749.31 719.904 727.587C715.793 718.747 710.033 709.207 706.502 700.627L706.117 699.665C721.028 718.118 738.469 746.779 746.595 769.082L744.797 769.082C743.16 765.127 741.454 761.506 739.633 757.648C731.253 768.271 746.84 781.918 741.406 790.231Z"/><path fill="#FDFDFD" d="M819.292 784.712C832.269 784.028 846.309 784.259 859.387 784.249C864.836 790.777 869.81 800.043 875.492 807.167L877.361 806.857C885.472 815.483 887.376 824.15 896.837 833.123C894.529 827.952 881.667 807.641 877.755 801.261C886.324 808.233 911.275 845.654 908.642 855.895C909.797 858.376 912.357 862.161 913.909 864.553C925.413 882.284 937.966 899.171 948.954 917.251C947.59 903.081 948.298 886.225 948.269 871.671C948.065 842.731 948.257 813.789 948.846 784.854L991.472 784.477C992.149 828.954 992.277 873.439 991.854 917.919C991.734 941.663 992.595 966.922 991.622 990.466C979.359 991.041 966.31 990.79 953.968 990.745C922.684 946.557 893.356 900.698 862.365 856.614C863.576 898.015 863.154 948.749 862.342 990.385C847.933 990.999 833.505 990.995 819.097 990.371C818.206 967.322 818.898 938.967 818.885 915.467C818.714 871.881 818.85 828.296 819.292 784.712Z"/><path fill="#010526" d="M875.492 807.167L877.361 806.857C885.472 815.483 887.376 824.15 896.837 833.123C894.529 827.952 881.667 807.641 877.755 801.261C886.324 808.233 911.275 845.654 908.642 855.895C897.065 840.017 886.009 823.766 875.492 807.167Z"/><path fill="#0F1C79" d="M311.798 801.226C315.586 803.06 335.385 820.768 339.993 824.878C361.891 844.413 389.14 864.899 410.045 885.094C410.927 899.839 410.63 918.854 410.747 933.807C411.047 963.305 411.112 992.805 410.942 1022.3C396.413 1035.3 377.282 1049.52 361.801 1062.2C347.122 1073.75 324.894 1091.45 311.405 1103.47C312.123 1089.01 311.043 1072.57 311.108 1057.86L311.51 961.945C311.212 908.442 312.316 854.537 311.798 801.226Z"/><path fill="#FDFDFD" d="M1017.84 883.914C1013 876.937 1021.45 861.975 1026.47 856.455L1028 858.392C1030.03 857.807 1034.93 850.858 1037.24 848.729C1049.85 837.101 1068.97 830.682 1085.92 830.385C1091.78 830.282 1112.04 830.984 1115.73 834.504L1114.25 835.553C1160.22 850.404 1176.16 900.029 1161.93 943.358C1155.92 961.441 1143.09 976.461 1126.16 985.213C1090.63 1003.17 1039.51 990.07 1022.96 952.328C1012.93 929.433 1012.56 907.915 1017.84 883.914Z"/><path fill="#010526" d="M1017.84 883.914C1013 876.937 1021.45 861.975 1026.47 856.455L1028 858.392C1030.03 857.807 1034.93 850.858 1037.24 848.729C1049.85 837.101 1068.97 830.682 1085.92 830.385C1091.78 830.282 1112.04 830.984 1115.73 834.504L1114.25 835.553C1069.03 827.955 1034.79 838.033 1017.84 883.914Z"/><path fill="#010E30" d="M1083.23 865.318C1125.48 860.466 1130.21 913.145 1117.69 941.385C1113.46 950.939 1106.67 955.92 1097.07 959.125C1053.31 965.13 1047.9 899.5 1068.41 874.437C1072.71 869.192 1077.14 867.486 1083.23 865.318Z"/><path fill="#FDFDFD" d="M1543.15 893.861L1540.86 894.95C1535.97 893.862 1523.62 886.079 1519.75 882.349C1478.11 842.234 1515.79 782.458 1568.32 780.217L1568.87 782.275C1615.89 781.386 1651.47 789.566 1659.63 842.494C1645.87 842.933 1632.11 843.078 1618.35 842.928C1615.77 833.588 1613.12 827.521 1603.86 822.5C1589.52 814.725 1559.45 814.242 1551.56 831.367C1543.92 847.972 1556.57 858.535 1571.12 863.023C1600.11 872.888 1641.92 875.669 1657.06 906.946C1671.12 936.025 1656.23 972.113 1626.64 984.664C1600.99 995.54 1569.69 995.235 1543.54 986.275C1514.7 975.359 1503.44 956.034 1500.14 926.884C1514.02 926.752 1528.25 926.455 1542.1 926.671C1544.21 937.188 1546.83 943.675 1556.02 950.09C1574.7 963.12 1622.58 958.036 1618.54 927.887C1615.97 908.701 1572.96 903.32 1558.77 898.684C1554.62 897.327 1547.12 894.835 1543.15 893.861Z"/><path fill="#010526" d="M1543.15 893.861L1540.86 894.95C1535.97 893.862 1523.62 886.079 1519.75 882.349C1478.11 842.234 1515.79 782.458 1568.32 780.217L1568.87 782.275C1546.87 786.198 1528.77 791.631 1515.2 811.045C1506.57 823.241 1503.2 838.388 1505.84 853.091C1509.87 874.693 1524.98 884.575 1543.15 893.861Z"/><path fill="#FDFDFD" d="M1341.38 878.064C1355.79 835.477 1392.8 826.856 1434.72 835.889C1453.48 839.934 1467.7 852.621 1473.65 871.074L1473.9 868.599L1474.49 868.54L1474.56 866.391C1475.45 874.141 1480.2 875.823 1480.62 885.686C1481.47 905.635 1478.97 925.131 1478.57 944.999C1478.22 959.797 1482.6 971.248 1480.3 985.281L1479.37 982.21C1478.9 985.552 1479.16 987.748 1477.29 990.087L1476.6 990.192C1476.42 987.795 1476.25 984.158 1475.91 981.867C1475.54 985.511 1475.89 987.72 1473.91 990.008C1463.89 991.136 1445.94 990.651 1435.29 990.649L1435.19 978.045C1434.22 979.628 1433.78 981.092 1432.45 981.494C1425.07 983.726 1416.78 991.089 1409.16 992.103L1407 990.838C1389.39 993.25 1372.65 994.02 1356.71 984.58C1336.16 972.406 1330.03 940.349 1343.55 921.052C1358.23 900.108 1389.06 899.373 1411.8 895.457L1410.29 894.737C1412.44 892.581 1422.22 892.132 1429 887.591C1430.28 885.542 1430.57 884.721 1430.35 882.317C1429.86 876.749 1427.14 871.615 1422.81 868.088C1415.83 866.24 1421.13 869.902 1414.46 869.406C1409.95 869.071 1404.27 867.028 1399.72 866.986C1389.3 866.891 1391.27 875.469 1385.57 877.892L1384.2 876.258C1383.38 878.089 1382.79 879.222 1381.81 880.973C1378 882.245 1346.79 878.621 1341.38 878.064Z"/><path fill="#01061E" d="M1473.65 871.074L1473.9 868.599L1474.49 868.54L1474.56 866.391C1475.45 874.141 1480.2 875.823 1480.62 885.686C1481.47 905.635 1478.97 925.131 1478.57 944.999C1478.22 959.797 1482.6 971.248 1480.3 985.281L1479.37 982.21C1478.9 985.552 1479.16 987.748 1477.29 990.087L1476.6 990.192C1476.42 987.795 1476.25 984.158 1475.91 981.867C1474.64 975.924 1475.45 959.179 1475.25 952.616C1474.51 927.928 1477.09 895.006 1473.65 871.074Z"/><path fill="#01061E" d="M1384.2 876.258C1406.55 836.179 1464.36 892.004 1411.8 895.457L1410.29 894.737C1412.44 892.581 1422.22 892.132 1429 887.591C1430.28 885.542 1430.57 884.721 1430.35 882.317C1429.86 876.749 1427.14 871.615 1422.81 868.088C1415.83 866.24 1421.13 869.902 1414.46 869.406C1409.95 869.071 1404.27 867.028 1399.72 866.986C1389.3 866.891 1391.27 875.469 1385.57 877.892L1384.2 876.258Z"/><path fill="#01061E" d="M1407 990.838C1425.2 985.027 1424.5 977.594 1434.63 971.696C1436.16 973.923 1435.45 974.578 1435.19 978.045C1434.22 979.628 1433.78 981.092 1432.45 981.494C1425.07 983.726 1416.78 991.089 1409.16 992.103L1407 990.838Z"/><path fill="#010E30" d="M1379.03 937.931C1387.18 921.665 1416.46 923.33 1433.47 918.272C1433.51 935.888 1433.97 953.852 1413.83 960.527C1398.75 968.946 1372.92 960.653 1379.03 937.931Z"/><path fill="#01061E" d="M1379.03 937.931C1387.18 921.665 1416.46 923.33 1433.47 918.272C1433.51 935.888 1433.97 953.852 1413.83 960.527L1414.6 958.26C1415.26 957.878 1415.91 957.487 1416.55 957.088C1423.51 952.73 1430.46 942.365 1431.85 935.61C1435.32 918.835 1389.24 931.673 1384.5 938.365C1383.73 939.452 1382.31 939.749 1381.04 940.035L1379.03 937.931Z"/><path fill="#FDFDFD" d="M1780.02 990.878C1777.89 991.077 1775.77 991.293 1773.65 991.529C1750.07 994.052 1727.91 992.733 1708.37 977.195C1674.68 950.557 1672.23 890.274 1698.47 858.029C1724.54 826 1775.6 824.989 1806.22 851.123L1808.13 850.049C1811.36 852.838 1819.36 863.012 1820.6 866.811L1820.58 866.815L1823.02 865.219C1826.81 875.863 1832.75 907.058 1831.27 917.552L1830.1 918.15L1828.96 917.348C1828.43 922.008 1829.28 921.303 1826.62 923.48C1816.8 924.45 1800.33 923.82 1789.92 923.696C1767.25 923.308 1744.57 923.123 1721.9 923.141C1722.72 929.529 1723.45 936.26 1726.65 941.866C1740.73 966.543 1774.27 968.535 1787.99 942.954L1788.37 942.228C1797.61 943.335 1819.75 945.389 1827.65 947.142C1838.91 961.524 1797.31 990.377 1782.18 992.121L1780.02 990.878Z"/><path fill="#010526" d="M1827.65 947.142C1838.91 961.524 1797.31 990.377 1782.18 992.121L1780.02 990.878C1804.12 983.507 1818.68 970.881 1827.65 947.142Z"/><path fill="#010526" d="M1806.22 851.123L1808.13 850.049C1811.36 852.838 1819.36 863.012 1820.6 866.811L1820.58 866.815L1823.02 865.219C1826.81 875.863 1832.75 907.058 1831.27 917.552L1830.1 918.15L1828.96 917.348C1827.55 887.217 1826.02 874.258 1806.22 851.123Z"/><path fill="#010E30" d="M1748.28 864.199C1774.24 861.2 1783.99 872.073 1788.02 896.722L1764.79 896.271L1722.36 896.38C1726.16 878.599 1729.65 869.978 1748.28 864.199Z"/><path fill="#FDFDFD" d="M1894.09 859.835C1894.59 853.172 1893.19 843.908 1894.85 837.917C1896.33 840.097 1895.47 841.904 1895.16 845.309C1897.23 845.296 1894 843.605 1897.66 840.4C1905.94 840.125 1909.2 833.648 1917.26 830.858C1925.78 827.912 1947.33 828.823 1955.22 832.528L1955.09 834.427C1963.27 838.272 1966.83 840.186 1973.91 846.032L1976.4 845.793C1982.65 851.567 1996.87 868.29 1988.63 877.049C1990.41 892.65 1989.91 908.41 1989.9 924.127L1989.79 990.38L1946.11 990.091C1946.24 974.53 1948.53 894.533 1944.78 884.14L1943.42 885.938C1938.76 880.584 1935.25 868.702 1924.98 869.189C1910.9 869.856 1899.01 878.13 1899.89 892.808C1903.21 879.724 1914.93 866.825 1929.29 871.669C1932.54 872.796 1935.2 875.178 1936.68 878.281C1937.08 879.106 1937.23 879.606 1937.56 880.519C1928.62 877.159 1931.13 868.511 1915.82 875.024C1884.1 888.52 1912.64 962.611 1896.29 973.45C1896.57 978.499 1896.43 985.296 1896.48 990.487C1884.57 991.511 1865.24 991.022 1853.11 990.761C1854.36 940.254 1852.95 885.803 1853.39 834.752L1892.77 834.742C1892.87 841.498 1892.63 853.678 1894.09 859.835Z"/><path fill="#01061E" d="M1896.29 973.45C1895.6 948.946 1894.41 910.556 1898.01 886.493C1901.16 865.443 1933.8 856.333 1944.78 884.14L1943.42 885.938C1938.76 880.584 1935.25 868.702 1924.98 869.189C1910.9 869.856 1899.01 878.13 1899.89 892.808C1903.21 879.724 1914.93 866.825 1929.29 871.669C1932.54 872.796 1935.2 875.178 1936.68 878.281C1937.08 879.106 1937.23 879.606 1937.56 880.519C1928.62 877.159 1931.13 868.511 1915.82 875.024C1884.1 888.52 1912.64 962.611 1896.29 973.45Z"/><path fill="#01061E" d="M1894.09 859.835C1894.59 853.172 1893.19 843.908 1894.85 837.917C1896.33 840.097 1895.47 841.904 1895.16 845.309C1897.23 845.296 1894 843.605 1897.66 840.4C1905.94 840.125 1909.2 833.648 1917.26 830.858C1925.78 827.912 1947.33 828.823 1955.22 832.528L1955.09 834.427C1932.47 829.555 1913.27 831.981 1898.96 851.987C1897.28 854.343 1895.69 857.748 1894.09 859.835Z"/><path fill="#010526" d="M1973.91 846.032L1976.4 845.793C1982.65 851.567 1996.87 868.29 1988.63 877.049C1986.19 862.907 1982.71 857.466 1973.91 846.032Z"/><path fill="#264BC0" d="M642.465 770.985C653.145 759.691 659.135 754.612 671.849 745.553C672.366 780.762 672.372 815.977 671.868 851.186C672.871 857.023 672.066 884.239 672 892.028L671.728 977.376C662.164 970.688 594.088 911.817 590.872 905.228C583.328 889.771 583.35 839.9 589.22 823.507C593.471 811.635 630.997 776.623 642.465 770.985Z"/><path fill="#0F1C79" d="M671.728 977.376C662.164 970.688 594.088 911.817 590.872 905.228C583.328 889.771 583.35 839.9 589.22 823.507C593.471 811.635 630.997 776.623 642.465 770.985C617.917 809.581 609.871 856.409 620.127 900.985C625.813 925.333 647.271 958.165 668.385 972.695L669.522 972.739C669.162 969.959 668.363 964.52 668.545 961.9C670.712 930.605 670.648 899.156 671.235 867.795C671.307 863.991 670.946 854.501 671.868 851.186C672.871 857.023 672.066 884.239 672 892.028L671.728 977.376Z"/><path fill="#FDFDFD" d="M1172.21 834.743L1217.4 834.577C1223.37 856.415 1229.83 878.113 1236.79 899.656C1238.58 905.413 1243.2 921.778 1245.26 926.819C1245.4 926.147 1245.95 925.026 1246.25 924.34C1247.58 926.647 1247.63 926.477 1249.88 928.002C1253.55 927.788 1252.18 928.196 1255.41 924.752L1257.53 925.06C1267.47 895.442 1275.44 863.747 1285.44 835.037C1299.1 835.042 1316.5 835.512 1329.84 834.681C1311.65 885.761 1291.93 939.323 1275.02 990.675C1259.3 990.853 1243.57 990.728 1227.84 990.3C1218.82 967.104 1210.56 942.285 1202.17 918.72C1191.97 890.806 1181.98 862.813 1172.21 834.743Z"/><path fill="#01061E" d="M1245.26 926.819C1245.4 926.147 1245.95 925.026 1246.25 924.34C1247.58 926.647 1247.63 926.477 1249.88 928.002C1253.55 927.788 1252.18 928.196 1255.41 924.752L1257.53 925.06C1255.64 932.69 1253.58 940.274 1251.33 947.804C1249.16 940.852 1247.14 933.856 1245.26 926.819Z"/><path fill="#FDFDFD" d="M439.359 697.807C457.872 696.808 531.382 687.077 543.574 677.795C548.766 673.842 552.099 666.825 554.067 660.718C557.646 649.609 558.836 637.33 560.373 625.796C564.969 591.304 565.963 555.842 571.871 521.601C576.737 554.912 579.346 650.584 596.575 672.828C599.425 676.508 602.961 679.604 607.244 681.47C624.593 689.029 679.904 696.025 700.859 698.647C679.383 701.582 636.541 706.27 616.904 712.609L617.176 714.316C612.943 716.377 599.39 720.622 597.287 723.91C590.22 734.965 587.331 755.531 584.402 767.805C581.538 779.803 586.565 794.516 582.871 806.163C581.198 803.64 582.128 797.333 581.193 793.148L580.071 794.305L580.106 795.528C580.184 799.258 576.112 839.099 575.222 840.388L575.276 843.224L572.848 844.058L571.695 844.353C569.564 838.543 569.575 826.936 568.228 819.52C563.176 791.717 563.034 751.693 550.352 726.905C548.253 722.804 540.796 717.207 536.87 715.931C506.849 706.169 469.806 704.507 439.359 697.807Z"/><path fill="#010526" d="M572.848 844.058C573.633 818.931 582.483 746.289 594.351 724.675C598.385 717.327 608.599 713.959 616.904 712.609L617.176 714.316C612.943 716.377 599.39 720.622 597.287 723.91C590.22 734.965 587.331 755.531 584.402 767.805C581.538 779.803 586.565 794.516 582.871 806.163C581.198 803.64 582.128 797.333 581.193 793.148L580.071 794.305L580.106 795.528C580.184 799.258 576.112 839.099 575.222 840.388L575.276 843.224L572.848 844.058Z"/><path fill="#FDFDFD" d="M2023.93 796.345C2036.79 796.346 2053.52 795.856 2066.06 796.511C2066.06 809.239 2066.24 822.508 2065.83 835.185C2075.39 835.152 2085.5 834.944 2095.02 835.095C2094.98 845.135 2095.14 855.888 2094.64 865.862L2066.1 865.858C2066.01 879.549 2063.3 948.784 2069.97 955.669C2073.4 959.218 2079.64 958.89 2084.06 958.306C2086.93 957.949 2089.79 957.477 2092.63 956.89C2094.04 967.222 2095.68 977.52 2097.56 987.776C2083.74 992.442 2077.25 992.725 2062.49 992.032L2062.3 993.902C2057.38 993.978 2043.73 989.318 2039.73 986.986C2027.68 979.965 2023.88 965.519 2020.24 953.228L2020.25 954.974C2015.33 944.326 2020.33 882.829 2021.07 868.943C2019.11 867.26 2011.89 869.296 2006.03 868.125L2005.25 866.385C2003.69 866.158 2002.24 866.349 2001.94 865.275C1999.91 858.004 2001.05 842.424 2001.03 834.996L2023.94 835.171C2023.54 821.921 2023.69 809.612 2023.93 796.345Z"/><path fill="#010526" d="M2005.25 866.385L2023.54 866.019L2023.53 920.874C2023.47 955.92 2019.47 983.747 2062.49 992.032L2062.3 993.902C2057.38 993.978 2043.73 989.318 2039.73 986.986C2027.68 979.965 2023.88 965.519 2020.24 953.228L2020.25 954.974C2015.33 944.326 2020.33 882.829 2021.07 868.943C2019.11 867.26 2011.89 869.296 2006.03 868.125L2005.25 866.385Z"/><path fill="#632BB8" d="M191.762 840.57C203.075 711.378 282.942 615.345 413.35 594.031C448.595 588.271 483.658 593.084 518.368 599.913C517.916 601.361 517.524 602.654 517.115 604.122C494 603.504 473.714 603.29 450.648 606.062C351.286 618.006 258.108 686.187 228.652 783.705C222.686 803.457 219.364 821.162 217.151 841.604C208.683 841.418 200.218 841.073 191.762 840.57Z"/><path fill="#632BB8" d="M311.865 682.602C348.218 712.03 388.679 747.563 423.782 778.463C423.554 779.927 423.285 782.102 422.23 783.257C406.749 800.197 391.214 817.018 377.302 835.306C376.428 835.681 374.643 836.508 373.703 836.794C355.525 820.168 330.258 799.002 311.232 784.06C311.387 751.118 310.609 715.191 311.865 682.602Z"/><path fill="#FDFDFD" d="M2115.46 835.132L2157.68 834.579C2156.32 884.033 2157.6 939.558 2157.78 989.522C2153.41 990.883 2121.68 990.273 2114.72 990.277C2114.6 982.847 2114.66 975.179 2114.81 967.744C2115.67 923.81 2113.48 878.962 2115.46 835.132Z"/><path fill="#0F1C79" d="M191.762 840.57C200.218 841.073 208.683 841.418 217.151 841.604C215.846 851.117 216.772 865.94 217.415 875.865C220.624 925.323 240.158 979.567 269.222 1020.05C274.696 1027.55 280.601 1034.73 286.907 1041.54C291.145 1046.08 300.827 1055.23 303.624 1059.97L302.541 1061.18C294.737 1059.57 257.462 1020.32 250.043 1011.65C214.488 970.085 186.527 895.174 191.762 840.57Z"/><path fill="#935DE1" d="M3401.99 860.317C3422.08 859.927 3434.57 856.861 3449.79 869.892L3451.02 868.873C3457.48 868.382 3457.52 866.214 3462.7 867.624C3466.24 877.304 3469.5 887.084 3472.47 896.953C3467.89 902.336 3462.64 904.152 3456.22 900.118C3451.12 918.804 3441.39 924.269 3422.61 924.644L3402.29 924.667C3401.83 915.34 3402.13 905.602 3402.26 896.235L3401.88 885.158C3401.68 877.067 3401.91 868.45 3401.99 860.317Z"/><defs><linearGradient id="gradient_0" gradientUnits="userSpaceOnUse" x1="3460.5889" y1="868.05701" x2="3460.3872" y2="901.97852"><stop offset="0" stop-color="#000618"/><stop offset="1" stop-color="#061532"/></linearGradient></defs><path fill="url(#gradient_0)" d="M3449.79 869.892L3451.02 868.873C3457.48 868.382 3457.52 866.214 3462.7 867.624C3466.24 877.304 3469.5 887.084 3472.47 896.953C3467.89 902.336 3462.64 904.152 3456.22 900.118C3456.3 899.338 3456.37 898.557 3456.44 897.776C3457.19 888.243 3456.5 879.008 3450.06 871.431L3449.79 869.892Z"/><path fill="#A05DE1" d="M3401.99 860.317C3422.08 859.927 3434.57 856.861 3449.79 869.892L3450.06 871.431L3448.45 872.382L3447.52 871.413C3439.66 863.314 3419.02 857.2 3408.82 864.591C3404.35 867.826 3409.22 881.56 3403.99 887.186C3402.19 886.363 3402.98 886.934 3401.88 885.158C3401.68 877.067 3401.91 868.45 3401.99 860.317Z"/><path fill="#8657DB" d="M3402.26 896.235C3403.01 893.138 3403.08 890.882 3405.51 889.025C3409.16 891.749 3405.99 913.012 3409.96 920.961C3413.07 923.261 3417.21 922.734 3422.61 924.644L3402.29 924.667C3401.83 915.34 3402.13 905.602 3402.26 896.235Z"/><path fill="#01061E" d="M3416.72 871.274C3423.46 871.375 3429.46 870.967 3435.3 874.987C3447.45 883.341 3445.19 898.623 3437.54 909.476C3430.18 914.245 3424.57 913.428 3415.9 913.495C3415.75 904.978 3415.06 878.642 3416.72 871.274Z"/><path fill="#5E56DA" d="M2676.73 859.899L2689.14 859.983C2698.2 873.866 2708.49 888.311 2717.78 902.249C2717.16 894.383 2717.38 886.165 2717.42 878.249L2717.32 860.116L2730.95 860.073L2730.77 877.75C2731.09 887.242 2733.16 916.824 2729.19 924.316C2716.72 931.491 2706.11 903.252 2699.66 897.928C2697.42 899.205 2695.76 898.906 2693.31 898.484C2690.97 895.5 2691.13 890.775 2690.64 886.668C2689.94 896.729 2690.54 914.03 2690.58 924.456L2676.89 924.814C2677.09 903.176 2677.04 881.536 2676.73 859.899Z"/><path fill="#01061E" d="M2690.64 886.668L2691.41 885.644C2694.69 888.957 2697.23 893.836 2699.66 897.928C2697.42 899.205 2695.76 898.906 2693.31 898.484C2690.97 895.5 2691.13 890.775 2690.64 886.668Z"/><path fill="#8657DB" d="M3725.35 860.045L3742.34 860.047C3743.54 863.49 3744.68 867.665 3745.74 871.214C3751.9 888.115 3758.76 908.762 3765.82 925.003C3760.28 925.167 3754.48 926.151 3750.01 923.422C3749.29 922.008 3748.57 920.591 3747.86 919.169L3746.17 921.471C3741.8 919.991 3739.34 915.216 3733.21 916.062C3727.38 916.866 3724.48 921.181 3719.28 922.711L3718.56 918.685L3717.58 923.874C3714.37 925.091 3706.38 924.644 3702.48 924.607C3710.89 903.408 3717.08 881.275 3725.35 860.045Z"/><path fill="#A05DE1" d="M3725.35 860.045L3742.34 860.047C3743.54 863.49 3744.68 867.665 3745.74 871.214L3744.52 872.635C3741.11 867.017 3734.74 861.244 3728.11 865.963C3723.72 874.988 3707.28 911.001 3710.76 919.641C3713.56 920.502 3712.97 920.029 3716.54 918.365C3717.46 920.323 3717.41 921.733 3717.58 923.874C3714.37 925.091 3706.38 924.644 3702.48 924.607C3710.89 903.408 3717.08 881.275 3725.35 860.045Z"/><path fill="#01061E" d="M3721.7 910.681C3728.43 910.813 3738.02 908.98 3743.7 911.349C3746.3 912.433 3746.95 916.425 3747.86 919.169L3746.17 921.471C3741.8 919.991 3739.34 915.216 3733.21 916.062C3727.38 916.866 3724.48 921.181 3719.28 922.711L3718.56 918.685L3721.7 910.681Z"/><path fill="#01061E" d="M3733.13 874.662C3735.72 877.406 3742.3 896.408 3740.43 900.063L3737.25 900.263C3727.88 900.783 3723.89 900.605 3727.78 889.386C3729.47 884.517 3731.36 879.519 3733.13 874.662Z"/><path fill="#8657DB" d="M3104.42 859.977L3116.32 860.043C3125.4 874.303 3135.57 888.743 3145.14 902.745C3144.57 888.706 3144.9 874.257 3145.04 860.175L3158.08 860.334C3157.88 881.633 3158.41 903.006 3158.17 924.522C3156.75 924.616 3150.42 925.072 3149.69 924.733C3140.62 920.507 3123.81 891.891 3117.83 883.509C3118.21 896.946 3117.99 911.053 3117.98 924.546L3103.97 924.856C3103.96 903.229 3104.11 881.602 3104.42 859.977Z"/><path fill="#2474C9" d="M2404.22 860.31C2418.99 859.956 2451.91 855.929 2453.09 877.823C2453.47 884.394 2451.28 890.854 2446.97 895.834L2442.75 900.677C2441.05 903.388 2440.8 904.351 2437.83 905.543C2434.53 905.318 2431.96 904.379 2429.17 904.162C2426.13 901.575 2422.24 900.439 2418.97 903.099C2416.66 909.114 2417.68 918.123 2417.87 924.817L2403.79 924.83C2404.52 904.355 2403.74 881.505 2404.22 860.31Z"/><path fill="#01061E" d="M2417.78 870.946C2429.33 870.494 2445.4 871.85 2436.88 887.915C2432.48 890.619 2425.86 893.178 2420.9 890.872C2416.1 885.643 2417.55 878.397 2417.78 870.946Z"/><path fill="#8657DB" d="M3354.88 859.987L3371.91 859.995C3379.27 881.822 3387.08 903.497 3395.33 925.007L3380.16 924.931L3374.93 910.142C3367.17 910.232 3359.41 910.244 3351.64 910.179C3349.8 915.386 3348.75 921.147 3344.91 924.323C3341.75 925.446 3339.84 924.899 3336.39 924.538C3333.93 924.813 3335.02 925.151 3332.97 923.855C3333.11 918.97 3340.36 900.973 3342.57 895.141C3346.44 883.64 3350.45 871.267 3354.88 859.987Z"/><path fill="#01061E" d="M3362.46 874.55C3365.73 876.932 3371.4 895.299 3370.2 899.513L3367.25 899.849C3357.78 900.323 3353.87 900.203 3357.73 888.877C3359.3 884.282 3360.95 879.203 3362.46 874.55Z"/><path fill="#FDFDFD" d="M2147.64 774.125L2150.11 773.593C2154.65 775.405 2161.66 785.218 2164.09 789.57C2173.64 806.711 2136.2 831.901 2124.32 818.866C2127.62 818.893 2126.48 819.539 2128.33 817.779C2104.36 807.746 2103.11 779.878 2128.5 770.542C2131.62 769.398 2140.35 768.815 2143.31 770.401L2143.18 772.256C2144.48 772.834 2146.34 773.762 2147.64 774.125Z"/><path fill="#010526" d="M2147.64 774.125L2150.11 773.593C2154.65 775.405 2161.66 785.218 2164.09 789.57C2173.64 806.711 2136.2 831.901 2124.32 818.866C2127.62 818.893 2126.48 819.539 2128.33 817.779C2104.36 807.746 2103.11 779.878 2128.5 770.542C2131.62 769.398 2140.35 768.815 2143.31 770.401L2143.18 772.256C2101.4 769.945 2104.77 815.629 2135.59 815.76C2142.58 815.784 2149.3 813.082 2154.33 808.226C2165.38 797.336 2160.07 784.021 2149.26 775.423L2148.25 774.605C2148.05 774.445 2147.85 774.285 2147.64 774.125Z"/><path fill="#8657DB" d="M3462.7 867.624C3461.29 863.359 3460.66 863.919 3461.95 860.776C3465.61 859.013 3470.92 860.085 3475.36 860.015C3476.63 864.33 3478.14 870.01 3479.63 874.112C3480.52 870.089 3479.71 870.882 3482.27 868.64L3484.2 869.54L3485.53 874.487C3487.83 874.521 3501.26 874.868 3502.71 874.64L3507.6 860.108L3522.45 860.194C3515.23 880.54 3505.4 904.653 3499.66 924.727C3494.32 924.695 3488.19 924.8 3482.93 924.542L3472.47 896.953C3469.5 887.084 3466.24 877.304 3462.7 867.624Z"/><path fill="#010E30" d="M3479.63 874.112C3480.52 870.089 3479.71 870.882 3482.27 868.64L3484.2 869.54L3485.53 874.487C3487.83 874.521 3501.26 874.868 3502.71 874.64L3494.72 898.767C3493.82 901.942 3493.19 905.584 3491 907.911C3489.03 906.591 3489.72 907.425 3489.06 905.238C3486.11 894.806 3482.96 884.429 3479.63 874.112Z"/><path fill="#01061E" d="M3489.06 905.238C3488.88 901.51 3488.57 898.707 3491.16 895.825C3493.99 896.396 3492.68 895.717 3494.72 898.767C3493.82 901.942 3493.19 905.584 3491 907.911C3489.03 906.591 3489.72 907.425 3489.06 905.238Z"/><path fill="#2474C9" d="M2357.38 860.336L2374.05 860.271C2382.26 881.066 2388.77 903.392 2396.75 924.66L2382.65 924.864C2381.06 920.767 2378.36 912.052 2374.97 910.048L2353.23 910.15C2351.68 914.758 2350.22 919.943 2348.8 924.642L2333.75 924.724C2340.74 906.727 2349.45 875.928 2357.38 860.336Z"/><path fill="#010526" d="M2364.88 875.473C2367.51 879.196 2373.47 895.495 2371.86 899.724L2368.25 900.111C2363.92 900.247 2362.38 900.45 2358.21 899.609C2358.26 894.169 2362.91 881.104 2364.88 875.473Z"/><defs><linearGradient id="gradient_1" gradientUnits="userSpaceOnUse" x1="3533.0579" y1="872.91003" x2="3558.6394" y2="924.60181"><stop offset="0" stop-color="#8B4ED5"/><stop offset="1" stop-color="#A66DE7"/></linearGradient></defs><path fill="url(#gradient_1)" d="M3541.68 860.232L3558.7 860.26C3560.09 864.167 3561.4 868.346 3562.71 872.304C3567.17 884.297 3575.05 905.145 3578.42 916.963C3580.05 921.277 3580.63 920.604 3579.47 923.939C3574.87 926.966 3572.41 925.588 3567.3 924.185C3566.21 922.43 3566.3 922.983 3565.89 921.069C3564.31 918.268 3562.72 913.479 3561.53 910.319L3538.47 910.33C3536.81 914.134 3534.8 920.574 3533.39 924.708L3518.81 924.748C3522.8 913.015 3527.6 898.599 3532.29 887.266C3535.34 877.33 3537.86 869.895 3541.68 860.232Z"/><path fill="#935DE1" d="M3541.68 860.232L3558.7 860.26C3560.09 864.167 3561.4 868.346 3562.71 872.304L3561.31 874.142C3558.86 870.361 3560.84 867.253 3554.79 866.152C3540.83 863.615 3537.48 880.478 3533.86 888.181C3532.52 887.914 3533.02 888.258 3532.29 887.266C3535.34 877.33 3537.86 869.895 3541.68 860.232Z"/><path fill="#A05DE1" d="M3565.89 921.069L3566.37 919.953C3569.32 919.801 3572.07 921.454 3572.46 921.392C3577.6 920.568 3573.57 918.418 3578.42 916.963C3580.05 921.277 3580.63 920.604 3579.47 923.939C3574.87 926.966 3572.41 925.588 3567.3 924.185C3566.21 922.43 3566.3 922.983 3565.89 921.069Z"/><path fill="#01061E" d="M3549.27 875.402C3552.88 878.249 3558.45 894.904 3556.86 899.44L3553.25 899.729C3548.25 900.044 3545.19 901.508 3542.69 896.836C3542.36 892.154 3547.4 880.689 3549.27 875.402Z"/><defs><linearGradient id="gradient_2" gradientUnits="userSpaceOnUse" x1="3793.8486" y1="860.93195" x2="3798.7913" y2="922.578"><stop offset="0" stop-color="#9650D7"/><stop offset="1" stop-color="#B171EA"/></linearGradient></defs><path fill="url(#gradient_2)" d="M3796.39 859.3C3814.16 859.604 3820.06 865.459 3826.75 881.21L3825.95 881.239C3808.95 881.7 3816.63 878.92 3804.45 872.577C3788.33 864.184 3773.42 890.796 3785.43 905.439C3795.54 917.771 3810.55 918.748 3812.94 901.721C3810.68 897.802 3808.49 903 3801.63 899.942C3799.28 896.671 3800.03 895.728 3799.88 891.166C3803.48 890.312 3821.66 890.049 3826.25 889.915C3826.3 898.312 3827 905.564 3822.67 912.825C3809.48 935.676 3772.29 926.828 3768.94 900.873C3766.16 879.346 3773.24 863.009 3796.39 859.3Z"/><path fill="#8657DB" d="M2983.14 881.145C2983.4 880.433 2983.65 879.722 2983.91 879.01C2992.6 854.108 3028.52 851.552 3038.82 876.537C3039.84 879.008 3039.54 878.746 3038.51 880.81C3027.05 883.304 3026.13 878.94 3018.24 872.165C2989.99 866.435 2986.26 911.336 3011.49 914.177C3018.83 915.003 3024.81 909.299 3027.51 902.89L3026.86 901.047C3020.53 899.002 3018.07 902.254 3014.05 899.345C3013.72 895.754 3013.64 895.565 3014.7 892.192C3017.3 890.274 3036.63 889.66 3039.21 891.838C3039.83 899.419 3040.01 906.794 3035.85 913.513C3030.1 922.748 3019.33 927.677 3008.57 926.079C3000.37 924.912 2993.02 920.392 2988.28 913.6C2981.21 903.555 2981.22 892.632 2983.14 881.145Z"/><path fill="#935DE1" d="M2983.14 881.145C2983.4 880.433 2983.65 879.722 2983.91 879.01C2992.6 854.108 3028.52 851.552 3038.82 876.537C3039.84 879.008 3039.54 878.746 3038.51 880.81C3027.05 883.304 3026.13 878.94 3018.24 872.165C3023.29 870.252 3023.79 874.111 3030.86 874.071C3025.54 865.909 3026.64 867.059 3018.24 862.488C3000.19 862.374 2996.14 869.702 2985.37 883.02L2984.21 882.987L2983.14 881.145Z"/><path fill="#5E56DA" d="M3039.21 891.838C3039.83 899.419 3040.01 906.794 3035.85 913.513C3032.98 913.505 3030.61 914.585 3027.8 915.502L3027.14 914.792L3028.15 913.768C3033.45 908.346 3036.97 897.819 3030.23 892.549C3033.76 891.346 3033.11 894.882 3039.21 891.838Z"/><path fill="#A05DE1" d="M3836.76 860.068C3850.61 860.429 3864.64 859.487 3878.35 860.571C3880.19 860.718 3879.47 860.55 3880.88 862.289C3881.43 866.029 3881.43 866.235 3880.79 869.93C3875.47 873.097 3857.16 871.723 3850.12 871.573L3850.1 887.111C3857.45 887.089 3872.19 884.763 3877.28 889.611C3878.4 893.421 3878.42 891.575 3877.23 895.35C3871.95 899.898 3858.44 898.1 3850.46 897.977L3849.99 913.525C3857.68 913.789 3873.19 912.489 3879.42 915.421C3880.42 918.553 3880.43 921.348 3878.44 923.916C3871.82 925.04 3844.39 924.624 3836.68 924.663C3836.37 903.132 3836.4 881.598 3836.76 860.068Z"/><path fill="#5E56DA" d="M3049.86 859.953C3063.06 860.17 3076.79 859.696 3089.87 860.392C3093.05 860.562 3092.53 860.62 3093.88 862.381C3094.05 865.17 3094.38 866.532 3093.32 869.137C3088.48 872.728 3070.66 871.327 3063.33 871.27L3063.41 887.145C3072.22 887.417 3086.24 884.034 3091.29 891.326C3091.62 893.947 3092.03 894.924 3090.73 897.207C3084.66 898.693 3070.44 897.864 3063.38 897.73L3063.57 913.045L3094.07 912.997C3094.1 916.905 3094.45 920.154 3093.2 923.813C3087.19 925.354 3058.09 924.985 3049.85 925.016C3050.37 903.331 3050.37 881.637 3049.86 859.953Z"/><defs><linearGradient id="gradient_3" gradientUnits="userSpaceOnUse" x1="2239.825" y1="861.16718" x2="2248.6487" y2="923.19226"><stop offset="0" stop-color="#1F6FC1"/><stop offset="1" stop-color="#2A85DD"/></linearGradient></defs><path fill="url(#gradient_3)" d="M2262.57 903.265C2266.69 902.868 2272.3 901.529 2274.95 904.84C2276.58 920.399 2248.16 929.75 2234.22 922.638C2226.57 918.702 2220.91 911.741 2218.63 903.443C2216.01 893.756 2217.3 883.432 2222.21 874.681C2230.29 860.353 2247.74 853.637 2262.16 862.557C2271.05 867.359 2272.6 873.649 2276.04 882.81C2272.53 882.671 2266.08 882.748 2263.08 881.564L2261.93 879.946C2254.8 869.456 2242.8 867.708 2235.56 877.284C2222.41 894.661 2241.97 932.594 2262.57 903.265Z"/><path fill="#2B83D8" d="M2262.16 862.557C2271.05 867.359 2272.6 873.649 2276.04 882.81C2272.53 882.671 2266.08 882.748 2263.08 881.564L2261.93 879.946C2266.05 879.501 2267.63 879.639 2269.06 875.572C2267.29 871.008 2264.82 868.033 2261.74 864.232L2262.16 862.557Z"/><path fill="#8657DB" d="M3190.8 860.315C3211.39 857.079 3220.34 863.424 3227.37 882.567L3213.29 882.301C3212.27 880.444 3209.4 875.535 3208.93 873.805C3176.07 862.084 3173.76 913.554 3200.22 913.654C3206.98 913.679 3210.84 906.03 3216.28 903.292C3218.26 902.296 3224.88 902.702 3227.32 902.783C3226.17 905.659 3224.87 908.478 3223.45 911.23C3215.82 925.715 3197.67 929.368 3183.88 921.787C3161.71 909.594 3164.09 866.039 3190.8 860.315Z"/><path fill="#935DE1" d="M3190.8 860.315C3211.39 857.079 3220.34 863.424 3227.37 882.567L3213.29 882.301C3212.27 880.444 3209.4 875.535 3208.93 873.805C3213.09 873.348 3211.25 878.196 3217.36 880.854C3219.44 877.511 3220.06 873.837 3216.98 870.595C3208.57 861.745 3201.55 862.966 3191.63 860.527L3190.8 860.315Z"/><defs><linearGradient id="gradient_4" gradientUnits="userSpaceOnUse" x1="2796.6462" y1="883.08215" x2="2849.7625" y2="902.53229"><stop offset="0" stop-color="#574ADF"/><stop offset="1" stop-color="#7367E8"/></linearGradient></defs><path fill="url(#gradient_4)" d="M2801.3 860.31C2808.54 860.237 2841.76 858.525 2844.74 861.759C2844.96 864.548 2845.34 866.037 2844.31 868.654C2839.69 872.415 2821.76 871.413 2814.32 871.704C2814.23 877.045 2813.84 882.008 2813.44 887.327L2812.92 889.852C2814.82 892.477 2815.68 892.616 2815.52 895.096L2812.53 895.898C2812.83 898.051 2812.34 897.232 2813.51 898.747C2814.16 903.239 2813.9 909.11 2813.87 913.752L2845.5 913.168L2845.42 924.234C2831.01 924.179 2815.95 924.665 2801.49 924.923C2801.7 903.385 2801.64 881.846 2801.3 860.31Z"/><defs><linearGradient id="gradient_5" gradientUnits="userSpaceOnUse" x1="2586.3027" y1="916.46313" x2="2571.9834" y2="858.31055"><stop offset="0" stop-color="#2168CE"/><stop offset="1" stop-color="#307EE2"/></linearGradient></defs><path fill="url(#gradient_5)" d="M2590.21 859.901L2606.04 860.113L2590.42 885.581C2587.06 891.099 2583.96 896.97 2580.87 902.657C2581.28 909.461 2581.16 917.777 2581.25 924.701L2567.62 924.77L2567.71 902.069C2562.24 892.794 2547.78 869.162 2545.1 860.331L2560.18 860.272C2564.48 870.436 2569.05 878.735 2574.3 888.423C2579.69 878.964 2584.99 869.456 2590.21 859.901Z"/><path fill="#8657DB" d="M3235.97 859.923C3243.55 859.957 3275.84 858.794 3279.89 861.887C3280.62 865.804 3280.73 866.058 3280.14 869.928C3274.99 872.87 3256.26 871.369 3249.44 871.164L3249.57 887.147C3256.14 887.296 3273.55 885.521 3277.72 888.683C3278.13 892.242 3278.36 892.592 3276.78 895.612C3271.49 899.946 3257.58 897.754 3249.48 897.465C3249.5 903.194 3249.44 908.321 3249.17 914.041L3248.67 915.261L3249.23 916.885C3247.23 919.157 3248.42 918.529 3245.67 919.091C3243.88 918.008 3242.16 916.968 3240.32 915.956C3238.12 916.654 3238.77 916.206 3237.1 917.775L3236.15 922.609C3235.27 903.83 3235.99 879.092 3235.97 859.923Z"/><path fill="#8657DB" d="M3629.64 859.959L3644.04 860.02L3643.67 924.781L3631.18 925.056C3629.62 922.697 3625.73 917.162 3624.65 914.899C3618.11 906.372 3610.12 894.435 3604.23 885.401C3605.71 884.483 3608.41 883.354 3610.08 882.585L3610.87 881.79C3610.08 878.727 3609.19 876.941 3610.47 874.139C3615.53 880.842 3624.4 893.343 3628.44 900.751L3629.73 899.989C3630.64 892.679 3629.77 868.521 3629.64 859.959Z"/><path fill="#A05DE1" d="M3610.47 874.139C3615.53 880.842 3624.4 893.343 3628.44 900.751C3626.36 900.269 3627.35 900.268 3625.47 900.616L3623.62 899.894L3624.95 901.407C3624.17 904.042 3624.93 903.088 3622.87 904.539L3621.27 902.142L3620.8 903.038C3622.96 907.419 3625.36 910.475 3624.65 914.899C3618.11 906.372 3610.12 894.435 3604.23 885.401C3605.71 884.483 3608.41 883.354 3610.08 882.585L3610.87 881.79C3610.08 878.727 3609.19 876.941 3610.47 874.139Z"/><path fill="#A05DE1" d="M3652.61 860.054L3705.46 860.034L3705.38 871.464L3685.87 871.606C3685.54 882.967 3685.64 894.858 3685.57 906.266L3685.71 924.679L3671.79 924.49L3672.05 871.494L3652.52 871.644L3652.61 860.054Z"/><path fill="#2474C9" d="M2486.44 860.252L2539.06 860.213C2539.5 863.976 2539.76 867.99 2540.08 871.784L2519.17 872.268C2519.41 882.349 2519.06 893.59 2518.94 903.75L2518.7 924.244L2505.7 924.522C2505.27 907.027 2505.15 889.526 2505.33 872.027L2486.44 871.699L2486.44 860.252Z"/><path fill="#5E56DA" d="M2740.24 860.243C2757.62 860.447 2775.57 860.112 2792.99 860.01L2792.34 871.947L2772.99 872.07L2772.24 903.75L2772.29 924.94C2768.41 925.033 2763.11 925.633 2760.3 923.423C2758.74 912.924 2759.26 882.281 2759.51 871.157C2753.19 871.236 2746.04 873.259 2741.36 870.38C2739.25 867.388 2740.03 864.14 2740.24 860.243Z"/><path fill="#2474C9" d="M2285.6 860.064C2290.05 859.82 2294.54 859.02 2298.39 860.857C2299.35 862.954 2299.4 862.794 2299.14 865.069C2300.49 871.919 2299.05 904.225 2299.14 912.921L2316.54 912.992C2320.03 913.036 2324.6 912.84 2327.1 915.387C2326.9 919.207 2327.17 920.469 2325.25 923.587C2318.27 925.629 2293.78 924.879 2285.06 924.807C2284.91 909.477 2284.41 874.16 2285.6 860.064Z"/><path fill="#2B83D8" d="M2285.6 860.064C2290.05 859.82 2294.54 859.02 2298.39 860.857C2299.35 862.954 2299.4 862.794 2299.14 865.069C2296.87 866.254 2289.02 866.311 2286.44 865.18L2285.6 860.064Z"/><path fill="#5E56DA" d="M2856.46 860.254L2869.11 860.135C2869.16 877.974 2869.38 895.813 2869.77 913.648C2878.78 913.597 2889.62 910.938 2896.57 915.009C2898.45 918.473 2897.7 919.573 2897.52 923.931C2883.43 924.04 2869.34 924.241 2855.26 924.536C2855.13 903.908 2856.1 881.102 2856.46 860.254Z"/><path fill="#5E56DA" d="M2907.03 924.339C2907 916.466 2906.46 865.014 2909.32 860.916C2913.01 859.713 2914.09 860.032 2918.09 860.271C2920.52 862.252 2919.72 862.2 2920.19 866.558C2920.04 873.659 2920.72 891.143 2920.07 896.737C2920.5 901.706 2920.2 908.829 2920.13 913.977C2928.11 914.225 2944.44 911.025 2948.86 917.72C2948.75 921.839 2949.46 921.279 2947.32 923.478C2940.34 924.905 2915.45 924.302 2907.03 924.339Z"/><path fill="#8657DB" d="M2918.15 914.323C2914.6 901.33 2913 873.892 2916.74 862.677L2918.36 862.86L2920.19 866.558C2920.04 873.659 2920.72 891.143 2920.07 896.737C2919.25 899.833 2918.49 910.551 2918.15 914.323Z"/><path fill="#935DE1" d="M3589.41 860.214L3601.27 860.021C3604.49 864.736 3607.62 869.18 3610.47 874.139C3609.19 876.941 3610.08 878.727 3610.87 881.79L3610.08 882.585C3608.41 883.354 3605.71 884.483 3604.23 885.401L3602.48 886.197C3603.35 897.425 3602.91 913.122 3602.9 924.705L3588.94 924.881L3589.41 860.214Z"/><path fill="#8657DB" d="M3602.48 886.197L3601.64 883.56C3594.04 880.047 3592.01 877.368 3593.07 868.095C3595.46 864.751 3593.97 865.87 3597.4 864.269L3600.04 865.26C3606.36 871.6 3606.73 879.227 3610.08 882.585C3608.41 883.354 3605.71 884.483 3604.23 885.401L3602.48 886.197Z"/><path fill="#5E56DA" d="M2651.1 859.946L2665.88 859.91C2665.12 881.485 2664.88 903.076 2665.18 924.662L2651.08 925.015C2651.37 903.327 2651.38 881.635 2651.1 859.946Z"/><path fill="#2474C9" d="M2463.33 860.109L2477.17 859.959C2476.67 879.18 2478.01 901.174 2477 919.461L2477.09 923.002C2473.73 926.015 2467.91 924.975 2463.09 924.794C2461.97 911.501 2463.23 875.024 2463.33 860.109Z"/><path fill="#2B83D8" d="M2463.09 924.794C2463.24 921.866 2463.12 922.04 2464.77 919.635L2465.28 919.584L2464.46 917.38L2466.04 919.342L2469.41 919.434L2467.49 917.647L2467.93 916.599L2472.59 918.464C2474.96 915.973 2474.51 914.972 2475.46 911.033C2475.88 913.914 2476.43 916.606 2477 919.461L2477.09 923.002C2473.73 926.015 2467.91 924.975 2463.09 924.794Z"/><path fill="#5E56DA" d="M2957.98 860.13L2971.99 859.94L2971.56 924.716L2958.07 924.361C2958.2 902.812 2957.56 881.89 2957.98 860.13Z"/><path fill="#935DE1" d="M3249.17 914.041C3255.99 913.919 3275.43 912.318 3279.65 915.223C3280.52 918.258 3280.24 919.403 3279.99 922.501C3277.38 925.896 3240.58 925.809 3236.5 923.782L3236.15 922.609L3237.1 917.775C3238.77 916.206 3238.12 916.654 3240.32 915.956C3242.16 916.968 3243.88 918.008 3245.67 919.091C3248.42 918.529 3247.23 919.157 3249.23 916.885L3248.67 915.261L3249.17 914.041Z"/><path fill="#2474C9" d="M2442.75 900.677C2446.89 908.801 2451 917.079 2455.49 925.008L2439.63 925.015C2436.08 918.097 2432.59 911.146 2429.17 904.162C2431.96 904.379 2434.53 905.318 2437.83 905.543C2440.8 904.351 2441.05 903.388 2442.75 900.677Z"/><path fill="#5E56DA" d="M2813.44 887.327C2820.03 888.48 2839.12 886.298 2842.42 888.418C2842.99 892.05 2843.12 891.907 2841.7 895.21C2834.76 901.187 2819.79 894.829 2813.51 898.747C2812.34 897.232 2812.83 898.051 2812.53 895.898L2815.52 895.096C2815.68 892.616 2814.82 892.477 2812.92 889.852L2813.44 887.327Z"/><path fill="#010526" d="M3663.17 903.532C3664.97 903.488 3667.21 904.524 3669.06 905.168C3672.29 911.552 3666.03 913.123 3661.4 915.085C3660.47 915.035 3659.53 914.973 3658.6 914.901C3653.33 914.49 3653 914.336 3649.88 910.668C3649.67 907.348 3649.41 909.031 3651.65 905.669C3655.12 903.329 3658.82 903.716 3663.17 903.532Z"/><path fill="#A05DE1" d="M3895.74 910.606C3899.67 908.973 3904.19 910.867 3905.78 914.822C3907.38 918.776 3905.44 923.272 3901.47 924.828C3897.55 926.362 3893.13 924.456 3891.56 920.556C3889.99 916.656 3891.85 912.217 3895.74 910.606Z"/><path fill="#2474C9" d="M2610.98 910.596C2613.62 909.657 2616.56 910.241 2618.64 912.115C2620.72 913.989 2621.61 916.854 2620.95 919.577C2620.3 922.301 2618.2 924.446 2615.49 925.166C2611.54 926.218 2607.46 923.961 2606.24 920.05C2605.03 916.139 2607.12 911.967 2610.98 910.596Z"/><path fill="#935DE1" d="M3296.42 910.473C3300.3 909.374 3304.37 911.487 3305.7 915.294C3307.03 919.101 3305.16 923.286 3301.44 924.842C3298.83 925.936 3295.82 925.49 3293.64 923.684C3291.45 921.878 3290.45 919.01 3291.04 916.238C3291.62 913.465 3293.69 911.245 3296.42 910.473Z"/><path fill="#632BB8" d="M518.368 599.913C525.093 601.372 531.999 602.626 538.354 605.22C530.557 605.109 524.83 604.97 517.115 604.122C517.524 602.654 517.916 601.361 518.368 599.913Z"/></svg>