<?xml version="1.0" encoding="utf-8" ?><svg xmlns="http://www.w3.org/2000/svg" xmlns:xlink="http://www.w3.org/1999/xlink" width="2000" height="800" viewBox="0 0 2000 800"><path fill="#030B30" transform="scale(1.26263 1.19048)" d="M0 0L1584 0L1584 672L0 672L0 0Z"/><path fill="#2E46D0" transform="scale(1.26263 1.19048)" d="M273.771 271.623C291.99 294.676 300.137 324.102 296.369 353.241C287.27 426.199 214.022 457.949 149.656 428.429C185.624 436.664 212.165 437.964 245.248 417.133C246.649 416.258 248 415.307 249.297 414.285C214.8 383.98 180.083 353.928 145.149 324.13C147.309 320.228 160.555 305.59 164.308 301.279L259.772 383.628L259.913 404.919C297.342 366.505 296.979 317.517 273.771 271.623Z"/><path fill="#FEFEFE" transform="scale(1.26263 1.19048)" d="M316.807 303.247L332.544 303.213L366.688 353.958L366.7 303.289L383.587 303.279C383.667 329.144 384.186 357.325 383.453 383.017L368.854 383.133C356.991 365.911 345.215 348.63 333.526 331.29C333.697 348.533 333.701 365.778 333.538 383.021L316.762 383.047C316.388 356.816 316.774 329.559 316.807 303.247Z"/><path fill="#131A79" transform="scale(1.26263 1.19048)" d="M120.661 309.802C126.134 312.743 152.994 337.008 158.585 342.274L159.019 395.284C154.584 399.19 147.813 404.681 143.116 408.103C135.688 414.292 128.181 420.385 120.596 426.382C120.037 388.089 120.523 348.183 120.661 309.802Z"/><path fill="#FEFEFE" transform="scale(1.26263 1.19048)" d="M420.734 321.983C460.637 322.521 461.977 380.452 423.396 383.829C383.34 383.83 380.358 325.823 420.734 321.983Z"/><path fill="#030B30" transform="scale(1.26263 1.19048)" d="M420.865 334.189C438.847 336.181 439.746 365.74 423.031 371.361C404.694 369.936 403.284 338.788 420.865 334.189Z"/><path fill="#FEFEFE" transform="scale(1.26263 1.19048)" d="M606.401 302.551C624.435 301.206 638.399 305.778 641.837 325.748L626.132 326.027C618.576 305.637 588.796 320.563 602.532 331.006C611.86 338.097 642.529 337.762 643.099 357.035C643.639 375.295 630.935 382.548 615.069 383.788C595.721 384.167 583.484 378.938 579.924 358.3L595.882 358.193C600.015 369.663 605.405 370.558 616.898 369.411C621.944 368.908 627.494 363.744 625.678 358.991C621.432 347.879 600.223 349.736 591.29 342.447C586.821 338.8 583.418 336.627 582.22 330.501C580.045 313.076 592.211 305.117 606.401 302.551Z"/><path fill="#FEFEFE" transform="scale(1.26263 1.19048)" d="M544.438 322.014C561.197 322.597 570.802 328.511 570.831 346.883C570.85 358.873 570.716 370.993 570.646 382.992C567.506 383.013 557.558 383.427 555.46 382.491C555.352 380.322 555.319 378.567 554.871 376.431C552.862 377.457 551.055 378.754 549.169 379.982C537.874 387.331 525.511 385.024 518.43 373.896C506.271 341.314 555.373 351.628 554.356 339.684C548.487 330.246 539.382 331.586 534.229 340.834C529.051 340.504 523.878 340.094 518.713 339.602C523.397 325.924 531.172 323.067 544.438 322.014Z"/><path fill="#030B30" transform="scale(1.26263 1.19048)" d="M551.612 356L553.237 355.622C554.543 357.206 554.707 358.694 554.393 360.761C552.893 370.652 546.363 373.248 537.839 372.182C534.963 370.569 533.328 368.751 532.372 365.616C532.678 357.841 545.688 356.829 551.612 356Z"/><path fill="#FEFEFE" transform="scale(1.26263 1.19048)" d="M671.704 322.63C673.761 322.451 675.82 322.319 677.883 322.234C701.348 321.429 706.822 337.669 707.286 357.248L665.623 357.051C669.282 372.597 677.311 375.807 691.327 365.982C694.273 363.917 695.405 364.777 698.573 365.212L707.292 366.047L707.038 366.615C695.962 391.084 659.87 389.622 651.729 364.488C645.997 346.794 652.769 328.813 671.704 322.63Z"/><path fill="#030B30" transform="scale(1.26263 1.19048)" d="M675.1 334.161C681.894 333.737 693.431 337.181 690.41 345.54C687.594 347.16 686.685 346.598 683.164 346.566C677.622 346.725 671.723 347.54 667.001 344.698C664.78 340.33 671.621 336.046 675.1 334.161Z"/><path fill="#FEFEFE" transform="scale(1.26263 1.19048)" d="M746.815 321.846C776.89 319.362 769.677 363.182 769.534 382.953L752.672 382.984C752.784 372.833 758.433 319.601 735.472 339.085C735.362 339.317 735.253 339.548 735.143 339.78L734.972 340.192C732.071 347.042 733.257 373.768 733.341 383.105L716.705 383.179L716.742 322.681L732.095 322.678L732.552 331.827C737.225 325.342 739.251 323.649 746.815 321.846Z"/><defs><linearGradient id="gradient_0" gradientUnits="userSpaceOnUse" x1="248.36453" y1="373.40582" x2="249.20468" y2="302.26276"><stop offset="0" stop-color="#072D8E"/><stop offset="1" stop-color="#187ACC"/></linearGradient></defs><path fill="url(#gradient_0)" transform="scale(1.26263 1.19048)" d="M248.022 298.61C251.656 294.956 255.338 291.227 259.785 288.539C259.8 292.464 259.913 296.792 259.821 300.678L259.858 378.239C255.547 374.592 251.36 371.091 247.265 367.189C241.136 361.872 234.249 356.447 228.481 350.879C225.663 339.883 225.773 328.343 227.808 317.237C231.513 312.504 243.097 301.445 248.022 298.61Z"/><path fill="#131A79" transform="scale(1.26263 1.19048)" d="M227.808 317.237C231.513 312.504 243.097 301.445 248.022 298.61C246.66 301.234 244.948 304.323 243.75 306.974C237.156 320.449 236.416 339.454 241.529 353.472C243.147 357.91 246.028 363.294 247.265 367.189C241.136 361.872 234.249 356.447 228.481 350.879C225.663 339.883 225.773 328.343 227.808 317.237Z"/><path fill="#267BD8" transform="scale(1.26263 1.19048)" d="M248.022 298.61C251.656 294.956 255.338 291.227 259.785 288.539C259.8 292.464 259.913 296.792 259.821 300.678C250.732 302.932 250.632 310.17 244.512 308.442L243.75 306.974C244.948 304.323 246.66 301.234 248.022 298.61Z"/><path fill="#FEFEFE" transform="scale(1.26263 1.19048)" d="M453.636 322.808L470.934 322.676C473.896 335.244 479.991 353.578 484.022 366.181C488.304 351.698 492.67 337.24 497.118 322.807C502.816 322.837 508.513 322.835 514.211 322.802L509.815 335.656C504.121 351.404 498.583 367.207 493.201 383.064L474.768 383L460.632 343.72C458.77 338.545 454.563 327.732 453.636 322.808Z"/><path fill="#FEFEFE" transform="scale(1.26263 1.19048)" d="M220.759 203.986C222.278 205.887 222.447 213.066 222.75 215.862C228.005 264.363 221.185 262.475 268.792 269.984C257.111 272.89 245.081 272.742 233.767 277.305C221.74 282.156 225.106 320.287 220.76 324.941C214.308 273.514 221.722 278.359 171.051 269.997C182.618 268.313 213.208 267.273 215.252 253.391C217.6 237.445 219.08 220.127 220.759 203.986Z"/><path fill="#FEFEFE" transform="scale(1.26263 1.19048)" d="M782.649 307.823L799.019 307.899L798.988 322.86L810.314 322.9L810.261 334.919L799.041 334.847C798.98 343.824 798.332 357.63 799.476 366.55C800.217 372.32 804.396 369.077 808.549 371.372C810.571 374.082 810.627 378.266 811.021 381.739C807.834 384.684 795.394 383.715 791.463 382.014C775.064 374.917 786.765 347.754 781.951 335.761C780.105 334.472 776.397 334.883 773.928 334.902L773.718 322.912L782.676 322.946L782.649 307.823Z"/><path fill="#6827C1" transform="scale(1.26263 1.19048)" d="M74.1755 325.001C80.0288 265.738 123.66 223.348 184.673 229.491C192.723 230.256 200.678 231.81 208.424 234.13C173.619 231.954 143.761 236.111 116.289 260.326C97.4099 276.942 85.8499 300.334 84.12 325.422C81.3665 325.479 77.0452 325.135 74.1755 325.001Z"/><path fill="#6827C1" transform="scale(1.26263 1.19048)" d="M120.685 263.957C134.855 275.183 150.606 289.299 164.308 301.279C160.555 305.59 147.309 320.228 145.149 324.13L120.447 303.108C120.616 290.067 120.473 277.044 120.685 263.957Z"/><path fill="#FEFEFE" transform="scale(1.26263 1.19048)" d="M822.361 322.858L834.521 322.757C834.543 338.033 835.476 368.052 834.194 382.167C832.394 383.273 828.977 382.943 826.683 382.928L817.774 382.938C817.858 374.428 816.558 325.931 819.067 323.043L822.361 322.858Z"/><path fill="#131A79" transform="scale(1.26263 1.19048)" d="M74.1755 325.001C77.0452 325.135 81.3665 325.479 84.12 325.422C82.2319 349.335 90.1121 374.283 103.952 393.726C108.828 400.575 114.219 405.853 119.139 412.583C89.806 388.206 73.8597 364.567 74.1755 325.001Z"/><path fill="#8657DB" transform="scale(1.26263 1.19048)" d="M1315.67 335.972C1315.63 335.172 1315.84 334.251 1315.97 333.436C1320.06 330.511 1329.64 332.662 1333.59 335.912C1337.79 341.48 1339.59 349.545 1333.11 354.121C1327.15 358.331 1322.46 357.716 1315.65 357.53C1315.65 350.565 1315.49 342.876 1315.67 335.972Z"/><path fill="#030B30" transform="scale(1.26263 1.19048)" d="M1320.44 341.657C1320.67 339.637 1320.64 339.146 1321.95 337.531C1324.05 336.453 1326.52 337.373 1328.9 337.928C1333.17 343.853 1331.98 352.06 1324.53 353.841C1321.81 353.141 1322.72 353.776 1321.11 351.454C1321.07 349.3 1321.14 343.473 1320.44 341.657Z"/><path fill="#9E6AE0" transform="scale(1.26263 1.19048)" d="M1315.67 335.972C1315.63 335.172 1315.84 334.251 1315.97 333.436C1320.06 330.511 1329.64 332.662 1333.59 335.912L1331.63 338.108C1330.6 338.083 1329.93 338.114 1328.9 337.928C1326.52 337.373 1324.05 336.453 1321.95 337.531C1320.64 339.146 1320.67 339.637 1320.44 341.657C1318.52 342.936 1319.23 342.887 1317.44 342.571C1316.19 341.003 1315.98 338.053 1315.67 335.972Z"/><path fill="#131A79" transform="scale(1.26263 1.19048)" d="M1403.67 331.799C1408.93 331.26 1429.59 330.128 1433.59 332.447C1434.36 333.999 1434.71 335.611 1433.41 337.131C1431.11 337.115 1427.77 336.892 1425.72 337.619C1425.24 338.352 1424.36 339.097 1423.7 339.719C1421.32 339.312 1422.01 339.427 1420.03 337.488L1420.01 340.339C1415.42 341.776 1413.24 342.813 1409.17 345.483C1409.26 348.995 1409.84 353.582 1408.13 356.459C1403.59 359.327 1400.24 352.05 1398.07 348.624L1402.02 346.365L1402.96 346.761L1403.41 346.453C1403.91 342.67 1403.69 335.849 1403.67 331.799Z"/><path fill="#8657DB" transform="scale(1.26263 1.19048)" d="M1403.67 331.799L1408.65 332.855C1409.46 336.955 1409.22 341.285 1409.17 345.483C1409.26 348.995 1409.84 353.582 1408.13 356.459C1403.59 359.327 1400.24 352.05 1398.07 348.624L1402.02 346.365L1402.96 346.761L1403.41 346.453C1403.91 342.67 1403.69 335.849 1403.67 331.799Z"/><path fill="#9E6AE0" transform="scale(1.26263 1.19048)" d="M1403.67 331.799L1408.65 332.855C1408.26 337.083 1409.05 342.878 1407.93 345.626C1405.9 347.197 1406.6 346.755 1403.41 346.453C1403.91 342.67 1403.69 335.849 1403.67 331.799Z"/><path fill="#9E6AE0" transform="scale(1.26263 1.19048)" d="M1420.03 337.488C1416.74 337 1413.99 338.102 1412.84 334.466C1415.76 331.122 1428.62 331.54 1432.51 333.659C1432.96 333.905 1433.28 336.47 1433.41 337.131C1431.11 337.115 1427.77 336.892 1425.72 337.619C1425.24 338.352 1424.36 339.097 1423.7 339.719C1421.32 339.312 1422.01 339.427 1420.03 337.488Z"/><path fill="#7165DF" transform="scale(1.26263 1.19048)" d="M1205.85 354.925L1205.63 356.597C1203.83 358.206 1202.42 358.094 1200.72 356.714C1200.15 352.247 1199.04 334.701 1202.71 332.49C1206.77 333.411 1212.91 343.951 1216.04 348.043C1216.02 345.075 1215.55 335.093 1216.79 333.168C1219.16 332.324 1218.21 332.306 1220.4 333.067C1220.57 333.425 1220.72 333.793 1220.85 334.17C1222.19 338.153 1223.75 355.383 1218.09 356.976C1215.41 356.243 1213.88 353.519 1212.18 351.217C1209.14 351.714 1207.11 351.492 1205.85 354.925Z"/><path fill="#131A79" transform="scale(1.26263 1.19048)" d="M1205.86 341.797L1212.18 351.217C1209.14 351.714 1207.11 351.492 1205.85 354.925L1205.86 341.797Z"/><path fill="#2970CC" transform="scale(1.26263 1.19048)" d="M929.725 332.595C935.654 332.435 944.132 331.458 948.21 336.389C949.151 342.375 945.156 346.576 945.697 349.796L945.652 350.275C943.523 349.274 942.248 349.821 939.938 350.371C938.404 348.779 939.1 349.295 936.592 348.633C933.223 351.147 937.735 356.89 931.041 358.24C928.57 355.602 929.635 336.953 929.725 332.595Z"/><path fill="#030B30" transform="scale(1.26263 1.19048)" d="M935.15 336.452C937.877 336.593 940.754 336.802 942.682 338.749C943.486 341.78 943.362 340.716 942.297 343.925C939.017 344.415 938.581 345.007 935.81 343.885C934.525 341.954 935.023 338.882 935.15 336.452Z"/><path fill="#267BD8" transform="scale(1.26263 1.19048)" d="M909.677 351.92C909.395 353.964 909.385 355.574 907.955 357.079C905.9 357.574 905.651 357.557 903.626 356.944C902.97 354.696 909.776 333.192 913.798 332.506C919.985 331.45 921.652 342.72 923.225 347.43C924.365 350.305 926.108 353.519 925.327 356.38L924.224 357.724C920.478 357.02 920.217 355.234 918.767 351.899L909.677 351.92Z"/><path fill="#2970CC" transform="scale(1.26263 1.19048)" d="M909.677 351.92C909.825 349.583 912.473 341.967 915.208 341.276C917.01 343.086 917.641 346.361 918.376 348.904C921.092 348.96 921.438 349.236 923.225 347.43C924.365 350.305 926.108 353.519 925.327 356.38L924.224 357.724C920.478 357.02 920.217 355.234 918.767 351.899L909.677 351.92Z"/><path fill="#8657DB" transform="scale(1.26263 1.19048)" d="M1363.47 349.993C1365.14 344.882 1367.65 333.055 1373.45 332.446C1378.3 335.121 1379.41 341.308 1381.14 346.666C1382.1 349.303 1384.34 354.551 1384.2 357.089L1382.53 358.335C1376.76 356.364 1378.51 348.931 1370.56 352.686C1366.54 354.585 1366.14 357.377 1362.14 357.557L1361.45 356.576C1362.04 353.733 1362.38 352.7 1363.47 349.993Z"/><path fill="#9E6AE0" transform="scale(1.26263 1.19048)" d="M1376.16 347.76L1381.14 346.666C1382.1 349.303 1384.34 354.551 1384.2 357.089L1382.53 358.335C1376.76 356.364 1378.51 348.931 1370.56 352.686C1366.54 354.585 1366.14 357.377 1362.14 357.557L1361.45 356.576C1362.04 353.733 1362.38 352.7 1363.47 349.993C1365.58 349.562 1367.56 348.821 1369.6 348.122L1376.16 347.76Z"/><path fill="#030B30" transform="scale(1.26263 1.19048)" d="M1372.85 338.06L1376.16 347.76L1369.6 348.122L1372.85 338.06Z"/><path fill="#8657DB" transform="scale(1.26263 1.19048)" d="M1440.59 332.478C1442.68 332.449 1444.44 332.587 1446.52 332.743C1448.38 334.098 1455.63 354.893 1454.76 357.941L1453.32 358.211L1454.25 358.26C1449.73 357.538 1449.68 355.882 1448.17 351.98L1440.42 352.123C1438.24 353.576 1438.61 354.071 1437.4 356.982C1435.1 358.048 1435.71 357.718 1432.86 357.304C1432.06 355.338 1439.3 336.17 1440.59 332.478Z"/><path fill="#2970CC" transform="scale(1.26263 1.19048)" d="M987.682 332.453C994.319 331.012 1001.18 330.917 1007.85 332.174C1005.45 337.236 1000.57 343.048 998.635 348.211C998.297 349.113 998.563 354.293 998.146 356.796C995.911 357.809 996.579 357.522 993.941 357.295C992.131 354.958 993.507 350.401 992.591 348.026C990.865 343.553 984.63 337.83 985.334 332.791L987.682 332.453Z"/><path fill="#131A79" transform="scale(1.26263 1.19048)" d="M987.682 332.453C994.319 331.012 1001.18 330.917 1007.85 332.174C1005.94 332.311 1004.64 332.459 1002.76 332.756C999.354 335.205 997.685 339.634 995.658 343.524C993.313 339.715 991.944 333.765 987.682 332.453Z"/><path fill="#8657DB" transform="scale(1.26263 1.19048)" d="M1291.18 349.977C1293.04 344.387 1295.23 335.689 1299.83 332.224C1306.39 330.697 1309.4 350.58 1312.19 355.429C1312.35 355.715 1312.29 356.772 1312.27 357.12C1309.52 358.357 1310.49 358.405 1307.98 357.618C1301.85 348.094 1305.63 353.822 1296.58 351.458C1294.58 349.363 1293.87 349.942 1291.18 349.977Z"/><path fill="#8657DB" transform="scale(1.26263 1.19048)" d="M1179.47 332.53C1184.37 332.601 1193.1 331.61 1196.31 333.782L1196.49 335.627C1194.08 339.008 1188.29 335.473 1185.09 337.728C1184.59 339.819 1184.4 340.278 1185.35 342.303C1187.47 343.978 1190.88 342.826 1194.62 343.269L1195.6 344.513L1195.34 346.492C1192.34 348.477 1189.24 345.779 1185.73 347.835C1184.41 350.146 1184.9 350.031 1185.09 353.179C1189.39 353.127 1192.59 352.768 1196.56 354.479L1196.63 355.614C1190.36 358.407 1186.28 357.778 1179.42 357.614C1179.73 349.436 1179.52 340.748 1179.47 332.53Z"/><path fill="#9E6AE0" transform="scale(1.26263 1.19048)" d="M1179.42 357.614C1179.88 355.444 1180.01 354.856 1180.94 352.784C1183.14 351.971 1182.41 352.168 1185.09 353.179C1189.39 353.127 1192.59 352.768 1196.56 354.479L1196.63 355.614C1190.36 358.407 1186.28 357.778 1179.42 357.614Z"/><path fill="#8657DB" transform="scale(1.26263 1.19048)" d="M1354.64 338.039C1355.22 336.001 1355.5 333.825 1357.06 332.629C1359.35 332.765 1359.76 332.405 1361.39 333.579C1360.6 339.203 1355.83 355.736 1350.06 357.806C1345.71 356.868 1345.11 353.594 1343.98 349.572L1341.2 341.726C1343.42 340.334 1343.89 340.468 1346.52 340.756L1346.49 340.154C1347.37 340.017 1353.08 338.389 1354.64 338.039Z"/><path fill="#131A79" transform="scale(1.26263 1.19048)" d="M1346.49 340.154C1347.37 340.017 1353.08 338.389 1354.64 338.039C1353.71 341.052 1351.94 348.623 1349.72 350.056C1349.42 349.373 1348.77 347.986 1348.57 347.345L1343.98 349.572L1341.2 341.726C1343.42 340.334 1343.89 340.468 1346.52 340.756L1346.49 340.154Z"/><path fill="#9E6AE0" transform="scale(1.26263 1.19048)" d="M1341.2 341.726C1343.42 340.334 1343.89 340.468 1346.52 340.756L1348.57 347.345L1343.98 349.572L1341.2 341.726Z"/><path fill="#FEFEFE" transform="scale(1.26263 1.19048)" d="M823.177 298.692C827.745 297.086 832.759 299.425 834.463 303.956C836.166 308.488 833.935 313.55 829.44 315.35C826.445 316.549 823.037 316.035 820.53 314.006C818.023 311.976 816.81 308.75 817.359 305.572C817.908 302.394 820.134 299.762 823.177 298.692Z"/><path fill="#2970CC" transform="scale(1.26263 1.19048)" d="M952.544 347.728C952.504 343.188 952.018 335.715 954.703 332.108L955.815 332.218C958.797 337.184 958.807 353.35 957.822 358.307L944.454 358.392C942.484 356.48 941.13 352.952 939.938 350.371C942.248 349.821 943.523 349.274 945.652 350.275L945.697 349.796C948.965 349.938 950.521 350.358 952.544 347.728Z"/><path fill="#131A79" transform="scale(1.26263 1.19048)" d="M945.697 349.796C948.965 349.938 950.521 350.358 952.544 347.728L952.747 348.706C952.621 352.264 951.981 354.098 953.493 356.975C955.304 357.725 955.902 357.912 957.822 358.307L944.454 358.392C942.484 356.48 941.13 352.952 939.938 350.371C942.248 349.821 943.523 349.274 945.652 350.275L945.697 349.796Z"/><path fill="#267BD8" transform="scale(1.26263 1.19048)" d="M939.938 350.371C942.248 349.821 943.523 349.274 945.652 350.275C947.115 353.047 948.579 354.534 948.094 357.142C946.741 357.67 945.853 358.008 944.454 358.392C942.484 356.48 941.13 352.952 939.938 350.371Z"/><path fill="#267BD8" transform="scale(1.26263 1.19048)" d="M952.747 348.706L956.087 348.398C958.575 351.145 957.033 353.936 957.822 358.307C955.902 357.912 955.304 357.725 953.493 356.975C951.981 354.098 952.621 352.264 952.747 348.706Z"/><path fill="#8657DB" transform="scale(1.26263 1.19048)" d="M1251.43 332.519C1255.88 332.487 1267.58 331.083 1269.28 335.203C1266.38 339.734 1261.55 334.941 1256.88 337.955C1256.67 340.799 1256.36 340.028 1257.48 342.457C1260.35 344.27 1262.8 342.324 1266.9 343.316C1267.94 344.932 1267.72 344.157 1267.32 346.54C1264.26 348.27 1262.87 345.982 1258.2 347.533C1256.24 349.708 1256.89 349.472 1256.87 353.261C1252.75 353.571 1252.47 353.004 1251.25 357.343C1251.76 350.464 1251.45 339.709 1251.43 332.519Z"/><path fill="#2970CC" transform="scale(1.26263 1.19048)" d="M968.885 337.018C965.821 337.09 964.153 337.645 961.771 336.262L961.07 334.776C963.952 331.195 976.492 332.455 981.003 332.66L982.046 333.676L981.962 336.326C979.815 337.863 974.732 336.297 974.237 341.571C973.68 347.503 974.63 351.205 973.789 357.529C972.826 357.512 971.377 357.323 970.374 357.227C967.911 354.617 968.898 341.391 968.885 337.018Z"/><path fill="#267BD8" transform="scale(1.26263 1.19048)" d="M968.885 337.018C971.102 335.267 970.148 335.532 972.527 335.565C974.872 338.551 972.904 351.979 973.789 357.529C972.826 357.512 971.377 357.323 970.374 357.227C967.911 354.617 968.898 341.391 968.885 337.018Z"/><path fill="#8657DB" transform="scale(1.26263 1.19048)" d="M1153.47 340.421L1158.61 341.191C1157.27 359.909 1171.06 352.88 1169.93 348.542C1167.77 348.154 1167.36 348.034 1165.32 347.213L1165.15 345.916L1166.59 344.45C1169.13 344.317 1172.08 343.965 1174.45 344.724C1175.39 346.08 1175.8 346.212 1175.69 347.87C1175.1 357.089 1163.53 362.93 1157.09 354.755C1152.68 349.163 1153.07 346.809 1153.47 340.421Z"/><path fill="#9E6AE0" transform="scale(1.26263 1.19048)" d="M1483.6 341.32C1484.84 338.128 1485.6 338.418 1488.55 337.364C1489.02 340.991 1488.41 340.752 1490.47 343.001C1495.52 344.353 1495.8 339.806 1499.77 345.018L1499.4 346.113C1495.75 347.143 1491.99 346.857 1489.61 348.774C1488.53 350.929 1488.71 349.981 1488.91 352.368C1493.96 355.345 1498.7 350.806 1500.94 355.41C1498.92 358.745 1487.8 357.579 1483.67 357.553L1483.6 341.32Z"/><path fill="#9E6AE0" transform="scale(1.26263 1.19048)" d="M1388.03 341.589C1387.89 337.584 1387.32 335.535 1389.82 332.783L1391.77 332.859C1394.55 334.32 1396.24 337.522 1398.02 340.208L1402.02 346.365L1398.07 348.624L1394.3 343.277L1393.13 343.274C1393.43 347.21 1394.79 355.484 1390.58 357.816C1387.06 355.962 1387.91 352.437 1388.03 348.843L1388.03 341.589Z"/><path fill="#8657DB" transform="scale(1.26263 1.19048)" d="M1388.03 341.589C1387.89 337.584 1387.32 335.535 1389.82 332.783L1391.77 332.859C1394.55 334.32 1396.24 337.522 1398.02 340.208C1393.52 340.279 1392.41 340.297 1388.03 341.589Z"/><path fill="#8657DB" transform="scale(1.26263 1.19048)" d="M1393.13 343.274C1393.43 347.21 1394.79 355.484 1390.58 357.816C1387.06 355.962 1387.91 352.437 1388.03 348.843L1391.49 349.438L1392.61 348.584L1393.13 343.274Z"/><path fill="#7165DF" transform="scale(1.26263 1.19048)" d="M1051.13 341.998C1050.92 339.148 1050.1 334.041 1052.4 331.965C1058.25 332.664 1056.88 353.45 1055.94 357.996C1049.38 357.975 1046.01 350.042 1042.8 344.869C1044.25 343.335 1044.82 343.239 1046.75 342.594C1047.77 344.022 1048.86 345.336 1049.97 346.701L1050.76 346.262L1051.13 341.998Z"/><path fill="#2E46D0" transform="scale(1.26263 1.19048)" d="M1051.13 341.998C1050.92 339.148 1050.1 334.041 1052.4 331.965C1058.25 332.664 1056.88 353.45 1055.94 357.996C1054.72 352.025 1057.33 345.482 1054.21 341.825L1051.13 341.998Z"/><path fill="#7165DF" transform="scale(1.26263 1.19048)" d="M1104.46 346.661C1104.38 342.581 1103.79 335.41 1106.38 332.148L1107.53 332.262C1110.88 336.982 1110.15 347.616 1109.62 353.25C1112.33 353.19 1119.62 352.644 1120.86 355.349C1116.63 358.259 1109.54 357.663 1104.44 357.577L1104.46 346.661Z"/><path fill="#8657DB" transform="scale(1.26263 1.19048)" d="M1104.46 346.661C1104.38 342.581 1103.79 335.41 1106.38 332.148L1107.53 332.262C1110.88 336.982 1110.15 347.616 1109.62 353.25C1109.46 350.598 1109.48 347.89 1108.41 345.475L1106.89 345.089L1104.46 346.661Z"/><path fill="#9E6AE0" transform="scale(1.26263 1.19048)" d="M1462.18 345.485C1463.3 349.776 1465.45 353.887 1470.54 353.968C1473.17 352.543 1472.4 352.963 1474.12 350.19L1474.04 348.715C1472.43 348.268 1471.23 347.993 1469.59 347.686L1469.2 346.444L1470.25 344.603C1473.45 343.944 1475.41 344.191 1478.61 344.399C1479.82 345.703 1479.92 347.53 1479.89 349.303C1479.84 351.583 1478.84 353.738 1477.12 355.243C1470.09 361.424 1460.37 356.951 1457.09 348.338C1458.04 346.152 1459.74 344.419 1462.18 345.485Z"/><path fill="#8657DB" transform="scale(1.26263 1.19048)" d="M1225.33 342.771L1230.58 343.355C1230.89 347.111 1231.13 349.56 1233.88 352.164C1239.14 354.462 1241.86 350.182 1246.94 349.021C1247.29 351.051 1245.81 353.472 1244.63 355.067C1240.52 360.629 1234.15 358.683 1229.7 354.688C1225.55 350.962 1225.64 347.887 1225.33 342.771Z"/><path fill="#2E46D0" transform="scale(1.26263 1.19048)" d="M1067.15 337.061C1063.69 337.052 1062.45 337.593 1059.67 336.01L1059.37 334.673C1062.18 331.775 1076.4 331.295 1079.62 333.513C1079.84 335.254 1080.01 335.546 1079.29 337.059C1075.87 336.389 1076.9 336.07 1074.21 337.535C1071.9 340.385 1072.53 342.426 1072.12 346.411L1067.24 346.316L1067.15 337.061Z"/><path fill="#7165DF" transform="scale(1.26263 1.19048)" d="M1067.15 337.061L1070.18 336.26L1071.42 336.989C1072.38 341.034 1071.31 343.315 1072.12 346.411L1067.24 346.316L1067.15 337.061Z"/><path fill="#267BD8" transform="scale(1.26263 1.19048)" d="M857.35 343.968C859.484 344.058 861.767 343.645 862.853 345.986C866.673 359.487 873.421 349.195 879.168 349.497C879.206 361.468 858.554 362.615 857.35 343.968Z"/><path fill="#8657DB" transform="scale(1.26263 1.19048)" d="M1457.09 348.338C1457.39 341.785 1457.54 338.779 1462.96 334.251C1468.13 329.939 1473.72 330.281 1477.24 336.288C1478.09 337.747 1479.01 338.907 1478.56 340.486C1469.44 337.735 1464.95 333.71 1462.18 345.485C1459.74 344.419 1458.04 346.152 1457.09 348.338Z"/><path fill="#8657DB" transform="scale(1.26263 1.19048)" d="M1143.79 345.63C1143.68 340.56 1142.58 334.669 1147.25 331.617L1148.49 332.442C1149.5 334.022 1149.23 335.568 1149.21 337.516C1149.32 342.636 1149.88 352.286 1148.83 356.913C1146.37 357.595 1147.39 357.587 1144.95 356.98C1143.14 354.658 1143.76 348.98 1143.79 345.63Z"/><path fill="#7165DF" transform="scale(1.26263 1.19048)" d="M1143.79 345.63C1143.68 340.56 1142.58 334.669 1147.25 331.617L1148.49 332.442C1149.5 334.022 1149.23 335.568 1149.21 337.516C1148.94 340.026 1148.75 342.021 1148.2 344.485C1146.11 346.036 1146.78 345.589 1143.79 345.63Z"/><path fill="#2E46D0" transform="scale(1.26263 1.19048)" d="M1025.25 332.297C1027.39 332.354 1028.18 332.504 1030.24 332.913C1031.29 334.819 1030.82 354.054 1030.81 357.674C1028.98 357.799 1028.22 357.976 1026.52 357.173C1024.36 353.225 1025.38 338.178 1025.25 332.297Z"/><path fill="#2970CC" transform="scale(1.26263 1.19048)" d="M857.35 343.968C860.636 330.515 874.942 326.496 879.782 340.285C875.703 343.967 872.425 334.84 865.611 338.062C863.454 340.573 863.135 342.655 862.853 345.986C861.767 343.645 859.484 344.058 857.35 343.968Z"/><defs><linearGradient id="gradient_1" gradientUnits="userSpaceOnUse" x1="1228.1787" y1="336.35703" x2="1245.0383" y2="340.31482"><stop offset="0" stop-color="#6A4BD3"/><stop offset="1" stop-color="#8B6DE4"/></linearGradient></defs><path fill="url(#gradient_1)" transform="scale(1.26263 1.19048)" d="M1225.33 342.771C1230.52 327.124 1248.09 331.139 1247.04 340.833L1246.09 341.644C1241.09 341.094 1235.33 330.814 1230.58 343.355L1225.33 342.771Z"/><path fill="#2E46D0" transform="scale(1.26263 1.19048)" d="M1035.31 348.641C1035.29 343.658 1034.1 336.045 1037.65 332.591L1039.32 332.942C1042.53 335.213 1044.61 339.205 1046.75 342.594C1044.82 343.239 1044.25 343.335 1042.8 344.869L1041.07 343.081C1039.99 344.426 1040.44 346.66 1040.47 348.771L1035.31 348.641Z"/><path fill="#2E46D0" transform="scale(1.26263 1.19048)" d="M1083.49 340.17C1085.15 340.198 1085.79 340.092 1087.44 339.81L1088.68 337.716L1088.79 341.521C1092.72 345.201 1094.95 341.871 1098.83 343.744C1099.37 346.003 1099.5 345.197 1098.7 347.006C1093.75 348.261 1091.49 344.962 1088.56 349.345L1088.62 353.26L1082.85 354.084C1083.86 350.411 1083.53 344.186 1083.49 340.17Z"/><path fill="#7165DF" transform="scale(1.26263 1.19048)" d="M1153.47 340.421C1158.96 329.537 1172.74 329.073 1175.3 339.933C1170.15 344.594 1166.51 330.852 1158.61 341.191L1153.47 340.421Z"/><path fill="#8657DB" transform="scale(1.26263 1.19048)" d="M1420.03 337.488C1422.01 339.427 1421.32 339.312 1423.7 339.719C1424.36 339.097 1425.24 338.352 1425.72 337.619C1425.25 343.499 1425.93 352.569 1424.9 357.013C1422.86 357.717 1423.74 357.668 1421.5 357.012C1418.39 353.356 1420.3 345.697 1420.01 340.339L1420.03 337.488Z"/><path fill="#2970CC" transform="scale(1.26263 1.19048)" d="M883.675 337.79L883.822 334.385C885.384 332.371 884.545 332.974 887.047 332.168C889.589 333.663 888.821 332.853 889.85 335.97C888.998 340.862 888.922 347.159 889.582 352.066C887.673 349.925 886.428 350.142 883.759 349.68C883.9 345.826 883.743 341.668 883.675 337.79Z"/><path fill="#267BD8" transform="scale(1.26263 1.19048)" d="M883.675 337.79L883.822 334.385C885.384 332.371 884.545 332.974 887.047 332.168C889.589 333.663 888.821 332.853 889.85 335.97L888.152 338.252C886.29 338.374 885.455 338.143 883.675 337.79Z"/><path fill="#7165DF" transform="scale(1.26263 1.19048)" d="M1083.49 340.17C1083.35 337.941 1082.96 335.898 1084.06 334.004C1088.92 330.372 1095.94 330.802 1100.18 335.12L1099.99 336.26C1096.55 337.75 1093.49 336.52 1088.68 337.716L1087.44 339.81C1085.79 340.092 1085.15 340.198 1083.49 340.17Z"/><path fill="#267BD8" transform="scale(1.26263 1.19048)" d="M883.759 349.68C886.428 350.142 887.673 349.925 889.582 352.066C893.322 354.674 897.316 351.496 899.868 354.756L899.535 355.825C894.028 358.546 890.334 359.531 884.852 356.52C883.172 353.811 883.734 353.17 883.759 349.68Z"/><path fill="#8657DB" transform="scale(1.26263 1.19048)" d="M1483.73 332.57C1490.62 332.414 1494.25 331.745 1500.56 334.314L1500.56 335.36C1496.29 337.759 1493.55 337.233 1488.55 337.364C1485.6 338.418 1484.84 338.128 1483.6 341.32L1483.73 332.57Z"/><path fill="#8657DB" transform="scale(1.26263 1.19048)" d="M1124.2 352.117C1126.02 351.725 1127.34 351.888 1129.17 351.992C1132.46 354.925 1136.62 351.742 1140.51 354.785L1140.14 356.692C1136.09 357.997 1128.36 358.927 1124.77 356.273C1124.21 354.4 1124.19 354.076 1124.2 352.117Z"/><path fill="#7165DF" transform="scale(1.26263 1.19048)" d="M1088.62 353.26C1092.54 353.252 1096.58 353.01 1100.33 354.061L1100.47 355.107C1096.77 358.024 1086.93 359.735 1083.6 356.492L1082.85 354.084L1088.62 353.26Z"/><path fill="#9E6AE0" transform="scale(1.26263 1.19048)" d="M1256.87 353.261C1260.7 353.188 1264.29 352.753 1267.69 354.447L1268.17 355.49C1264.05 358.535 1256.26 357.773 1251.25 357.343C1252.47 353.004 1252.75 353.571 1256.87 353.261Z"/><path fill="#7165DF" transform="scale(1.26263 1.19048)" d="M1124.29 339.616L1129.39 339.599C1129.35 343.312 1129.44 348.398 1129.17 351.992C1127.34 351.888 1126.02 351.725 1124.2 352.117L1124.29 339.616Z"/><path fill="#2E46D0" transform="scale(1.26263 1.19048)" d="M1067.24 346.316L1072.12 346.411C1072.59 350.34 1073.56 355.144 1069.92 357.394L1068.38 356.395C1066.57 353.601 1067.13 349.756 1067.24 346.316Z"/><path fill="#8657DB" transform="scale(1.26263 1.19048)" d="M1341.2 341.726C1339.63 337.553 1338.48 336.145 1340.11 332.222C1344.12 331.08 1345.62 337.27 1346.49 340.154L1346.52 340.756C1343.89 340.468 1343.42 340.334 1341.2 341.726Z"/><path fill="#7165DF" transform="scale(1.26263 1.19048)" d="M1035.31 348.641L1040.47 348.771C1040.65 352.522 1041.56 355.516 1037.95 357.492L1036.38 356.631C1034.73 354.383 1035.2 351.478 1035.31 348.641Z"/><path fill="#8657DB" transform="scale(1.26263 1.19048)" d="M1291.18 349.977C1293.87 349.942 1294.58 349.363 1296.58 351.458C1295.63 354.318 1293.98 359.405 1290.04 357.046C1289.17 354.138 1290.1 353.234 1291.18 349.977Z"/><path fill="#8657DB" transform="scale(1.26263 1.19048)" d="M1124.29 339.616C1124.41 335.689 1123.78 335.661 1125.8 332.801L1127.2 332.464C1130.05 334.731 1129.52 336.056 1129.39 339.599L1124.29 339.616Z"/></svg>