<?xml version="1.0" encoding="utf-8" ?><svg xmlns="http://www.w3.org/2000/svg" xmlns:xlink="http://www.w3.org/1999/xlink" width="2048" height="508" viewBox="0 0 2048 508"><path fill="#2345C8" transform="scale(0.992248 0.992248)" d="M345.851 348.069C367.117 324.933 379.192 302.713 384.027 271.399C389.754 234.296 380.045 205.738 365.862 172.281C446.532 279.766 355.16 427.074 221.162 386.644C221.252 385.645 222.262 384.287 222.836 383.373C223.887 383.591 224.938 383.799 225.992 383.999C265.188 391.418 299.395 381.211 331.742 359.187C286.199 320.049 240.886 280.643 195.805 240.971C204.166 230.475 210.142 218.741 219.126 208.543L345.514 319.593C345.343 328.993 344.966 338.734 345.851 348.069Z"/><path fill="#141A7D" transform="scale(0.992248 0.992248)" d="M162.049 220.262C173.386 228.85 203.263 254.449 213.066 264.681C213.382 287.571 213.753 312.544 213.181 335.427C196.334 348.945 178.563 362.816 162.732 377.407C162.676 374.357 162.635 361.758 162.246 359.47C122.021 333.755 94.4156 280.487 102.96 232.733C102.973 235.715 102.759 238.966 103.76 241.733C107.451 242.555 106.024 240.405 112.6 242.677C115.156 239.672 112.858 236.018 115.637 233.313C113.332 277.312 123.298 309.86 152.099 344.209C154.473 347.042 159.887 352.261 162.944 354.029C163.346 341.542 162.78 328.079 162.788 315.428C162.971 283.704 162.724 251.979 162.049 220.262Z"/><path fill="#FEFEFE" transform="scale(0.992248 0.992248)" d="M485.843 212.606L507.358 212.537C507.595 224.689 508.884 313.354 506.807 318.456L487.5 318.505C475.275 299.451 454.694 267.302 441.53 249.929C442.205 272.296 441.756 295.988 441.682 318.45L420.166 318.548C420.215 284.069 420.947 246.916 419.923 212.647L439.636 212.644C454.08 231.493 471.807 259.295 485.833 279.572L485.843 212.606Z"/><path fill="#FEFEFE" transform="scale(0.992248 0.992248)" d="M556.047 237.393C607.549 237.5 611.237 313.627 559.84 319.827C506.041 319.406 503.603 242.626 556.047 237.393ZM561.075 302.914C582.783 293.539 579.224 252.51 553.976 254.148C532.176 264.231 534.98 304.345 561.075 302.914Z"/><path fill="#FEFEFE" transform="scale(0.992248 0.992248)" d="M794.886 211.286C810.846 209.632 826.339 213.126 835.007 227.714C837.854 232.505 839.518 235.786 838.212 241.448C835.018 242.884 823.215 242.715 818.992 242.8C817.754 239.383 816.721 236.016 813.904 233.551C807.371 227.836 793.62 226.713 787.684 233.936C786.004 235.997 785.23 238.65 785.536 241.291C787.655 260.822 839.655 254.195 840.104 282.821C840.515 308.93 826.673 317.718 802.644 319.54C784.981 320.317 767.745 312.96 762.171 295.249C761.315 292.527 760.037 289.424 761.33 286.679C764.524 285.503 777.291 285.83 781.477 285.82C786.254 301.665 803.143 307.57 816.374 295.388C817.802 294.073 818.549 289.119 817.91 287.066C812.836 270.77 785.523 274.044 773.586 263.447C768.992 260.154 763.826 255.057 763.227 248.834C760.974 225.431 774.58 214.664 794.886 211.286Z"/><path fill="#FEFEFE" transform="scale(0.992248 0.992248)" d="M717.971 237.449C743.206 238.257 752.682 248.868 752.122 273.913C751.796 288.462 751.881 303.735 751.716 318.355C747.783 318.391 734.661 319.011 732.08 317.499C731.893 315.101 731.749 312.7 731.648 310.297C725.383 309.669 703.011 335.998 683.913 306.388C682.669 303.385 681.931 300.197 681.728 296.954C679.753 264.046 732.233 276.33 730.653 260.745C722.996 248.75 710.38 251.183 704.089 262.7C697.654 262.265 691.06 261.494 684.633 260.828C691.02 243.113 700.001 238.751 717.971 237.449ZM706.5 303.73C721.663 307.188 734.601 297.183 730.225 281.973L729.101 281.247C718.967 283.518 691.183 287.745 706.5 303.73Z"/><path fill="#FEFEFE" transform="scale(0.992248 0.992248)" d="M874.179 238.213C909.703 235.396 920.45 250.09 920.986 283.874L866.683 283.822C872.796 310.63 886.622 305.277 904.367 294.385C904.367 294.385 909.57 295.089 910.154 295.168C913.063 295.331 916.111 295.22 918.616 296.614C919.194 299.12 918.978 299.372 917.714 301.997C914.276 309.323 908.041 314.962 900.408 317.65C890.352 321.208 877.465 320.515 867.835 315.909C858.819 311.632 851.949 303.85 848.822 294.374C844.453 281.561 846.23 266.617 852.23 254.628C856.88 245.336 864.799 241.406 874.179 238.213ZM866.512 270.426L888.5 270.476C892.552 270.418 897.748 270.503 901.691 270.262C896.821 258.01 893.505 251.746 878.78 254.208C871.103 258.92 869.687 261.946 866.512 270.426Z"/><path fill="#FEFEFE" transform="scale(0.992248 0.992248)" d="M966.79 238.171C1012.56 232.068 1001.72 287.763 1001.78 318.285L979.944 318.249C980.149 300.908 981.937 279.673 978.28 263.074C976.073 253.053 965.521 254.382 958.435 257.502C952.826 264.062 952.906 269.635 952.89 278.009C952.865 291.438 953.066 304.883 953.183 318.313L931.716 318.309C932.116 291.787 932.107 265.261 931.689 238.739L951.149 238.656L951.65 250.663C956.785 243.943 959.194 241.837 966.79 238.171Z"/><path fill="#2345C8" transform="scale(0.992248 0.992248)" d="M346.405 190.673C346.433 215.028 346.3 239.382 346.006 263.736C345.967 275.299 346.532 300.47 344.859 311.013L335.041 302.581C327.389 297.268 306.227 279.132 301.209 271.831C300.846 255.226 300.556 246.55 303.352 229.922C308.134 223.458 325.207 209.36 331.723 204.017C336.795 199.094 340.981 195.196 346.405 190.673Z"/><path fill="#141A7D" transform="scale(0.992248 0.992248)" d="M303.352 229.922C308.134 223.458 325.207 209.36 331.723 204.017C315.523 235.719 310.956 261.131 329.354 293.244C330.863 295.878 334.017 300.013 335.041 302.581C327.389 297.268 306.227 279.132 301.209 271.831C300.846 255.226 300.556 246.55 303.352 229.922Z"/><path fill="#FEFEFE" transform="scale(0.992248 0.992248)" d="M657.288 238.758L679.593 238.719C677.209 244.636 674.705 252.561 672.563 258.717C665.276 277.956 658.22 298.903 651.305 318.397L627.693 318.413C618.517 292.765 608.137 264.835 600.025 238.935L621.89 238.785C626.583 255.469 633.889 280.019 639.753 295.994C645.242 276.808 651.088 257.726 657.288 238.758Z"/><path fill="#FEFEFE" transform="scale(0.992248 0.992248)" d="M1018.49 218.64L1039.46 218.576L1039.14 238.82L1054.99 238.753L1054.84 254.867L1039.64 254.842C1039.51 267.276 1039.17 279.828 1039.7 292.241C1040.14 302.522 1044.26 302.307 1052.9 301.393C1053.73 305.905 1055.42 311.33 1056.69 315.821C1054.2 319.323 1049.93 319.017 1046.27 319.238C1023.64 320.6 1017.87 306.495 1018.41 286.211C1018.67 276.679 1018.66 265.042 1018.8 255L1007.46 254.829L1007 238.913L1018.35 238.778C1018.54 232.242 1018.45 225.22 1018.49 218.64Z"/><path fill="#FEFEFE" transform="scale(0.992248 0.992248)" d="M295.154 85.6747C299.333 96.767 298.015 141.257 306.407 153.024C314.571 164.471 343.562 166.04 357.68 167.994C291.729 180.644 304.989 172.36 295.595 241.559L294.529 239.174C289.015 171.333 292.074 176.733 227.18 168.106C241.567 166.231 281.203 164.196 285.922 151.123C291.743 134.995 290.827 103.884 295.154 85.6747Z"/><path fill="#6823C1" transform="scale(0.992248 0.992248)" d="M102.96 232.733C102.826 223.741 108.892 203.143 112.333 194.722C138.87 129.767 213.912 95.4469 279.914 122.226C257.719 120.037 241.397 119.086 219.418 124.28C163.479 137.497 124.439 176.01 115.637 233.313C112.858 236.018 115.156 239.672 112.6 242.677C106.024 240.405 107.451 242.555 103.76 241.733C102.759 238.966 102.973 235.715 102.96 232.733Z"/><path fill="#6823C1" transform="scale(0.992248 0.992248)" d="M163.7 213.201C163.59 197.292 162.625 175.382 163.515 159.968C180.883 173.766 202.134 193.6 219.126 208.543C210.142 218.741 204.166 230.475 195.805 240.971C185.514 231.669 174.223 222.647 163.7 213.201Z"/><path fill="#FEFEFE" transform="scale(0.992248 0.992248)" d="M1064.87 238.904L1086.21 238.812L1085.79 318.135C1080.22 318.507 1070.94 318.241 1065.08 318.266C1064.53 292.57 1065.09 264.905 1064.87 238.904Z"/><path fill="#7E57E3" transform="scale(0.992248 0.992248)" d="M1717.79 251.43C1727.63 251.017 1733.74 250.426 1741.74 256.061C1746.34 262.137 1745.8 265.837 1745.92 273.394C1737.68 286.531 1732.52 284.475 1717.82 284.172C1718.1 273.734 1717.83 261.972 1717.79 251.43ZM1735.85 275.81C1738.19 271.252 1739.85 267.847 1738.43 262.748C1735.01 257.446 1731.16 257.978 1725.37 258.203C1725.13 263.382 1724.28 270.971 1725.98 275.64C1729.34 279.079 1731.64 278.363 1735.85 275.81Z"/><path fill="#1B75E0" transform="scale(0.992248 0.992248)" d="M1291.87 266.09C1294.52 261.333 1295.66 257.356 1299.21 252.7C1301.8 251.155 1302.78 251.352 1305.68 251.651C1307.68 256.128 1296.88 267.179 1295.62 272.03C1295.08 274.121 1295.24 280.104 1295.03 282.998C1292.63 284.786 1291.45 284.202 1287.93 284.33C1288.54 274.764 1285.87 265.276 1280.38 257.424C1278.61 254.946 1277.9 254.572 1275.3 254.16L1273.87 256.501C1271.9 257.644 1265.86 257.478 1263.23 257.543C1263.56 264.917 1264.9 277.688 1261.14 283.709L1259.79 283.864C1255.68 278.606 1256.84 264.584 1257.03 257.626C1253.75 257.579 1249.06 257.894 1246.38 256.305C1245.45 253.355 1245.51 254.547 1246.37 251.425C1250.11 251.465 1253.99 251.396 1257.73 251.4C1277.71 251.423 1282.59 246.095 1291.87 266.09Z"/><path fill="#1B75E0" transform="scale(0.992248 0.992248)" d="M1205.07 251.252C1215.35 251.067 1223.02 249.287 1229.89 257.849C1230.32 266.904 1228.77 265.123 1225.98 272.5C1225.58 273.556 1230.09 279.668 1229.45 283.749L1226.11 285.555C1220.16 282.68 1221.86 274.761 1214.48 272.145C1208.57 274.053 1214.38 278.779 1211.59 283.857C1207.88 284.5 1209.26 284.683 1205.91 283.351C1205.06 282.202 1205.21 255.681 1205.07 251.252Z"/><path fill="#7E57E3" transform="scale(0.992248 0.992248)" d="M1587.87 250.605C1590.35 250.987 1591.98 251.026 1593.86 252.738C1594.24 260.233 1596.76 279.179 1591.2 283.723L1588.4 283.221C1581.38 278.265 1577.68 270.629 1573.29 263.245C1573.5 270.078 1573.94 278.173 1573.36 284.868C1569.37 284.459 1569.77 285.045 1566.73 282.952C1565.11 279.486 1565.06 254.14 1567.59 251.623C1578.22 251.843 1576.9 264.591 1585.46 268.068C1588.07 264.514 1585.07 256.175 1587.87 250.605Z"/><path fill="#7E57E3" transform="scale(0.992248 0.992248)" d="M1812.97 250.777C1813.49 250.816 1814 250.868 1814.52 250.934C1821.49 251.872 1828.75 265.674 1833.88 272.443C1833.5 266.054 1831.2 256.464 1835.41 251.705C1838.62 251.742 1837.78 251.271 1839.83 253.051C1840.98 259.619 1840.23 276.61 1840.25 284.348C1839.75 284.346 1839.26 284.336 1838.76 284.319C1830.76 284.03 1827.29 272.975 1820.04 265.137C1820.25 270.286 1821.64 282.448 1816.45 285.029C1810.83 280.667 1811.17 257.343 1812.97 250.777Z"/><path fill="#7E57E3" transform="scale(0.992248 0.992248)" d="M1369.39 272.189C1369.36 267.788 1368.86 255.802 1369.96 252.379C1372.64 251.228 1371.67 251.272 1374.37 251.617C1377.08 257.396 1377.64 278.493 1373.63 283.531C1368.44 285.046 1359.9 269.033 1356.39 264.675C1356.34 269.686 1356.79 281.791 1354.68 285.548C1352.87 285.025 1351.85 284.51 1350.16 283.698C1347.65 278.912 1348.67 258.043 1348.64 251.551C1359.72 251.816 1362.95 263.862 1369.39 272.189Z"/><path fill="#7E57E3" transform="scale(0.992248 0.992248)" d="M1693.39 251.168C1695.9 251.307 1699.21 251.029 1700.79 252.775C1706.21 258.764 1712.72 275.688 1713.54 283.036C1711.67 284.569 1710.87 284.017 1708 283.958C1705.06 281.536 1705.58 280.83 1704.14 276.62C1686.25 276.381 1692.11 286.085 1684.46 285.479L1683.12 283.424C1682.74 280.439 1691.67 256.14 1693.39 251.168Z"/><path fill="#7E57E3" transform="scale(0.992248 0.992248)" d="M1894.27 285.199L1891.9 278.226C1883.81 270.812 1877.9 284.587 1870.95 283.555C1869.68 277.801 1878.27 255.793 1883.53 251.833C1887.14 250.98 1885.73 250.853 1889.17 252.423C1891.48 255.138 1895.13 266.804 1896.7 271.098C1898.22 274.374 1901.37 279.739 1900.47 282.891C1898.91 284.831 1896.74 284.836 1894.27 285.199Z"/><path fill="#7E57E3" transform="scale(0.992248 0.992248)" d="M1789.82 250.704L1794.77 251.47C1799.48 254.232 1812.6 282.045 1803.49 284.337C1798.25 281.994 1801.75 281.799 1797.21 276.589L1797.05 276.416C1784.04 276.839 1787.23 283.089 1779.39 283.194L1778.61 281.725C1779.11 277.127 1787.27 254.052 1789.82 250.704Z"/><path fill="#1B75E0" transform="scale(0.992248 0.992248)" d="M1181.92 251.054C1185.03 251.051 1188.78 250.96 1190.57 253.936C1194.76 260.887 1200.13 276.015 1199.08 283.935C1190.1 284.963 1195.84 279.91 1189.24 276.537C1179.6 276.452 1181.73 278.218 1172.38 284.548L1171.11 284.239C1170.66 279.791 1179.64 256.064 1181.92 251.054Z"/><path fill="#7E57E3" transform="scale(0.992248 0.992248)" d="M1903.54 263.005C1908.89 249.192 1924.75 245.477 1931.82 259.559L1931.2 260.797C1923.95 260.31 1918.01 256.521 1912.55 260.595C1905.23 270.668 1917.59 285.626 1925.63 274.393L1925.36 272.708C1922.1 271.733 1920.15 271.855 1918.6 269.551L1919.52 267.309C1923.96 266.315 1927.63 266.736 1932.12 267.012C1937.73 273.977 1924.26 292.907 1908.51 281.109C1903.09 274.904 1903.24 270.659 1903.54 263.005Z"/><path fill="#7E57E3" transform="scale(0.992248 0.992248)" d="M1503.86 264.81C1508.64 248.752 1520.82 247.114 1532.94 257.415L1532.5 261.17C1526.89 263 1507.02 248.832 1511.9 273.009C1513.15 279.229 1522.31 279.418 1526.57 274.726L1526.47 273.184C1524.01 272.037 1520.17 270.924 1519.34 269.094C1522.44 265.595 1528.51 266.8 1533.1 267.092C1534.62 268.962 1534.22 268.253 1534.16 271.075C1531.54 286.337 1515.94 288.864 1506.35 277.954C1504.12 272.822 1504 270.366 1503.86 264.81Z"/><path fill="#7E57E3" transform="scale(0.992248 0.992248)" d="M1538.08 252.088C1543.66 251.397 1553.13 250.438 1558.45 252.102L1560.03 253.536L1559.8 257C1555.84 259.744 1544.11 253.992 1546.21 263.903C1550.07 266.497 1555.5 263.047 1559.37 265.765C1559.85 268.896 1560.12 267.865 1558.75 270.391C1553.26 271.932 1548.47 269.851 1545.64 271.979C1544.59 275.07 1544.46 273.972 1545.73 276.605C1551.06 279.335 1557.36 277.245 1561.21 279.694C1561.47 282.13 1561.5 281.315 1559.78 283.715C1556.36 284.526 1542.66 284.243 1538.35 284.237C1538.36 280.499 1538.7 275.208 1537.37 271.891C1538.32 264.062 1538.3 260.014 1538.08 252.088Z"/><path fill="#7E57E3" transform="scale(0.992248 0.992248)" d="M1939.16 251.445C1944.2 251.333 1955.33 250.356 1959.16 252.599C1960.58 255.04 1960.39 253.984 1959.88 256.796C1955.9 259.128 1949.58 256.009 1945.39 258.364C1944.8 261.816 1944.56 260.577 1946.09 263.467C1949.68 265.717 1954.08 264.681 1959.21 266.053L1959.76 267.492C1957.98 272.066 1949.99 270.637 1945.22 270.768C1943.62 285.865 1955.84 272.254 1959.85 281.104L1958.76 283.117C1955.71 285.317 1942.56 284.385 1937.96 284.302C1937.83 279.145 1936.82 254.81 1939.16 251.445Z"/><path fill="#7E57E3" transform="scale(0.992248 0.992248)" d="M1633.47 251.469C1637.55 251.452 1652.73 250.805 1655.17 252.568L1655.34 255.563C1651.4 259.868 1645.97 255.202 1641.39 258.38C1640.02 261.509 1640.24 260.218 1640.55 263.654C1645.87 266.343 1649.46 262.722 1653.97 266.1L1654.58 268.533C1650.6 273.547 1645.68 268.273 1640.64 271.462C1640.29 274.406 1640.17 275.108 1641.74 277.594C1647.56 280.748 1651.08 274.618 1656.28 280.564C1653.76 286.128 1638.02 284.237 1631.95 284.158C1633.38 278.698 1633.03 267.496 1633.04 261.383L1633.47 251.469Z"/><path fill="#7E57E3" transform="scale(0.992248 0.992248)" d="M1411.9 251.661C1419.91 251.407 1427.37 251.522 1435.39 251.683C1434.98 253.15 1434.17 256.87 1433.23 257.74C1427.31 257.369 1421.28 256.249 1417.33 261.498L1418.09 262.989C1423.6 265.217 1426.81 263.622 1432.46 265.113C1433.74 267.829 1433.72 266.889 1433.36 269.56C1429.73 272.189 1424.85 269.318 1419.34 271.491C1417.88 274.111 1418.35 273.574 1419.19 277.018C1421.44 278.857 1429.42 278.027 1433.19 278.08C1435.17 279.573 1434.58 279.002 1435.32 281.736L1434 283.302C1429.59 284.917 1416.68 284.339 1411.31 284.297C1413.08 275.468 1412.75 260.715 1411.9 251.661Z"/><path fill="#1B75E0" transform="scale(0.992248 0.992248)" d="M1121.8 251.032C1127.92 250.933 1137.05 252.666 1139.91 258.839C1139.66 261.893 1140.13 260.939 1138.3 263.138C1133.06 263.631 1125.8 253.809 1120.68 259.567C1113.45 267.703 1121.93 286.207 1133.31 273.838L1134.66 272.484C1137.78 272.319 1136.83 271.925 1138.96 273.65C1140.35 282.41 1129.54 286.557 1122.92 284.336C1105.73 278.567 1108.24 259.659 1121.8 251.032Z"/><path fill="#7E57E3" transform="scale(0.992248 0.992248)" d="M1626.92 278.276C1619.06 287.279 1605.95 286.843 1600.35 275.998C1598.19 271.89 1597.81 267.077 1599.29 262.68C1606.22 242.371 1631.2 253.66 1627.11 262.942C1622.99 263.717 1618.74 257.773 1612.19 257.568C1605.38 260.341 1603.55 271.927 1609.13 276.729C1617.15 278.611 1619.01 275.836 1625.84 271.931L1627.65 273.661C1627.48 275.454 1627.4 276.52 1626.92 278.276Z"/><path fill="#7E57E3" transform="scale(0.992248 0.992248)" d="M1763.1 275.969C1765.3 270.705 1766.71 266.237 1768.29 260.741C1770.02 254.688 1769.49 250.782 1776.71 251.924C1779 256.215 1771.32 283.472 1760.74 284.313C1757 281.624 1754.83 270.648 1751.76 265.862C1750.95 261.89 1748.19 255.203 1746.68 251.196C1749.7 251.389 1753.38 250.959 1755.05 253.319C1759.49 259.561 1759.98 268.672 1763.1 275.969Z"/><path fill="#FEFEFE" transform="scale(0.992248 0.992248)" d="M1073.09 206.506C1079.15 205.046 1085.24 208.788 1086.67 214.852C1088.11 220.915 1084.35 226.991 1078.28 228.404C1072.24 229.808 1066.21 226.068 1064.78 220.038C1063.35 214.008 1067.07 207.958 1073.09 206.506Z"/><path fill="#010103" fill-opacity="0.011764706" transform="scale(0.992248 0.992248)" d="M1532.94 257.415C1534.58 256.312 1534.68 254.685 1535.1 252.658L1538.08 252.088C1538.3 260.014 1538.32 264.062 1537.37 271.891L1534.16 271.075C1534.22 268.253 1534.62 268.962 1533.1 267.092C1528.51 266.8 1522.44 265.595 1519.34 269.094C1520.17 270.924 1524.01 272.037 1526.47 273.184L1526.57 274.726C1522.31 279.418 1513.15 279.229 1511.9 273.009C1507.02 248.832 1526.89 263 1532.5 261.17L1532.94 257.415Z"/><path fill="#7E57E3" transform="scale(0.992248 0.992248)" d="M1381.38 251.476C1387.66 251.439 1400.32 250.935 1405.97 251.962C1408.34 253.865 1408.16 253.1 1408.48 255.51C1406.77 257.082 1400.92 257.802 1398.32 258.281C1396.88 260.841 1397.44 269.05 1397.49 272.455C1397.61 276.985 1398.54 281.286 1395.07 284.39C1392.5 284.287 1393 284.67 1391.12 283.378C1389.95 276.291 1391.28 267.191 1390.75 259.513C1386.88 256.22 1386.36 259.1 1381.07 257.033C1380.11 254.285 1380.54 254.582 1381.38 251.476Z"/><path fill="#7E57E3" transform="scale(0.992248 0.992248)" d="M1853.23 251.498C1858.99 251.404 1866.47 250.429 1870.81 253.45L1871.01 255.601C1868.13 258.723 1867.35 256.198 1861.97 257.91C1860.21 261.962 1860.9 279.292 1860.98 284.833C1858.56 284.614 1857.93 284.543 1855.66 283.733C1852.36 279.222 1854.15 264.241 1854.23 257.42C1853.36 257.475 1852.49 257.518 1851.62 257.551C1847.38 257.705 1846.9 257.638 1844.25 255.157L1844.6 253.303C1847.19 251.098 1849.85 251.484 1853.23 251.498Z"/><path fill="#7E57E3" transform="scale(0.992248 0.992248)" d="M1465.54 251.322C1469.7 251.518 1472.26 251.575 1472.77 256.27C1473.53 263.326 1472.89 270.911 1472.78 278.092C1477.31 278.179 1480.91 277.164 1485.49 278.39C1488.08 280.64 1487.35 280.17 1487.96 284.219L1465.37 284.309C1465.94 273.417 1465.66 262.245 1465.54 251.322Z"/><path fill="#7E57E3" transform="scale(0.992248 0.992248)" d="M1439.16 269.088C1440.91 258.512 1434.83 253.77 1446.87 250.628C1446.85 259.693 1446.98 269.034 1446.3 278.052C1450.21 277.978 1457.79 277.377 1460.71 280.249L1460.25 281.609C1452.11 285.463 1448.63 284.533 1439.51 284.25C1439.91 279.033 1440.69 274.066 1439.16 269.088Z"/><path fill="#1B75E0" transform="scale(0.992248 0.992248)" d="M1145.08 250.699C1146.69 250.935 1148.43 251.335 1150.03 251.67C1153.86 255.437 1152.43 270.515 1152.76 277.555C1158.32 278.38 1165.22 277.981 1167.1 283.73C1162.33 284.543 1150.55 284.285 1145.17 284.29L1145.08 250.699Z"/><path fill="#7E57E3" transform="scale(0.992248 0.992248)" d="M1500.13 285.035L1492.54 283.827C1490.93 281.001 1491.2 257.416 1492.55 253.43C1495.27 250.942 1495.08 251.709 1499.61 251.574C1498.84 258.671 1498.1 278.516 1500.13 285.035Z"/><path fill="#1B75E0" transform="scale(0.992248 0.992248)" d="M1234.81 250.577C1239.34 251.416 1239.64 250.754 1242.68 253.367C1242.61 258.039 1242.83 283.121 1241.81 285.177C1240.01 284.79 1238.85 284.356 1237.13 283.73C1233.85 278.013 1234.79 258.462 1234.81 250.577Z"/><path fill="#7E57E3" transform="scale(0.992248 0.992248)" d="M1342.63 284.809C1340.03 284.569 1339.02 284.337 1336.5 283.62C1335 281.212 1335.96 257.041 1336.1 253.067C1338.17 251.162 1339.26 251.658 1342.53 251.356C1342.68 262.441 1342.96 273.744 1342.63 284.809Z"/><path fill="#010103" fill-opacity="0.043137256" transform="scale(0.992248 0.992248)" d="M1229.89 257.849L1232.05 256.346L1232.85 251.727L1234.81 250.577C1234.79 258.462 1233.85 278.013 1237.13 283.73C1238.85 284.356 1240.01 284.79 1241.81 285.177C1240.54 285.375 1229.73 285.262 1226.11 285.555L1229.45 283.749C1230.09 279.668 1225.58 273.556 1225.98 272.5C1228.77 265.123 1230.32 266.904 1229.89 257.849Z"/><path fill="#010103" fill-opacity="0.027450981" transform="scale(0.992248 0.992248)" d="M1342.53 251.356C1344.32 251.492 1346.95 251.8 1348.64 251.551C1348.67 258.043 1347.65 278.912 1350.16 283.698C1351.85 284.51 1352.87 285.025 1354.68 285.548C1347.16 286.173 1348.89 282.696 1342.63 284.809C1342.96 273.744 1342.68 262.441 1342.53 251.356Z"/><path fill="#010103" fill-opacity="0.12941177" transform="scale(0.992248 0.992248)" d="M1896.7 271.098C1902.95 268.551 1898.99 265.071 1903.54 263.005C1903.24 270.659 1903.09 274.904 1908.51 281.109C1900.37 282.874 1906.4 286.447 1894.27 285.199C1896.74 284.836 1898.91 284.831 1900.47 282.891C1901.37 279.739 1898.22 274.374 1896.7 271.098Z"/><path fill="#010103" fill-opacity="0.094117649" transform="scale(0.992248 0.992248)" d="M1499.61 251.574C1503.44 258.623 1499.4 262.834 1501.91 265.991L1503.86 264.81C1504 270.366 1504.12 272.822 1506.35 277.954L1502.72 276.517C1501.22 279.625 1503.91 282.98 1500.13 285.035C1498.1 278.516 1498.84 258.671 1499.61 251.574Z"/><path fill="#010103" fill-opacity="0.078431375" transform="scale(0.992248 0.992248)" d="M1741.74 256.061C1744.39 255.05 1744.49 253.644 1746.68 251.196C1748.19 255.203 1750.95 261.89 1751.76 265.862L1748.89 267.528C1747.96 271.619 1748.74 270.989 1745.92 273.394C1745.8 265.837 1746.34 262.137 1741.74 256.061Z"/><path fill="#010103" fill-opacity="0.094117649" transform="scale(0.992248 0.992248)" d="M1625.84 271.931C1632.89 270.843 1626.73 267.667 1633.04 261.383C1633.03 267.496 1633.38 278.698 1631.95 284.158C1629.91 282.339 1630.19 281.677 1629.29 278.817L1626.92 278.276C1627.4 276.52 1627.48 275.454 1627.65 273.661L1625.84 271.931Z"/><path fill="#010103" fill-opacity="0.090196081" transform="scale(0.992248 0.992248)" d="M1435.39 251.683C1439.79 250.861 1442.42 250.194 1446.87 250.628C1434.83 253.77 1440.91 258.512 1439.16 269.088C1434.1 266.16 1438.45 264.266 1436.18 258.595L1433.23 257.74C1434.17 256.87 1434.98 253.15 1435.39 251.683Z"/><path fill="#141A7D" fill-opacity="0.97647059" transform="scale(0.992248 0.992248)" d="M221.162 386.644C213.928 385.262 202.927 379.622 196.846 375.414C205.154 378.265 214.366 380.837 222.836 383.373C222.262 384.287 221.252 385.645 221.162 386.644Z"/></svg>