<?xml version="1.0" encoding="utf-8" ?><svg xmlns="http://www.w3.org/2000/svg" xmlns:xlink="http://www.w3.org/1999/xlink" width="1920" height="1080" viewBox="0 0 1920 1080"><path fill="#030D30" transform="scale(0.930233 2.10938)" d="M0 0L2064 0L2064 512L0 512L0 0Z"/><path fill="#FEFEFE" transform="scale(0.930233 2.10938)" d="M755.282 174.451L791.909 174.353C791.904 227.312 792.699 282.325 791.85 335.102L760.957 335.13C736.777 304.825 707.924 266.372 682.943 237.866L682.936 335.111L646.403 335.121L646.52 174.423L678.226 174.477C698.562 200.169 720.201 228.628 741.16 253.606C748.972 254.436 751.382 254.684 755.17 247.604L755.282 174.451Z"/><path fill="#000823" transform="scale(0.930233 2.10938)" d="M755.17 247.604L755.218 271.419C751.53 266.789 744.224 258.182 741.16 253.606C748.972 254.436 751.382 254.684 755.17 247.604Z"/><path fill="#3342D6" transform="scale(0.930233 2.10938)" d="M333.52 210.179C359.672 233.377 395.678 264.43 420.012 288.406C419.54 284.088 420.21 282.055 424.686 279.969C430.386 281.215 427.438 284.482 429.501 287.155L433.056 291.801C442.094 299.754 451.646 307.691 460.841 315.511C467.724 322.825 474.22 327.299 480.891 333.736C479.116 336.37 478.648 337.221 475.54 338.267L483.309 344.784L483.479 377.461C486.095 374.614 491.621 368.984 493.318 365.88L493.473 365.411C499.644 360.658 510.08 341.43 513.633 333.998C530.994 298.705 533.161 260.242 524.777 222.327C528.122 222.251 530.558 221.484 533.782 220.656C535.243 228.709 537.697 237.022 538.863 245.017C543.254 275.127 540.278 313.05 527.435 340.984C526.668 342.707 525.876 344.42 525.06 346.121C508.146 382.468 477.481 410.605 439.816 424.337C398.922 438.543 354.065 435.959 315.073 417.152C318.89 417.621 325.841 419.003 329.656 419.738C383.879 430.191 421.36 424.438 466.749 393.028C433.109 361.673 397.514 332.097 363.564 301.043C354.241 292.514 344.695 283.76 335.052 275.62C329.864 270.384 322.398 263.91 316.839 258.777C314.516 256.784 312.169 254.82 309.796 252.887L306.576 249.331C316.495 236.836 323.303 222.731 333.52 210.179Z"/><path fill="#010C3A" transform="scale(0.930233 2.10938)" d="M420.012 288.406C419.54 284.088 420.21 282.055 424.686 279.969C430.386 281.215 427.438 284.482 429.501 287.155L433.056 291.801C442.094 299.754 451.646 307.691 460.841 315.511C467.724 322.825 474.22 327.299 480.891 333.736C479.116 336.37 478.648 337.221 475.54 338.267C458.49 322.305 440.244 307.159 423.324 291.119L420.012 288.406Z"/><path fill="#000823" transform="scale(0.930233 2.10938)" d="M420.012 288.406C419.54 284.088 420.21 282.055 424.686 279.969C430.386 281.215 427.438 284.482 429.501 287.155L433.056 291.801L431.351 294.231C426.708 293.455 426.697 291.93 423.324 291.119L420.012 288.406Z"/><path fill="#FEFEFE" transform="scale(0.930233 2.10938)" d="M870.963 208.263C906.616 201.563 940.97 224.968 947.784 260.599C954.598 296.23 931.303 330.659 895.694 337.587C859.923 344.546 825.304 321.122 818.46 285.33C811.615 249.537 835.149 214.994 870.963 208.263Z"/><path fill="#030D30" transform="scale(0.930233 2.10938)" d="M876.385 239.148C919.752 233.973 927.751 293.55 889.993 306.59C847.529 311.96 837.363 252.597 876.385 239.148Z"/><path fill="#3342D6" transform="scale(0.930233 2.10938)" d="M1287.34 172.468C1311.01 171.609 1326.74 175.679 1347.6 186.294C1343.9 196.217 1339.66 206.326 1335.68 216.172C1317.89 206.764 1287.89 194.448 1268.03 210.127C1265.87 211.832 1260.61 218.347 1261.36 220.854C1267.44 241.351 1305.2 239.793 1321.93 247.988C1329.84 250.884 1336.44 254.729 1342.59 260.703C1358.77 276.411 1355.41 306.489 1339.42 321.324C1322.84 336.707 1301.92 338.165 1280.33 337.863C1258.08 336.345 1241.83 331.826 1223.31 319.484C1227.69 310.695 1231.92 300.195 1235.75 291.057C1254.33 302.897 1269.86 308.985 1292.17 308.006C1302.55 307.55 1317.98 303.095 1316.6 290.424C1314.68 272.847 1278.95 271.822 1265.96 266.613C1255.93 262.59 1247.5 260.864 1239.18 253.34C1221.47 238.501 1222.88 208.261 1238.16 191.997C1251.57 177.719 1268.55 173.725 1287.34 172.468Z"/><path fill="#3342D6" transform="scale(0.930233 2.10938)" d="M1422.82 209.307C1442.88 206.812 1463.72 211.341 1478.02 226.578C1493.74 243.331 1495.42 261.532 1494.86 283.281C1463.9 283.794 1433.07 283.129 1402.13 283.42C1411.04 308.333 1434.21 313.278 1457.54 303.802C1460.03 302.793 1465.27 298.919 1467.75 297.273C1470.6 297.461 1471.23 298.972 1473.79 301.358C1477.9 306.19 1483.14 311.503 1487.56 316.188C1449.64 355.371 1376.67 340.136 1368.1 282.744C1365.48 265.463 1369.81 247.848 1380.13 233.746C1390.89 219.272 1405.25 211.897 1422.82 209.307Z"/><path fill="#030D30" transform="scale(0.930233 2.10938)" d="M1429.57 236.298C1449.01 235.454 1456.41 244.826 1462.17 261.478C1453.38 261.646 1444.09 261.488 1435.25 261.488C1424.3 261.637 1413.06 261.522 1402.09 261.534C1407.38 246.083 1413.1 239.541 1429.57 236.298Z"/><path fill="#FEFEFE" transform="scale(0.930233 2.10938)" d="M1094.26 224.244C1117.5 205.157 1171.91 200.895 1192.46 226.009C1206.66 243.365 1204.05 270.727 1203.97 291.79L1203.82 335.09L1170.6 335.126L1170.32 322.584C1159.13 333.463 1150.7 337.331 1134.51 337.429C1121.23 337.509 1108.56 334.297 1098.91 324.435C1092.25 317.61 1088.62 308.382 1088.86 298.846C1088.97 289.368 1092.93 280.343 1099.82 273.836C1113.21 261.033 1134.69 261.475 1151.94 261.694C1155.12 261.734 1167.69 262.732 1168.49 258.677C1168.56 258.301 1168.6 257.919 1168.6 257.536C1168.59 253.836 1163.38 245.191 1160.62 242.893C1155.25 238.411 1145.69 237.391 1139.04 237.854C1127.61 238.648 1115.88 243.173 1106.68 249.882C1105.79 248.094 1101.39 238.927 1100.52 237.945C1099.33 234.344 1096 227.884 1094.26 224.244Z"/><path fill="#030D30" transform="scale(0.930233 2.10938)" d="M1143.6 283.31L1168.22 283.285C1168.73 299.11 1165.54 306.463 1149.72 311.844C1118.21 315.028 1113.22 286.259 1143.6 283.31Z"/><path fill="#762BC9" transform="scale(0.930233 2.10938)" d="M1586.57 209.195C1601.61 207.157 1620.27 210.219 1631.13 221.323C1648.75 239.328 1645.88 268.731 1645.84 291.813L1645.79 335.077L1610.34 335.251C1610.02 313.533 1611.05 291.621 1610.02 269.932C1608.85 245.306 1594.89 233.59 1571.22 242.747C1568.93 244.058 1566.83 245.459 1564.98 247.355C1550.8 261.826 1555.7 315.147 1555.86 335.112C1544.35 335.416 1531.7 335.089 1520.1 334.995C1519.02 295.143 1520.19 251.212 1519.97 210.843L1553.96 210.757L1554.11 226.034C1564.72 215.419 1572.21 212.089 1586.57 209.195Z"/><path fill="#171B84" transform="scale(0.930233 2.10938)" d="M277.906 234.52L275.976 229.4C277.818 227.48 279.17 228.001 282.369 227.755L288.688 233.475C293.875 238.213 301.169 245.248 306.576 249.331L309.796 252.887C312.169 254.82 314.516 256.784 316.839 258.777C322.398 263.91 329.864 270.384 335.052 275.62L329.433 274.528C325.082 277.903 331.641 355.421 327.214 362.051L326.797 362.267C312.319 375.536 283.495 401.132 268.222 412.486C268.239 406.834 267.928 395.792 268.38 390.578L268.078 387.274C269.008 374.172 268.243 349.935 268.244 336.214L268.462 227.515L277.906 234.52Z"/><path fill="#010C3A" transform="scale(0.930233 2.10938)" d="M277.906 234.52L275.976 229.4C277.818 227.48 279.17 228.001 282.369 227.755L288.688 233.475C293.875 238.213 301.169 245.248 306.576 249.331L309.796 252.887C312.169 254.82 314.516 256.784 316.839 258.777L315.899 261.932C312.596 263 311.069 261.629 307.161 260.224L305.893 258.817C302.235 256.467 282.294 238.553 278.435 234.891L277.906 234.52Z"/><path fill="#030D30" transform="scale(0.930233 2.10938)" d="M305.893 258.817C303.879 255.689 302.685 253.906 301.222 250.47C303.988 250.092 306.868 251.748 309.796 252.887C312.169 254.82 314.516 256.784 316.839 258.777L315.899 261.932C312.596 263 311.069 261.629 307.161 260.224L305.893 258.817Z"/><path fill="#000823" transform="scale(0.930233 2.10938)" d="M277.906 234.52L275.976 229.4C277.818 227.48 279.17 228.001 282.369 227.755L288.688 233.475C284.768 237.658 283.802 236.49 278.435 234.891L277.906 234.52Z"/><path fill="#010C3A" transform="scale(0.930233 2.10938)" d="M316.839 258.777C322.398 263.91 329.864 270.384 335.052 275.62L329.433 274.528C325.082 277.903 331.641 355.421 327.214 362.051L326.797 362.267C326.223 334.141 327.242 305.895 326.211 277.725C321.362 272.475 312.711 265.178 307.161 260.224C311.069 261.629 312.596 263 315.899 261.932L316.839 258.777Z"/><path fill="#FEFEFE" transform="scale(0.930233 2.10938)" d="M1052.86 210.729L1087.59 210.882L1083.33 221.545C1081.97 224.862 1079.49 230.422 1078.47 233.654C1076.64 236.624 1067.77 258.945 1065.79 263.745L1036.53 335.089L1001.67 335.135C984.326 293.854 967.332 252.424 950.697 210.85L987.278 210.793C997.985 238.474 1008.87 266.087 1019.93 293.63C1030.65 266.068 1042.54 238.337 1052.86 210.729Z"/><path fill="#762BC9" transform="scale(0.930233 2.10938)" d="M1682.22 181.276L1717.64 181.228L1717.72 212.429C1727.48 212.695 1738.67 212.472 1748.53 212.482L1748.48 240.466C1738.48 240.652 1727.7 240.391 1717.63 240.331C1717.67 242.939 1717.38 247.205 1717.62 249.621C1719.92 272.443 1705.09 323.205 1747.41 303.174C1749.28 308.238 1751.24 314.988 1752.93 320.246L1756.17 329.495C1737.59 340.02 1709.09 342.213 1693.41 326.351C1676.57 309.308 1681.89 263.004 1682.04 240.357L1663.25 240.366C1662.86 231.662 1663.11 221.496 1663.12 212.682L1682.15 212.695C1682.09 202.222 1682.11 191.748 1682.22 181.276Z"/><path fill="#3342D6" transform="scale(0.930233 2.10938)" d="M462.708 208.046C469.102 201.658 475.975 195.259 482.524 188.991C482.844 193.903 482.631 199.234 482.539 204.186C482.694 217.779 483.903 328.34 482.07 333.353L480.891 333.736C474.22 327.299 467.724 322.825 460.841 315.511C451.646 307.691 442.094 299.754 433.056 291.801L429.501 287.155C430.586 283.605 430.01 279.433 429.725 275.695C426.776 272.674 429.761 258.532 428.121 254.209C427.713 253.134 425.152 254.442 423.438 249.296L424.272 242.306C425.37 234.51 425.675 226.749 426.928 218.678C427.196 221.905 427.194 226.254 428.949 228.808C434.304 229.901 434.099 226.98 440.761 227.21C447.908 222.142 454.591 213.913 462.708 208.046Z"/><path fill="#171B84" transform="scale(0.930233 2.10938)" d="M440.761 227.21C447.908 222.142 454.591 213.913 462.708 208.046C457.452 221.599 450.2 239.45 448.368 253.719C445.136 274.876 453.868 295.817 460.841 315.511C451.646 307.691 442.094 299.754 433.056 291.801L429.501 287.155C430.586 283.605 430.01 279.433 429.725 275.695C426.776 272.674 429.761 258.532 428.121 254.209C427.713 253.134 425.152 254.442 423.438 249.296L424.272 242.306C425.37 234.51 425.675 226.749 426.928 218.678C427.196 221.905 427.194 226.254 428.949 228.808C434.304 229.901 434.099 226.98 440.761 227.21Z"/><path fill="#010C3A" transform="scale(0.930233 2.10938)" d="M424.272 242.306C425.37 234.51 425.675 226.749 426.928 218.678C427.196 221.905 427.194 226.254 428.949 228.808C434.304 229.901 434.099 226.98 440.761 227.21C437.218 230.435 433.157 233.965 429.897 237.411C430.345 250.686 429.388 263.166 429.725 275.695C426.776 272.674 429.761 258.532 428.121 254.209C427.713 253.134 425.152 254.442 423.438 249.296L424.272 242.306Z"/><path fill="#197CD8" transform="scale(0.930233 2.10938)" d="M462.708 208.046C469.102 201.658 475.975 195.259 482.524 188.991C482.844 193.903 482.631 199.234 482.539 204.186C481.471 210.619 482.268 247.183 482.341 255.543C472.8 255.497 457.161 255.948 448.368 253.719C450.2 239.45 457.452 221.599 462.708 208.046Z"/><path fill="#762BC9" transform="scale(0.930233 2.10938)" d="M1777.63 210.961L1812.92 210.762L1812.67 335.09C1801.06 335.331 1788.94 335.084 1777.29 335.012C1776.36 295.841 1776.96 250.313 1777.63 210.961Z"/><path fill="#3342D6" transform="scale(0.930233 2.10938)" d="M421.04 57.5233C427.78 79.0368 423.398 122.273 435.781 143.231C442.575 154.731 464.643 155.164 478.274 157.852C484.647 158.581 490.023 159.814 496.273 161.179C486.747 162.921 477.191 164.493 467.608 165.894C435.963 170.433 429.724 177.203 427.718 209.38C427.538 212.254 426.856 215.862 426.928 218.678C425.675 226.749 425.37 234.51 424.272 242.306C422.617 241.047 421.065 238.839 419.757 237.157C413.29 160.668 410.702 174.313 341.707 161.224C358.57 159.021 408.645 156.952 412.101 135.086C416.042 110.156 418.11 82.8542 421.04 57.5233Z"/><path fill="#3450B1" transform="scale(0.930233 2.10938)" d="M478.274 157.852C484.647 158.581 490.023 159.814 496.273 161.179C486.747 162.921 477.191 164.493 467.608 165.894C471.987 161.987 476.73 164.35 478.274 157.852Z"/><path fill="#762BC9" transform="scale(0.930233 2.10938)" d="M198.832 238.543C205.586 189.785 223.803 149.299 265.919 120.952C296.497 100.372 341.595 90.7781 377.727 98.2035C384.232 99.2513 391.983 101.182 398.058 103.754C392.518 103.822 366.869 104.641 363.313 103.632C272.961 114.989 222.677 160.272 211.168 252.386C207.467 252.569 204.366 252.989 200.899 251.677C197.833 247.792 198.71 243.882 198.832 238.543Z"/><path fill="#3342D6" transform="scale(0.930233 2.10938)" d="M377.727 98.2035C384.232 99.2513 391.983 101.182 398.058 103.754C392.518 103.822 366.869 104.641 363.313 103.632C366.877 100.254 374.152 104.383 377.727 98.2035Z"/><path fill="#762BC9" transform="scale(0.930233 2.10938)" d="M268.269 152.113C270.781 154.018 273.481 156.371 275.851 158.491C294.982 175.605 315.068 192.374 333.52 210.179C323.303 222.731 316.495 236.836 306.576 249.331C301.169 245.248 293.875 238.213 288.688 233.475L282.369 227.755C277.987 224.264 272.479 219.154 268.152 215.375L268.269 152.113Z"/><path fill="#171B84" transform="scale(0.930233 2.10938)" d="M256.204 382.368C215.101 354.228 196.652 298.504 197.728 250.733C197.825 246.421 197.813 242.76 198.832 238.543C198.71 243.882 197.833 247.792 200.899 251.677C204.366 252.989 207.467 252.569 211.168 252.386C210.385 292.126 218.425 319.722 240.507 353.534C244.796 360.101 251.649 370.251 257.03 375.837C257.304 376.123 257.583 376.405 257.865 376.683L256.204 382.368Z"/><path fill="#762BC9" transform="scale(0.930233 2.10938)" d="M1788.76 155.24C1800.32 154.435 1811.15 156.151 1815.61 168.674C1817.33 173.362 1817.09 178.546 1814.94 183.052C1811.69 189.706 1806.59 192.297 1799.98 194.575C1789.34 195.395 1779.27 192.424 1774.75 181.836C1772.78 177.323 1772.73 172.207 1774.6 167.655C1777.3 161.256 1782.56 157.709 1788.76 155.24Z"/><path fill="#197CD8" transform="scale(0.930233 2.10938)" d="M505.954 165.396C520.484 182.509 527.103 199.723 533.782 220.656C530.558 221.484 528.122 222.251 524.777 222.327C521.19 204.265 512.746 182.361 505.954 165.396Z"/><path fill="#000823" transform="scale(0.930233 2.10938)" d="M1083.33 221.545C1087.24 223.826 1089.67 225.903 1094.26 224.244C1096 227.884 1099.33 234.344 1100.52 237.945C1097.98 237.728 1091.29 227.721 1078.47 233.654C1079.49 230.422 1081.97 224.862 1083.33 221.545Z"/><path fill="#000823" transform="scale(0.930233 2.10938)" d="M493.318 365.88C492.524 366.195 491.723 366.49 490.914 366.765C487.781 367.797 487.18 367.396 484.79 366.178C483.121 361.127 486.02 358.116 490.457 355.979C493.367 356.118 492.749 355.631 494.354 357.348C495.404 361.485 494.874 360.866 493.473 365.411L493.318 365.88Z"/><path fill="#010C3A" transform="scale(0.930233 2.10938)" d="M257.865 376.683C260.476 379.931 264.534 385.763 268.078 387.274L268.38 390.578C263.55 387.821 260.383 386.179 256.204 382.368L257.865 376.683Z"/><path fill="#3450B1" transform="scale(0.930233 2.10938)" d="M419.757 237.157C421.065 238.839 422.617 241.047 424.272 242.306L423.438 249.296C423.042 250.358 422.75 250.497 421.884 251.28C420.371 248.401 420.077 240.76 419.757 237.157Z"/></svg>