<?xml version="1.0" encoding="utf-8" ?><svg xmlns="http://www.w3.org/2000/svg" xmlns:xlink="http://www.w3.org/1999/xlink" width="1344" height="768" viewBox="0 0 1344 768"><path fill="#3243E6" d="M274.55 353.744L368.187 436.607C368.22 443.114 368.338 449.62 368.541 456.124C386.884 438.585 396.218 414.299 396.75 389.112C396.978 380.307 396.174 371.506 394.353 362.888L400.209 361.553C406.716 391.624 406.017 419.969 388.819 446.653C375.236 467.662 353.815 482.363 329.33 487.479C308.161 491.969 281.51 489.479 262.341 479.021C295.803 486.977 322.127 487.853 352.747 469.037C354.709 467.838 356.63 466.574 358.508 465.247C325.748 438.001 293.119 408.058 260.523 380.285C260.588 376.267 260.96 374.903 263.432 371.669C268.093 365.572 271.335 360.706 274.55 353.744Z"/><path fill="#666EF5" fill-opacity="0.87843138" d="M603.964 354.581C618.074 352.238 632.353 357.664 641.348 368.788C650.343 379.911 652.663 395.013 647.423 408.324C642.183 421.636 630.192 431.101 616.03 433.104C594.496 436.149 574.518 421.305 571.215 399.804C567.911 378.304 582.51 358.144 603.964 354.581ZM616.047 431.74C629.726 429.745 641.276 420.547 646.283 407.659C651.291 394.771 648.983 380.186 640.241 369.475C631.499 358.764 617.674 353.583 604.048 355.91C583.333 359.449 569.316 378.993 572.601 399.754C575.886 420.515 595.253 434.773 616.047 431.74Z"/><path fill="#666EF5" fill-opacity="0.89019608" d="M605.842 373.01C633.647 370.673 637.919 405.637 615.227 414.497C587.977 417.546 582.362 382.199 605.842 373.01ZM613.786 413.375C618.883 411.76 624.176 409.026 626.098 403.834C632.273 387.152 624.444 372.882 606.406 374.321C584.401 382.191 589.669 415.428 613.786 413.375Z"/><path fill="#6F7BF6" fill-opacity="0.9137255" d="M760.301 355.27C776.836 353.427 797.525 357.54 800.751 375.844C803.538 391.658 802.293 414.717 802.529 431.139C798.16 431.219 785.957 431.559 782.19 430.883C781.207 429.07 781.554 426.925 781.623 424.76C769.333 435.11 753.329 435.397 740.385 426.001L739.877 425.48C735.58 421.034 732.66 415.613 732.932 409.304C733.978 385.099 763.222 386.389 780.44 387.138C780.141 385.171 779.645 381.11 778.614 379.617C770.762 368.251 752.96 374.519 743.681 380.029C741.004 375.03 738.657 369.495 736.338 364.289C744.461 358.924 750.785 356.91 760.301 355.27ZM781.659 388.578C765.494 388.577 734.091 385.702 734.248 409.54C734.29 415.919 736.644 420.628 741.185 425.016L741.676 425.486C755.839 434.411 770.767 433.54 782.656 421.438C782.595 424.192 782.479 427.106 782.546 429.843L801.337 429.765C799.094 396.194 812.923 350.522 760.405 356.653C751.034 358.205 746.23 359.762 737.825 364.649C739.976 369.48 741.886 373.579 744.334 378.262C753.916 372.337 772.077 367.147 779.706 378.936C781.215 381.27 781.481 385.806 781.659 388.578Z"/><path fill="#6F7BF6" fill-opacity="0.85882354" d="M781.466 399.492C781.524 406.638 782.297 407.876 777.63 413.745C768.816 424.831 744.135 413.953 756.353 402.311L757.275 402.983C751.89 410.213 756.307 416.449 764.345 417.114C768.382 417.488 772.401 416.239 775.515 413.642C780.099 409.752 779.974 407.055 780.388 401.557L781.466 399.492Z"/><path fill="#666EF5" fill-opacity="0.93725491" d="M756.353 402.311C761.926 398.405 774.24 399.444 781.466 399.492L780.388 401.557C776.271 399.96 761.64 400.813 757.275 402.983L756.353 402.311Z"/><path fill="#3243E6" d="M849.515 334.333C863.869 333.52 875.176 335.959 887.814 342.641C885.49 347.51 883.108 354.022 881.085 359.146C870.458 353.511 850.236 346.645 839.632 355.849C838.287 357.016 835.15 361.276 835.909 362.84C843.999 379.521 873.115 373.722 885.401 387.692C889.521 391.913 891.49 396.289 891.481 402.313C891.447 425.536 869.588 432.635 849.88 432.424C837.2 431.282 824.055 428.882 813.72 420.873C816.115 416.158 818.726 409.51 820.844 404.521C832.813 412.762 841.381 415.476 856.124 415.207C866.092 415.025 877.326 405.562 865.849 398.307C854.926 391.403 836.305 392.174 825.469 383.369C820.476 379.313 816.87 375.137 816.105 368.406C814.195 345.617 829.247 336.605 849.515 334.333Z"/><path fill="#3243E6" d="M934.243 356.019C950.644 354.277 965.707 364.143 970.789 379.683C973.387 387.629 973.426 392.341 973.315 400.451L917.664 400.365C924.326 418.856 943.708 418.59 957.638 408.114L962.484 412.866L968.924 418.864C954.988 434.236 926.197 436.727 911.462 423.485C884.024 398.827 897.898 359.755 934.243 356.019ZM917.511 388.057L938.766 388.063L954.006 388.087C951.372 376.388 945.675 372.28 933.781 372.39C923.571 374.611 920.568 378.229 917.511 388.057Z"/><path fill="#7E28D5" d="M1026.99 356.011C1027.88 355.897 1028.77 355.839 1029.66 355.837C1051.36 355.787 1059.53 369.88 1059.52 390.058C1059.51 403.555 1059.5 417.198 1059.58 430.694L1038.94 430.632C1038.72 413.722 1046.18 357.659 1012.61 377.668C1004.62 384.824 1006.33 395.015 1006.31 404.866C1006.3 413.446 1006.49 422.07 1006.58 430.653L985.706 430.656L985.619 356.945C992.171 356.858 998.821 356.913 1005.38 356.909L1005.4 366.895C1012.12 359.274 1017.13 357.314 1026.99 356.011Z"/><path fill="#666EF5" fill-opacity="0.89411765" d="M668.631 356.097C670.013 355.956 670.975 356.2 672.333 356.425C674.416 358.664 689.592 399.152 692.3 405.466C695.301 394.753 707.208 367.608 711.871 356.143C718.981 356.084 726.091 356.162 733.198 356.376C730.2 365.419 724.129 378.682 720.271 387.78C714.086 401.705 708.154 417.082 702.105 431.263L681.092 431.297C675.746 420.059 670.127 405.541 665.325 393.91C660.675 382.645 654.105 367.558 650.481 356.281C656.53 356.145 662.58 356.084 668.631 356.097ZM681.781 429.963L701.234 429.936C710.739 408.816 722.941 379.563 731.211 357.75C725.055 357.732 718.731 357.635 712.591 357.713C706.128 373.446 699.029 392.552 692.031 407.699C685.718 394.871 677.208 371.466 671.767 357.471C667.226 356.828 656.716 357.101 652.101 357.489C660.687 379.137 672.113 409.028 681.781 429.963Z"/><path fill="#6F7BF6" fill-opacity="0.55686277" d="M652.101 357.489C656.716 357.101 667.226 356.828 671.767 357.471C666.741 357.958 657.13 357.93 652.101 357.489Z"/><path fill="#171B8C" d="M234.954 364.604C237.926 366.622 244.661 372.671 247.58 375.194L271.211 395.608C271.115 412.624 271.156 429.641 271.333 446.657C265.894 451.355 259.929 456.163 254.38 460.782C247.94 466.251 241.46 471.672 234.94 477.045C235.204 439.565 235.208 402.084 234.954 364.604Z"/><path fill="#7E28D5" d="M1089.62 339.702L1099.2 339.628L1099.33 357.844L1117.82 357.734C1117.74 363.608 1117.74 368.016 1118.2 373.852L1099.28 373.6C1099.19 381.505 1099.18 389.899 1099.05 397.769C1098.82 411.615 1101.4 419.928 1116.81 412.613L1121.94 427.398L1116.76 430.166C1107.68 433.581 1092.71 433.044 1085.85 425.517C1075.75 414.426 1078.72 388.467 1078.76 373.813L1067.54 373.962L1067.16 357.85L1078.76 357.796L1078.84 339.813L1089.62 339.702Z"/><path fill="#3243E6" d="M354.195 354.641L368.017 341.938C367.547 357.089 368.311 373.444 367.602 388.126C368.578 401.219 367.56 417.122 368.098 430.607C365.842 428.739 355.186 420.039 353.534 418.114C348.096 414.064 340.726 407.315 335.424 402.748L335.514 371.424C340.522 366.291 348.637 359.476 354.195 354.641Z"/><path fill="#107DE7" d="M354.195 354.641L368.017 341.938C367.547 357.089 368.311 373.444 367.602 388.126C366.953 386.869 366.753 384.935 366.243 383.298C361.79 379.973 354.25 384.191 347.41 381.258L346.789 378.887C348.722 368.945 353.036 361.206 354.195 354.641Z"/><path fill="#171B8C" d="M354.195 354.641C353.036 361.206 348.722 368.945 346.789 378.887C345.201 390.214 346.576 397.914 350.692 408.504C351.742 411.207 353.372 415.312 353.534 418.114C348.096 414.064 340.726 407.315 335.424 402.748L335.514 371.424C340.522 366.291 348.637 359.476 354.195 354.641Z"/><path fill="#3243E6" d="M329.717 260.51C332.798 264.324 332.605 304.517 337.509 312.003C341.843 318.619 343.338 319.07 351.598 320.448C359.873 321.828 368.102 322.487 376.063 325.238C366.865 326.465 354.709 327.7 345.932 330.215C334.931 333.367 334.944 343.952 333.958 353.702C333.366 360.039 332.7 366.37 331.961 372.692C331.693 374.856 331.367 379.074 330.461 380.906L329.709 379.862C325.916 326.608 327.313 332.137 278.42 324.758C289.836 323.735 322.413 323.179 324.336 309.325C326.529 293.53 328.061 276.439 329.717 260.51Z"/><path fill="#7E28D5" d="M1131.25 356.968C1137.63 356.722 1145.21 356.964 1151.67 357.008C1151.62 381.639 1151.72 406.27 1151.97 430.899C1146.38 430.461 1137.23 430.755 1131.38 430.762L1131.25 356.968Z"/><path fill="#7E28D5" d="M191.412 379.78C193.113 324.453 233.481 283.629 289.881 285.236C299.3 285.504 308.054 286.871 316.918 290.224C295.85 289.916 280.147 289.236 260.067 297.003C221.631 311.87 203.295 341.441 199.775 381.353C196.347 379.096 195.287 379.24 191.412 379.78Z"/><path fill="#7E28D5" d="M234.888 319.432C245.626 327.627 263.623 344.285 274.55 353.744C271.335 360.706 268.093 365.572 263.432 371.669C260.96 374.903 260.588 376.267 260.523 380.285C253.302 373.288 242.754 364.542 235.013 357.659C235.229 345.152 234.956 331.987 234.888 319.432Z"/><path fill="#171B8C" d="M191.412 379.78C195.287 379.24 196.347 379.096 199.775 381.353C198.301 416.604 213.498 439.333 235.859 464.048C228.949 460.109 222.585 455.279 216.933 449.682C198.031 430.61 191.218 405.983 191.412 379.78Z"/><path fill="#7E28D5" d="M1137.28 324.323C1143.48 323.669 1149.3 324.157 1152.67 330.293C1154.02 332.703 1154.34 335.552 1153.57 338.201C1152.29 342.602 1149.39 344.636 1145.6 346.65C1142.72 347.185 1140.91 347.41 1138.04 346.576C1134.85 345.684 1132.15 343.533 1130.58 340.618C1129.17 337.936 1128.9 334.796 1129.85 331.917C1131.18 327.785 1133.67 326.196 1137.28 324.323Z"/><path fill="#666EF5" fill-opacity="0.9254902" d="M469.828 334.807L488.458 334.828C501.316 348.918 521.944 376.066 534.124 391.664L533.525 392.533C530.548 389.763 527.617 385.654 525.003 382.443C512.62 367.232 500.855 351.279 488.258 336.256L471.238 336.175L471.152 429.743C476.743 429.726 485.566 429.948 490.875 429.369L491.479 429.329L492.101 429.308L492.58 430.927C487.648 430.373 474.333 430.529 469.608 431.068C469.261 410.484 470.168 389.568 469.698 368.918C469.445 357.828 469.443 345.867 469.828 334.807Z"/><path fill="#107DE7" d="M382.135 326.783C391.659 338.186 395.505 347.73 400.209 361.553L394.353 362.888C390.937 348.852 387.418 340.13 382.135 326.783Z"/><path fill="#666EF5" d="M542.501 336.048C548.254 334.588 551.989 336.288 557.201 335.143L557.072 336.139C555.677 343.854 556.795 372.638 556.594 382.208C556.468 388.204 556.39 415.045 557.057 419.656L557.248 431.055L555.296 429.914C555.785 427.063 555.593 406.829 555.602 402.576L555.593 336.105C551.229 336.205 546.864 336.186 542.501 336.048Z"/><path fill="#6F7BF6" fill-opacity="0.97647059" d="M490.999 372.697L491.52 371.591C494.044 374.069 496.84 377.741 499.105 380.586C507.382 390.979 516.119 401.212 524.191 411.75L523.473 413.004L492.979 374.993L492.186 375.456C492.014 393.331 492.393 411.477 492.101 429.308L491.479 429.329L491.682 395.785C491.713 389.012 491.976 379.128 490.999 372.697Z"/><path fill="#6F7BF6" fill-opacity="0.84313726" d="M524.191 411.75C528.448 416.991 534.379 424.892 538.589 429.621C541.55 429.638 552.938 429.505 555.296 429.914L557.248 431.055C552.036 431.398 543.582 431.124 538.125 431.123C534.009 426.989 527.297 417.89 523.473 413.004L524.191 411.75Z"/><path fill="#A2A3F2" fill-opacity="0.50196081" d="M557.072 336.139L557.231 390.817C557.234 398.251 557.618 412.682 557.057 419.656C556.39 415.045 556.468 388.204 556.594 382.208C556.795 372.638 555.677 343.854 557.072 336.139Z"/><path fill="#666EF5" d="M534.523 335.226L539.928 335.902L536.194 336.39C533.904 340.721 536.937 386.974 535.27 394.211C533.988 393.8 534.417 393.993 533.525 392.533L534.124 391.664L534.273 388.686C535.257 382.835 535.053 341.267 534.523 335.226Z"/><path fill="#A2A3F2" fill-opacity="0.53725493" d="M492.101 429.308C492.393 411.477 492.014 393.331 492.186 375.456L492.979 374.993C492.393 387.893 493.044 401.382 492.827 414.319C492.751 418.886 493.065 426.598 492.58 430.927L492.101 429.308Z"/><path fill="#A2A3F2" fill-opacity="0.54509807" d="M490.999 372.697C491.976 379.128 491.713 389.012 491.682 395.785L491.479 429.329L490.875 429.369C491.003 410.536 490.696 391.476 490.999 372.697Z"/><path fill="#6F7BF6" fill-opacity="0.54509807" d="M534.273 388.686C533.731 381.002 534.307 369.021 534.135 360.982C534.014 355.284 533.827 340.167 534.523 335.226C535.053 341.267 535.257 382.835 534.273 388.686Z"/><path fill="#6F7BF6" fill-opacity="0.78431374" d="M534.523 335.226C537.854 334.685 554.164 334.277 557.201 335.143C551.989 336.288 548.254 334.588 542.501 336.048L539.928 335.902L534.523 335.226Z"/><path fill="#6F7BF6" fill-opacity="0.63137257" d="M492.58 430.927C489.343 431.615 473.259 431.296 469.608 431.068C474.333 430.529 487.648 430.373 492.58 430.927Z"/></svg>